<svg width="253" height="200" viewBox="0 0 253 200" fill="none" xmlns="http://www.w3.org/2000/svg">
<g filter="url(#filter0_b_1_13048)">
<rect y="0.990356" width="252.91" height="165" rx="10.0311" fill="#E8356D"/>
</g>
<path d="M237.216 0.990356H10.0285C4.48991 0.990356 0 5.48026 0 11.0188V156.726C0 157.801 1.19367 158.447 2.09316 157.858L237.957 3.47442C239.082 2.73834 238.56 0.990356 237.216 0.990356Z" fill="#E62662"/>
<path d="M29.6982 48.9485L30.776 46.456H36.4177L37.4787 48.9485H40.3754L35.4073 37.665H31.8033L26.8689 48.9485H29.6982ZM32.8138 41.7237L33.5043 39.9723H33.6895L34.38 41.7237L35.441 44.1825H31.7528L32.8138 41.7237ZM45.4612 49.1169C48.1726 49.1169 50.0251 47.6517 50.0251 45.4792V45.2435H47.5158V45.3782C47.5158 46.456 46.7243 46.8434 45.4107 46.8434C43.9118 46.8434 43.2214 46.2876 43.2214 44.7382C43.2214 43.172 43.9118 42.6163 45.4107 42.6163C46.7243 42.6163 47.5158 43.0036 47.5158 44.0815V44.2162H50.0251V43.9804C50.0251 41.7911 48.1726 40.3428 45.4612 40.3428C42.5646 40.3428 40.7121 42.0437 40.7121 44.7382C40.7121 47.3991 42.5646 49.1169 45.4612 49.1169ZM55.6085 49.1169C58.3199 49.1169 60.1724 47.6517 60.1724 45.4792V45.2435H57.6631V45.3782C57.6631 46.456 56.8716 46.8434 55.558 46.8434C54.0592 46.8434 53.3687 46.2876 53.3687 44.7382C53.3687 43.172 54.0592 42.6163 55.558 42.6163C56.8716 42.6163 57.6631 43.0036 57.6631 44.0815V44.2162H60.1724V43.9804C60.1724 41.7911 58.3199 40.3428 55.6085 40.3428C52.7119 40.3428 50.8594 42.0437 50.8594 44.7382C50.8594 47.3991 52.7119 49.1169 55.6085 49.1169ZM65.739 49.1169C68.4167 49.1169 70.2019 47.837 70.2019 46.0013V45.8161H67.6757V45.9845C67.6757 46.7086 67.1537 47.096 65.6548 47.096C64.0212 47.096 63.415 46.5402 63.3476 45.2435H70.2187C70.2524 44.9572 70.2861 44.7382 70.2861 44.4351C70.2861 41.7911 68.4504 40.3428 65.6885 40.3428C62.9097 40.3428 61.0067 42.0437 61.0067 44.7382C61.0067 47.7359 62.9266 49.1169 65.739 49.1169ZM65.638 42.3132C67.12 42.3132 67.7936 42.8015 67.861 43.913H63.3813C63.4992 42.8184 64.1391 42.3132 65.638 42.3132ZM75.6181 49.1169C78.2284 49.1169 79.7946 48.0728 79.7946 46.4897C79.7946 45.0919 78.9526 44.3341 76.6959 44.0815L74.8939 43.8625C73.7824 43.7278 73.5466 43.5425 73.5466 43.1047C73.5466 42.5658 73.8666 42.3468 75.1297 42.3468C76.6791 42.3468 77.0159 42.7005 77.0159 43.391V43.492H79.542V43.4415C79.542 41.3869 77.9758 40.3428 75.2139 40.3428C72.3173 40.3428 71.0542 41.5216 71.0542 43.0036C71.0542 44.4183 71.9973 45.1761 73.6814 45.3614L76.0559 45.6477C77.0496 45.7824 77.3022 45.9171 77.3022 46.3887C77.3022 46.8939 76.9822 47.1128 75.6349 47.1128C74.2034 47.1128 73.7319 46.9107 73.7319 46.1529V46.0013H71.2058V46.0518C71.2058 48.0054 72.772 49.1169 75.6181 49.1169ZM85.0747 49.1169C87.685 49.1169 89.2512 48.0728 89.2512 46.4897C89.2512 45.0919 88.4092 44.3341 86.1525 44.0815L84.3505 43.8625C83.239 43.7278 83.0032 43.5425 83.0032 43.1047C83.0032 42.5658 83.3232 42.3468 84.5863 42.3468C86.1357 42.3468 86.4725 42.7005 86.4725 43.391V43.492H88.9986V43.4415C88.9986 41.3869 87.4324 40.3428 84.6705 40.3428C81.7739 40.3428 80.5108 41.5216 80.5108 43.0036C80.5108 44.4183 81.4539 45.1761 83.138 45.3614L85.5125 45.6477C86.5062 45.7824 86.7588 45.9171 86.7588 46.3887C86.7588 46.8939 86.4388 47.1128 85.0915 47.1128C83.66 47.1128 83.1885 46.9107 83.1885 46.1529V46.0013H80.6623V46.0518C80.6623 48.0054 82.2286 49.1169 85.0747 49.1169ZM98.8139 48.9485V46.675H97.2982C96.4056 46.675 96.0856 46.456 96.0856 45.614V42.5994H98.8139V40.5112H96.0856V38.8776H93.5595V40.5112H92.2291V42.5994H93.5595V45.9003C93.5595 48.0222 94.7552 48.9485 96.7256 48.9485H98.8139ZM104.257 49.1169C107.136 49.1169 109.073 47.3991 109.073 44.7382C109.073 42.0437 107.136 40.3428 104.257 40.3428C101.377 40.3428 99.44 42.0437 99.44 44.7382C99.44 47.3991 101.377 49.1169 104.257 49.1169ZM104.257 46.877C102.539 46.877 101.949 46.2203 101.949 44.7382C101.949 43.2562 102.539 42.5658 104.257 42.5658C105.957 42.5658 106.564 43.2562 106.564 44.7382C106.564 46.2203 105.957 46.877 104.257 46.877ZM115.229 48.9485V44.6877C115.229 43.2226 115.667 42.6163 117.2 42.6163C118.648 42.6163 119.136 43.1384 119.136 44.5362V48.9485H121.663V44.6877C121.663 43.2226 122.1 42.6163 123.633 42.6163C125.081 42.6163 125.57 43.1384 125.57 44.5362V48.9485H128.096V43.6941C128.096 41.7742 127.035 40.3428 124.862 40.3428C122.69 40.3428 121.831 41.6732 121.629 43.1047H121.477C121.292 41.5385 120.298 40.3428 118.345 40.3428C116.223 40.3428 115.381 41.6564 115.179 43.071H115.044V40.5112H112.703V48.9485H115.229ZM133.876 49.1169C136.756 49.1169 138.693 47.3991 138.693 44.7382C138.693 42.0437 136.756 40.3428 133.876 40.3428C130.996 40.3428 129.06 42.0437 129.06 44.7382C129.06 47.3991 130.996 49.1169 133.876 49.1169ZM133.876 46.877C132.158 46.877 131.569 46.2203 131.569 44.7382C131.569 43.2562 132.158 42.5658 133.876 42.5658C135.577 42.5658 136.183 43.2562 136.183 44.7382C136.183 46.2203 135.577 46.877 133.876 46.877ZM142.251 48.9485V44.0646C142.251 43.0036 142.655 42.4816 143.783 42.4816C144.81 42.4816 145.181 42.8857 145.181 43.812V44.6877H147.707V43.2899C147.707 41.6395 146.932 40.3428 145.046 40.3428C143.345 40.3428 142.453 41.3869 142.217 42.751H142.065V40.5112H139.724V48.9485H142.251ZM153.101 49.1169C155.779 49.1169 157.564 47.837 157.564 46.0013V45.8161H155.038V45.9845C155.038 46.7086 154.516 47.096 153.017 47.096C151.384 47.096 150.777 46.5402 150.71 45.2435H157.581C157.615 44.9572 157.649 44.7382 157.649 44.4351C157.649 41.7911 155.813 40.3428 153.051 40.3428C150.272 40.3428 148.369 42.0437 148.369 44.7382C148.369 47.7359 150.289 49.1169 153.101 49.1169ZM153 42.3132C154.482 42.3132 155.156 42.8015 155.223 43.913H150.744C150.862 42.8184 151.502 42.3132 153 42.3132ZM30.8265 69.9485V63.5994H33.4369V61.5112H30.7255C30.6581 60.686 31.1802 60.5007 32.2917 60.5007H33.4369V58.665H32.6959C30.1024 58.665 28.6204 59.8102 28.3509 61.5112H27.1047V63.5994H28.3004V69.9485H30.8265ZM36.8051 60.6523V58.665H34.2789V60.6523H36.8051ZM36.8051 69.9485V61.5112H34.2789V69.9485H36.8051ZM40.6621 69.9485V65.6877C40.6621 64.2562 41.2346 63.6163 42.8345 63.6163C44.3839 63.6163 44.9397 64.1889 44.9397 65.5362V69.9485H47.4658V64.6941C47.4658 62.8248 46.3711 61.3428 44.0639 61.3428C41.8578 61.3428 40.8473 62.69 40.6284 64.1047H40.4768V61.5112H38.1359V69.9485H40.6621ZM51.3372 70.1169C53.2066 70.1169 54.3855 69.3254 54.7728 68.0118H54.9075V69.9485H57.2653V64.9972C57.2653 62.7911 55.9348 61.3428 53.1224 61.3428C50.3436 61.3428 48.5922 62.7911 48.5922 64.8794V64.9299H51.1352V64.8625C51.1352 63.9026 51.6572 63.5658 52.9371 63.5658C54.2844 63.5658 54.7728 63.8689 54.7728 64.9636V65.2835L51.152 65.654C49.35 65.8393 48.4238 66.614 48.4238 67.8602C48.4238 69.2748 49.5184 70.1169 51.3372 70.1169ZM50.9667 67.6918C50.9667 67.2876 51.2362 67.1192 51.8425 67.0687L54.7728 66.7319C54.7054 67.9276 53.7792 68.3318 52.0614 68.3318C51.3204 68.3318 50.9667 68.1465 50.9667 67.6918ZM61.0718 69.9485V65.6877C61.0718 64.2562 61.6444 63.6163 63.2443 63.6163C64.7937 63.6163 65.3494 64.1889 65.3494 65.5362V69.9485H67.8756V64.6941C67.8756 62.8248 66.7809 61.3428 64.4737 61.3428C62.2676 61.3428 61.2571 62.69 61.0382 64.1047H60.8866V61.5112H58.5457V69.9485H61.0718ZM73.6501 70.1169C76.3615 70.1169 78.214 68.6517 78.214 66.4792V66.2435H75.7047V66.3782C75.7047 67.456 74.9131 67.8434 73.5995 67.8434C72.1007 67.8434 71.4102 67.2876 71.4102 65.7382C71.4102 64.172 72.1007 63.6163 73.5995 63.6163C74.9131 63.6163 75.7047 64.0036 75.7047 65.0815V65.2162H78.214V64.9804C78.214 62.7911 76.3615 61.3428 73.6501 61.3428C70.7534 61.3428 68.9009 63.0437 68.9009 65.7382C68.9009 68.3991 70.7534 70.1169 73.6501 70.1169ZM81.827 60.6523V58.665H79.3009V60.6523H81.827ZM81.827 69.9485V61.5112H79.3009V69.9485H81.827ZM85.7428 70.1169C87.6121 70.1169 88.791 69.3254 89.1783 68.0118H89.3131V69.9485H91.6708V64.9972C91.6708 62.7911 90.3404 61.3428 87.5279 61.3428C84.7492 61.3428 82.9977 62.7911 82.9977 64.8794V64.9299H85.5407V64.8625C85.5407 63.9026 86.0628 63.5658 87.3427 63.5658C88.69 63.5658 89.1783 63.8689 89.1783 64.9636V65.2835L85.5575 65.654C83.7556 65.8393 82.8293 66.614 82.8293 67.8602C82.8293 69.2748 83.924 70.1169 85.7428 70.1169ZM85.3723 67.6918C85.3723 67.2876 85.6417 67.1192 86.248 67.0687L89.1783 66.7319C89.111 67.9276 88.1847 68.3318 86.4669 68.3318C85.7259 68.3318 85.3723 68.1465 85.3723 67.6918ZM95.4774 69.9485V58.665H92.9512V69.9485H95.4774ZM105.343 69.9485V67.675H103.827C102.935 67.675 102.615 67.456 102.615 66.614V63.5994H105.343V61.5112H102.615V59.8776H100.089V61.5112H98.7582V63.5994H100.089V66.9003C100.089 69.0222 101.284 69.9485 103.255 69.9485H105.343ZM110.786 70.1169C113.665 70.1169 115.602 68.3991 115.602 65.7382C115.602 63.0437 113.665 61.3428 110.786 61.3428C107.906 61.3428 105.969 63.0437 105.969 65.7382C105.969 68.3991 107.906 70.1169 110.786 70.1169ZM110.786 67.877C109.068 67.877 108.478 67.2203 108.478 65.7382C108.478 64.2562 109.068 63.5658 110.786 63.5658C112.487 63.5658 113.093 64.2562 113.093 65.7382C113.093 67.2203 112.487 67.877 110.786 67.877ZM121.13 70.1169C124.01 70.1169 125.947 68.3991 125.947 65.7382C125.947 63.0437 124.01 61.3428 121.13 61.3428C118.251 61.3428 116.314 63.0437 116.314 65.7382C116.314 68.3991 118.251 70.1169 121.13 70.1169ZM121.13 67.877C119.413 67.877 118.823 67.2203 118.823 65.7382C118.823 64.2562 119.413 63.5658 121.13 63.5658C122.831 63.5658 123.438 64.2562 123.438 65.7382C123.438 67.2203 122.831 67.877 121.13 67.877ZM129.505 69.9485V58.665H126.979V69.9485H129.505ZM135.088 70.1169C137.698 70.1169 139.264 69.0728 139.264 67.4897C139.264 66.0919 138.422 65.3341 136.166 65.0815L134.364 64.8625C133.252 64.7278 133.016 64.5425 133.016 64.1047C133.016 63.5658 133.336 63.3468 134.599 63.3468C136.149 63.3468 136.486 63.7005 136.486 64.391V64.492H139.012V64.4415C139.012 62.3869 137.445 61.3428 134.684 61.3428C131.787 61.3428 130.524 62.5216 130.524 64.0036C130.524 65.4183 131.467 66.1761 133.151 66.3614L135.526 66.6477C136.519 66.7824 136.772 66.9171 136.772 67.3887C136.772 67.8939 136.452 68.1128 135.105 68.1128C133.673 68.1128 133.202 67.9107 133.202 67.1529V67.0013H130.675V67.0518C130.675 69.0054 132.242 70.1169 135.088 70.1169Z" fill="white"/>
<g opacity="0.6">
<path d="M75.2422 198.87C86.7302 196.954 116.646 190.703 125.14 186.537C172.242 163.837 194.743 85.2335 195.022 84.4651H232.946C232.663 85.2163 228.194 98.0825 209.277 134.001C197.582 155.343 180.657 169.571 160.692 181.259C126.404 201.316 75.2422 198.87 75.2422 198.87Z" fill="url(#paint0_linear_1_13048)"/>
<g opacity="0.1">
<path d="M75.2422 198.87C86.7302 196.954 116.646 190.704 125.14 186.538C172.242 163.838 194.743 85.234 195.022 84.4656H232.946C232.663 85.2167 228.194 98.083 209.277 134.001C197.582 155.344 180.657 169.571 160.692 181.259C126.404 201.317 75.2422 198.87 75.2422 198.87Z" fill="url(#paint1_linear_1_13048)"/>
</g>
<path d="M186.207 80.5267L195.018 84.4652C194.777 85.1061 183.037 145.592 147.123 174.626C121.921 194.997 105.791 199.779 51.0391 198.966V188.326C81.9368 188.326 103.979 187.327 124.088 176.834C169.472 153.159 186.139 80.7025 186.207 80.5267Z" fill="url(#paint2_linear_1_13048)"/>
<path d="M186.195 80.5267H227.068L232.93 84.4652H195.006L186.195 80.5267Z" fill="url(#paint3_linear_1_13048)"/>
<path d="M217.341 55.2004L243.917 88.8065L181.281 88.6376L217.341 55.2004Z" fill="url(#paint4_linear_1_13048)"/>
<g opacity="0.1">
<path d="M217.302 55.2004L243.878 88.8065L181.242 88.6376L217.302 55.2004Z" fill="url(#paint5_linear_1_13048)"/>
</g>
<path d="M181.282 88.6378L172.172 84.465L208.231 51.0278L217.342 55.2006L181.282 88.6378Z" fill="url(#paint6_linear_1_13048)"/>
</g>
<defs>
<filter id="filter0_b_1_13048" x="-200.623" y="-199.633" width="654.156" height="566.246" filterUnits="userSpaceOnUse" color-interpolation-filters="sRGB">
<feFlood flood-opacity="0" result="BackgroundImageFix"/>
<feGaussianBlur in="BackgroundImageFix" stdDeviation="100.311"/>
<feComposite in2="SourceAlpha" operator="in" result="effect1_backgroundBlur_1_13048"/>
<feBlend mode="normal" in="SourceGraphic" in2="effect1_backgroundBlur_1_13048" result="shape"/>
</filter>
<linearGradient id="paint0_linear_1_13048" x1="154.094" y1="84.4651" x2="154.094" y2="198.964" gradientUnits="userSpaceOnUse">
<stop stop-color="white" stop-opacity="0.23"/>
<stop offset="1" stop-color="white" stop-opacity="0"/>
</linearGradient>
<linearGradient id="paint1_linear_1_13048" x1="154.094" y1="84.4656" x2="154.094" y2="198.964" gradientUnits="userSpaceOnUse">
<stop stop-color="white"/>
<stop offset="1" stop-color="white" stop-opacity="0"/>
</linearGradient>
<linearGradient id="paint2_linear_1_13048" x1="123.029" y1="80.5267" x2="123.029" y2="199.051" gradientUnits="userSpaceOnUse">
<stop stop-color="white" stop-opacity="0.23"/>
<stop offset="1" stop-color="white" stop-opacity="0"/>
</linearGradient>
<linearGradient id="paint3_linear_1_13048" x1="209.562" y1="80.5267" x2="209.562" y2="84.4652" gradientUnits="userSpaceOnUse">
<stop stop-color="white" stop-opacity="0.23"/>
<stop offset="1" stop-color="white" stop-opacity="0"/>
</linearGradient>
<linearGradient id="paint4_linear_1_13048" x1="212.599" y1="55.2004" x2="212.599" y2="88.8065" gradientUnits="userSpaceOnUse">
<stop stop-color="white" stop-opacity="0.23"/>
<stop offset="1" stop-color="white" stop-opacity="0"/>
</linearGradient>
<linearGradient id="paint5_linear_1_13048" x1="212.56" y1="55.2004" x2="212.56" y2="88.8065" gradientUnits="userSpaceOnUse">
<stop stop-color="white"/>
<stop offset="1" stop-color="white" stop-opacity="0"/>
</linearGradient>
<linearGradient id="paint6_linear_1_13048" x1="194.757" y1="51.0278" x2="194.757" y2="88.6378" gradientUnits="userSpaceOnUse">
<stop stop-color="white" stop-opacity="0.23"/>
<stop offset="1" stop-color="white" stop-opacity="0"/>
</linearGradient>
</defs>
</svg>
