<svg width="673" height="486" viewBox="0 0 673 486" fill="none" xmlns="http://www.w3.org/2000/svg">
<path d="M672.429 0.0234037L551.704 69.7508L672.452 139.438L672.429 0.0234037ZM395.041 469.088L390.101 480.105L395.041 469.088ZM403.252 466.431L413.709 472.466L403.252 466.431ZM151.449 359.863L156.389 348.846L151.449 359.863ZM18.9697 512.478C38.3226 489.683 114.161 409.99 152.896 369.624L135.473 352.905C97.0467 392.949 20.5217 473.339 0.561873 496.849L18.9697 512.478ZM146.509 370.88L390.101 480.105L399.98 458.071L156.389 348.846L146.509 370.88ZM413.709 472.466L628.57 100.172L607.656 88.1022L392.795 460.396L413.709 472.466ZM390.101 480.105C398.765 483.99 408.963 480.69 413.709 472.466L392.795 460.396C394.24 457.893 397.344 456.889 399.98 458.071L390.101 480.105ZM152.896 369.624C151.214 371.377 148.639 371.835 146.509 370.88L156.389 348.846C149.295 345.666 140.921 347.227 135.473 352.905L152.896 369.624Z" fill="#3D0072"/>
</svg>
