<svg width="673" height="490" viewBox="0 0 673 490" fill="none" xmlns="http://www.w3.org/2000/svg">
<path d="M672.773 -3.92524e-06L552.048 69.7274L672.796 139.415L672.773 -3.92524e-06ZM395.384 469.065L390.444 480.082L395.384 469.065ZM403.596 466.408L414.053 472.443L403.596 466.408ZM144.529 361.241L153.24 369.6L144.529 361.241ZM151.792 359.84L156.732 348.823L151.792 359.84ZM19.3135 512.454C38.6664 489.659 114.505 409.966 153.24 369.6L135.817 352.881C97.3905 392.926 20.8654 473.316 0.905623 496.826L19.3135 512.454ZM146.853 370.856L390.444 480.082L400.324 458.048L156.732 348.823L146.853 370.856ZM414.053 472.443L628.914 100.149L608 88.0788L393.139 460.373L414.053 472.443ZM390.444 480.082C399.108 483.966 409.307 480.667 414.053 472.443L393.139 460.373C394.583 457.87 397.687 456.866 400.324 458.048L390.444 480.082ZM153.24 369.6C151.558 371.353 148.982 371.812 146.853 370.856L156.732 348.823C149.639 345.642 141.265 347.204 135.817 352.881L153.24 369.6Z" fill="#0D9488"/>
</svg>
