<svg width="10" height="10" viewBox="0 0 10 10" fill="none" xmlns="http://www.w3.org/2000/svg">
<path d="M7.11182 1.51227C7.06687 1.46721 7.01348 1.43146 6.95469 1.40707C6.89591 1.38267 6.83288 1.37012 6.76924 1.37012C6.70559 1.37012 6.64257 1.38267 6.58379 1.40707C6.525 1.43146 6.47161 1.46721 6.42666 1.51227L3.20988 4.72905C3.174 4.76486 3.14553 4.8074 3.1261 4.85422C3.10668 4.90105 3.09668 4.95125 3.09668 5.00195C3.09668 5.05265 3.10668 5.10285 3.1261 5.14968C3.14553 5.1965 3.174 5.23904 3.20988 5.27485L6.42666 8.49163C6.61634 8.68131 6.92214 8.68131 7.11182 8.49163C7.3015 8.30195 7.3015 7.99614 7.11182 7.80647L4.30924 5.00001L7.11569 2.19356C7.3015 2.00776 7.3015 1.69808 7.11182 1.51227Z" fill="#4B5563"/>
</svg>
