<svg width="254" height="166" viewBox="0 0 254 166" fill="none" xmlns="http://www.w3.org/2000/svg">
<g filter="url(#filter0_b_1_14023)">
<rect x="0.458984" y="0.990723" width="252.91" height="165" rx="10.0311" fill="#F97316"/>
</g>
<path d="M237.675 0.990723H10.4875C4.94889 0.990723 0.458984 5.48063 0.458984 11.0192V156.727C0.458984 157.802 1.65266 158.447 2.55214 157.858L238.416 3.47479C239.541 2.73871 239.019 0.990723 237.675 0.990723Z" fill="#FA6803"/>
<path d="M30.6978 48.7734V45.6579H34.066C36.6764 45.6579 38.3605 44.159 38.3605 41.5655C38.3605 38.972 36.6764 37.49 34.066 37.49H28.1717V48.7734H30.6978ZM33.7966 39.7635C35.1944 39.7635 35.8512 40.1846 35.8512 41.5655C35.8512 42.9801 35.1944 43.3843 33.7966 43.3843H30.6978V39.7635H33.7966ZM41.7826 48.7734V43.8896C41.7826 42.8286 42.1868 42.3065 43.3151 42.3065C44.3424 42.3065 44.7129 42.7107 44.7129 43.6369V44.5127H47.2391V43.1149C47.2391 41.4645 46.4644 40.1677 44.5782 40.1677C42.8773 40.1677 41.9847 41.2118 41.7489 42.576H41.5973V40.3361H39.2565V48.7734H41.7826ZM52.6504 48.9418C55.5302 48.9418 57.4669 47.2241 57.4669 44.5632C57.4669 41.8686 55.5302 40.1677 52.6504 40.1677C49.7706 40.1677 47.8339 41.8686 47.8339 44.5632C47.8339 47.2241 49.7706 48.9418 52.6504 48.9418ZM52.6504 46.702C50.9326 46.702 50.3432 46.0452 50.3432 44.5632C50.3432 43.0812 50.9326 42.3907 52.6504 42.3907C54.3513 42.3907 54.9576 43.0812 54.9576 44.5632C54.9576 46.0452 54.3513 46.702 52.6504 46.702ZM63.438 48.7734V46.4325H63.5895C63.8927 48.0998 65.0042 48.9418 66.9577 48.9418C69.5849 48.9418 71.0164 47.2241 71.0164 44.5632C71.0164 41.8686 69.6017 40.1677 67.0756 40.1677C65.0715 40.1677 64.0442 41.1613 63.7579 42.576H63.6232V37.49H61.0971V48.7734H63.438ZM63.6232 44.6137V44.479C63.6232 43.0138 64.4653 42.4749 66.0988 42.4749C67.7156 42.4749 68.4566 43.0138 68.4566 44.5632C68.4566 46.0957 67.7156 46.6346 66.082 46.6346C64.4821 46.6346 63.6232 46.0789 63.6232 44.6137ZM75.5528 48.9418C77.7758 48.9418 78.8031 47.6114 79.022 46.1968H79.1568V48.7734H81.5145V40.3361H78.9883V44.6137C78.9883 46.0452 78.3989 46.6852 76.7485 46.6852C75.1486 46.6852 74.576 46.1126 74.576 44.7484V40.3361H72.0499V45.5905C72.0499 47.4767 73.1782 48.9418 75.5528 48.9418ZM86.5785 48.9418C88.5152 48.9418 89.6267 48.0998 89.9467 46.4325H90.0814V48.7734H92.4391V37.49H89.913V42.576H89.7614C89.4751 41.1613 88.4478 40.1677 86.4438 40.1677C83.9345 40.1677 82.503 41.8686 82.503 44.5632C82.503 47.2241 83.9513 48.9418 86.5785 48.9418ZM85.0628 44.5632C85.0628 43.0138 85.8206 42.4749 87.4374 42.4749C89.0541 42.4749 89.913 43.0138 89.913 44.479V44.6137C89.913 46.0789 89.0373 46.6346 87.4374 46.6346C85.8206 46.6346 85.0628 46.0957 85.0628 44.5632ZM97.4808 47.9145C99.3669 47.9145 100.361 47.0557 100.63 45.8094H100.765V47.7125C100.765 49.3629 100.276 49.6997 98.6596 49.6997C96.9418 49.6997 96.5713 49.4134 96.5713 48.4703H94.0452C94.0452 50.5923 95.763 51.8048 98.4912 51.8048C101.506 51.8048 103.291 50.4912 103.291 47.544V40.3361H100.933V42.3739H100.798C100.529 40.9087 99.2996 40.1677 97.5818 40.1677C95.0557 40.1677 93.5231 41.6834 93.5231 44.0411C93.5231 46.4157 94.9715 47.9145 97.4808 47.9145ZM96.0661 44.0411C96.0661 42.7949 96.7734 42.357 98.3902 42.357C99.9564 42.357 100.765 42.7949 100.765 43.9401V44.1253C100.765 45.2874 99.9732 45.7421 98.3565 45.7421C96.7734 45.7421 96.0661 45.2874 96.0661 44.0411ZM109.11 48.9418C111.788 48.9418 113.573 47.6619 113.573 45.8263V45.641H111.047V45.8094C111.047 46.5336 110.525 46.9209 109.026 46.9209C107.392 46.9209 106.786 46.3652 106.719 45.0684H113.59C113.623 44.7821 113.657 44.5632 113.657 44.2601C113.657 41.616 111.821 40.1677 109.059 40.1677C106.281 40.1677 104.378 41.8686 104.378 44.5632C104.378 47.5609 106.298 48.9418 109.11 48.9418ZM109.009 42.1381C110.491 42.1381 111.165 42.6265 111.232 43.738H106.752C106.87 42.6433 107.51 42.1381 109.009 42.1381ZM120.673 48.7734V46.4999H119.157C118.265 46.4999 117.945 46.281 117.945 45.4389V42.4244H120.673V40.3361H117.945V38.7025H115.419V40.3361H114.088V42.4244H115.419V45.7252C115.419 47.8472 116.614 48.7734 118.585 48.7734H120.673ZM124.145 39.4772V37.49H121.619V39.4772H124.145ZM124.145 48.7734V40.3361H121.619V48.7734H124.145ZM127.994 48.7734V44.5127C127.994 43.0812 128.566 42.4412 130.166 42.4412C131.716 42.4412 132.271 43.0138 132.271 44.3611V48.7734H134.798V43.5191C134.798 41.6497 133.703 40.1677 131.396 40.1677C129.19 40.1677 128.179 41.515 127.96 42.9296H127.809V40.3361H125.468V48.7734H127.994ZM139.781 47.9145C141.667 47.9145 142.66 47.0557 142.93 45.8094H143.064V47.7125C143.064 49.3629 142.576 49.6997 140.959 49.6997C139.242 49.6997 138.871 49.4134 138.871 48.4703H136.345C136.345 50.5923 138.063 51.8048 140.791 51.8048C143.805 51.8048 145.591 50.4912 145.591 47.544V40.3361H143.233V42.3739H143.098C142.829 40.9087 141.599 40.1677 139.882 40.1677C137.355 40.1677 135.823 41.6834 135.823 44.0411C135.823 46.4157 137.271 47.9145 139.781 47.9145ZM138.366 44.0411C138.366 42.7949 139.073 42.357 140.69 42.357C142.256 42.357 143.064 42.7949 143.064 43.9401V44.1253C143.064 45.2874 142.273 45.7421 140.656 45.7421C139.073 45.7421 138.366 45.2874 138.366 44.0411ZM31.8767 68.9145C33.7629 68.9145 34.7565 68.0557 35.026 66.8094H35.1607V68.7125C35.1607 70.3629 34.6723 70.6997 33.0556 70.6997C31.3378 70.6997 30.9673 70.4134 30.9673 69.4703H28.4411C28.4411 71.5923 30.1589 72.8048 32.8872 72.8048C35.9017 72.8048 37.6868 71.4912 37.6868 68.544V61.3361H35.3291V63.3739H35.1944C34.9249 61.9087 33.6955 61.1677 31.9777 61.1677C29.4516 61.1677 27.9191 62.6834 27.9191 65.0411C27.9191 67.4157 29.3674 68.9145 31.8767 68.9145ZM30.4621 65.0411C30.4621 63.7949 31.1694 63.357 32.7861 63.357C34.3523 63.357 35.1607 63.7949 35.1607 64.9401V65.1253C35.1607 66.2874 34.3692 66.7421 32.7524 66.7421C31.1694 66.7421 30.4621 66.2874 30.4621 65.0411ZM42.5123 69.9418C44.7353 69.9418 45.7626 68.6114 45.9815 67.1968H46.1162V69.7734H48.474V61.3361H45.9478V65.6137C45.9478 67.0452 45.3584 67.6852 43.708 67.6852C42.1081 67.6852 41.5355 67.1126 41.5355 65.7484V61.3361H39.0094V66.5905C39.0094 68.4767 40.1377 69.9418 42.5123 69.9418ZM52.2917 60.4772V58.49H49.7656V60.4772H52.2917ZM52.2917 69.7734V61.3361H49.7656V69.7734H52.2917ZM57.3864 69.9418C59.3231 69.9418 60.4346 69.0998 60.7546 67.4325H60.8893V69.7734H63.2471V58.49H60.7209V63.576H60.5693C60.283 62.1613 59.2557 61.1677 57.2517 61.1677C54.7424 61.1677 53.3109 62.8686 53.3109 65.5632C53.3109 68.2241 54.7592 69.9418 57.3864 69.9418ZM55.8707 65.5632C55.8707 64.0138 56.6286 63.4749 58.2453 63.4749C59.862 63.4749 60.7209 64.0138 60.7209 65.479V65.6137C60.7209 67.0789 59.8452 67.6346 58.2453 67.6346C56.6286 67.6346 55.8707 67.0957 55.8707 65.5632ZM69.0634 69.9418C71.7411 69.9418 73.5262 68.6619 73.5262 66.8263V66.641H71.0001V66.8094C71.0001 67.5336 70.478 67.9209 68.9792 67.9209C67.3456 67.9209 66.7393 67.3652 66.6719 66.0684H73.5431C73.5767 65.7821 73.6104 65.5632 73.6104 65.2601C73.6104 62.616 71.7748 61.1677 69.0128 61.1677C66.2341 61.1677 64.3311 62.8686 64.3311 65.5632C64.3311 68.5609 66.2509 69.9418 69.0634 69.9418ZM68.9623 63.1381C70.4443 63.1381 71.118 63.6265 71.1853 64.738H66.7056C66.8235 63.6433 67.4635 63.1381 68.9623 63.1381Z" fill="white"/>
<path d="M215.774 85.1421C217.1 80.3994 216.572 75.3301 214.299 70.9617C212.026 66.5933 208.177 63.2526 203.532 61.6167L202.339 65.3957C205.977 66.7197 208.985 69.3604 210.77 72.7959C212.554 76.2313 212.985 80.2113 211.976 83.9489L215.774 85.1421Z" fill="white"/>
<path d="M206.088 97.0804C207.58 96.31 208.964 95.3458 210.203 94.2129C212.554 92.0576 214.338 89.3564 215.396 86.3479L211.617 85.1547C210.734 87.6023 209.246 89.7868 207.292 91.5051C205.338 93.2235 202.981 94.4198 200.441 94.9829C197.9 95.546 195.259 95.4576 192.762 94.7259C190.265 93.9942 187.993 92.643 186.158 90.7978L183.237 93.4754C186.159 96.4423 189.955 98.3936 194.069 99.0425C198.182 99.6914 202.395 99.0037 206.088 97.0804Z" fill="white"/>
<path opacity="0.7" d="M206.088 97.0804C207.58 96.31 208.964 95.3458 210.203 94.2129C212.554 92.0576 214.338 89.3564 215.396 86.3479L211.617 85.1547C210.734 87.6023 209.246 89.7868 207.292 91.5051C205.338 93.2235 202.981 94.4198 200.441 94.9829C197.9 95.546 195.259 95.4576 192.762 94.7259C190.265 93.9942 187.993 92.643 186.158 90.7978L183.237 93.4754C186.159 96.4423 189.955 98.3936 194.069 99.0425C198.182 99.6914 202.395 99.0037 206.088 97.0804Z" fill="white"/>
<path d="M185.277 89.8641C183.156 87.3505 181.894 84.2252 181.674 80.9439C181.455 77.6626 182.289 74.3969 184.056 71.623C185.822 68.8492 188.429 66.7122 191.495 65.5236C194.561 64.3351 197.927 64.1571 201.102 65.0158L202.295 61.2178C197.445 59.8595 192.257 60.4401 187.828 62.8368C183.398 65.2335 180.074 69.2586 178.557 74.0613C177.572 77.2072 177.401 80.5519 178.062 83.7817C178.723 87.0114 180.194 90.0203 182.336 92.5259L185.277 89.8641Z" fill="white"/>
<path opacity="0.3" d="M185.277 89.8641C183.156 87.3505 181.894 84.2252 181.674 80.9439C181.455 77.6626 182.289 74.3969 184.056 71.623C185.822 68.8492 188.429 66.7122 191.495 65.5236C194.561 64.3351 197.927 64.1571 201.102 65.0158L202.295 61.2178C197.445 59.8595 192.257 60.4401 187.828 62.8368C183.398 65.2335 180.074 69.2586 178.557 74.0613C177.572 77.2072 177.401 80.5519 178.062 83.7817C178.723 87.0114 180.194 90.0203 182.336 92.5259L185.277 89.8641Z" fill="#F97316"/>
<path d="M193.469 75.2292C193.916 74.7818 194.447 74.4269 195.032 74.1846C195.616 73.9424 196.242 73.8177 196.875 73.8175C197.508 73.8174 198.134 73.9418 198.719 74.1838C199.303 74.4257 199.834 74.7804 200.282 75.2277C200.729 75.6749 201.084 76.2058 201.326 76.7902C201.568 77.3747 201.693 78.001 201.693 78.6337C201.694 79.2663 201.569 79.8927 201.327 80.4772C201.085 81.0617 200.73 81.5929 200.283 82.0403L196.878 85.4458L193.469 82.0403C192.566 81.137 192.059 79.912 192.059 78.6348C192.059 77.3575 192.566 76.1326 193.469 75.2292Z" fill="white"/>
<path opacity="0.3" d="M193.469 75.2292C193.916 74.7818 194.447 74.4269 195.032 74.1846C195.616 73.9424 196.242 73.8177 196.875 73.8175C197.508 73.8174 198.134 73.9418 198.719 74.1838C199.303 74.4257 199.834 74.7804 200.282 75.2277C200.729 75.6749 201.084 76.2058 201.326 76.7902C201.568 77.3747 201.693 78.001 201.693 78.6337C201.694 79.2663 201.569 79.8927 201.327 80.4772C201.085 81.0617 200.73 81.5929 200.283 82.0403L196.878 85.4458L193.469 82.0403C192.566 81.137 192.059 79.912 192.059 78.6348C192.059 77.3575 192.566 76.1326 193.469 75.2292Z" fill="#F97316"/>
<path d="M196.704 86.4553H197.084V87.9745H196.704V86.4553Z" fill="white"/>
<path opacity="0.3" d="M188.267 86.4553H188.646V87.9745H188.267V86.4553Z" fill="#F97316"/>
<path d="M196.704 89.1489H197.084V90.6681H196.704V89.1489Z" fill="white"/>
<path opacity="0.3" d="M188.267 89.1489H188.646V90.6681H188.267V89.1489Z" fill="#F97316"/>
<path d="M210.029 101.442H222.92V148.119H210.029V101.442Z" fill="white"/>
<path opacity="0.7" d="M210.029 101.442H222.92V148.119H210.029V101.442Z" fill="white"/>
<path d="M203.842 101.442H210.029V148.119H203.842V101.442Z" fill="white"/>
<path opacity="0.5" d="M203.842 101.442H210.029V148.119H203.842V101.442Z" fill="white"/>
<path d="M186.192 118.621H186.521V125.888H186.192V118.621Z" fill="#F97316"/>
<path d="M186.192 114.349H186.521V117.27H186.192V114.349Z" fill="#F97316"/>
<path d="M177.045 130.395H189.936V148.119H177.045V130.395Z" fill="white"/>
<path opacity="0.5" d="M177.045 130.395H189.936V148.119H177.045V130.395Z" fill="#F97316"/>
<path d="M170.865 130.395H177.053V148.119H170.865V130.395Z" fill="white"/>
<path opacity="0.6" d="M170.865 130.395H177.053V148.119H170.865V130.395Z" fill="#F97316"/>
<path d="M193.853 109.187H206.701V148.409H193.853V109.187Z" fill="white"/>
<path opacity="0.7" d="M193.853 109.187H206.701V148.409H193.853V109.187Z" fill="#F97316"/>
<path d="M187.072 109.187H193.834V148.409H187.072V109.187Z" fill="white"/>
<path opacity="0.8" d="M187.072 109.187H193.834V148.409H187.072V109.187Z" fill="#F97316"/>
<defs>
<filter id="filter0_b_1_14023" x="-200.164" y="-199.632" width="654.156" height="566.246" filterUnits="userSpaceOnUse" color-interpolation-filters="sRGB">
<feFlood flood-opacity="0" result="BackgroundImageFix"/>
<feGaussianBlur in="BackgroundImageFix" stdDeviation="100.311"/>
<feComposite in2="SourceAlpha" operator="in" result="effect1_backgroundBlur_1_14023"/>
<feBlend mode="normal" in="SourceGraphic" in2="effect1_backgroundBlur_1_14023" result="shape"/>
</filter>
</defs>
</svg>
