<svg width="254" height="166" viewBox="0 0 254 166" fill="none" xmlns="http://www.w3.org/2000/svg">
<g filter="url(#filter0_b_1_14013)">
<rect x="0.639648" y="0.990723" width="252.91" height="165" rx="10.0311" fill="#2563EB"/>
</g>
<path d="M237.856 0.990723H10.6681C5.12955 0.990723 0.639648 5.48063 0.639648 11.0192V156.727C0.639648 157.802 1.83332 158.447 2.73281 157.858L238.597 3.47479C239.721 2.73871 239.2 0.990723 237.856 0.990723Z" fill="#1C5DEB"/>
<path d="M30.9879 48.9485V44.7382H37.7579V42.4816H30.9879V39.9386H38.0105V37.665H28.4617V48.9485H30.9879ZM41.6121 48.9485V44.0646C41.6121 43.0036 42.0163 42.4816 43.1447 42.4816C44.172 42.4816 44.5425 42.8857 44.5425 43.812V44.6877H47.0686V43.2899C47.0686 41.6395 46.2939 40.3428 44.4077 40.3428C42.7068 40.3428 41.8142 41.3869 41.5785 42.751H41.4269V40.5112H39.086V48.9485H41.6121ZM52.4631 49.1169C55.1408 49.1169 56.926 47.837 56.926 46.0013V45.8161H54.3998V45.9845C54.3998 46.7086 53.8777 47.096 52.3789 47.096C50.7453 47.096 50.1391 46.5402 50.0717 45.2435H56.9428C56.9765 44.9572 57.0102 44.7382 57.0102 44.4351C57.0102 41.7911 55.1745 40.3428 52.4126 40.3428C49.6338 40.3428 47.7308 42.0437 47.7308 44.7382C47.7308 47.7359 49.6507 49.1169 52.4631 49.1169ZM52.3621 42.3132C53.8441 42.3132 54.5177 42.8015 54.5851 43.913H50.1054C50.2233 42.8184 50.8632 42.3132 52.3621 42.3132ZM62.5611 49.1169C65.2388 49.1169 67.024 47.837 67.024 46.0013V45.8161H64.4978V45.9845C64.4978 46.7086 63.9757 47.096 62.4769 47.096C60.8433 47.096 60.2371 46.5402 60.1697 45.2435H67.0408C67.0745 44.9572 67.1082 44.7382 67.1082 44.4351C67.1082 41.7911 65.2725 40.3428 62.5106 40.3428C59.7318 40.3428 57.8288 42.0437 57.8288 44.7382C57.8288 47.7359 59.7487 49.1169 62.5611 49.1169ZM62.4601 42.3132C63.9421 42.3132 64.6157 42.8015 64.6831 43.913H60.2034C60.3213 42.8184 60.9612 42.3132 62.4601 42.3132ZM73.9777 48.9485V42.5994H76.588V40.5112H73.8766C73.8093 39.686 74.3314 39.5007 75.4429 39.5007H76.588V37.665H75.847C73.2535 37.665 71.7715 38.8102 71.5021 40.5112H70.2558V42.5994H71.4515V48.9485H73.9777ZM79.9562 39.6523V37.665H77.4301V39.6523H79.9562ZM79.9562 48.9485V40.5112H77.4301V48.9485H79.9562ZM83.8132 48.9485V44.6877C83.8132 43.2562 84.3858 42.6163 85.9857 42.6163C87.5351 42.6163 88.0908 43.1889 88.0908 44.5362V48.9485H90.6169V43.6941C90.6169 41.8248 89.5223 40.3428 87.2151 40.3428C85.0089 40.3428 83.9985 41.69 83.7795 43.1047H83.628V40.5112H81.2871V48.9485H83.8132ZM94.4884 49.1169C96.3577 49.1169 97.5366 48.3254 97.9239 47.0118H98.0587V48.9485H100.416V43.9972C100.416 41.7911 99.086 40.3428 96.2735 40.3428C93.4948 40.3428 91.7433 41.7911 91.7433 43.8794V43.9299H94.2863V43.8625C94.2863 42.9026 94.8084 42.5658 96.0883 42.5658C97.4356 42.5658 97.9239 42.8689 97.9239 43.9636V44.2835L94.3031 44.654C92.5012 44.8393 91.5749 45.614 91.5749 46.8602C91.5749 48.2748 92.6696 49.1169 94.4884 49.1169ZM94.1179 46.6918C94.1179 46.2876 94.3873 46.1192 94.9936 46.0687L97.9239 45.7319C97.8566 46.9276 96.9303 47.3318 95.2126 47.3318C94.4716 47.3318 94.1179 47.1465 94.1179 46.6918ZM104.223 48.9485V44.6877C104.223 43.2562 104.796 42.6163 106.395 42.6163C107.945 42.6163 108.501 43.1889 108.501 44.5362V48.9485H111.027V43.6941C111.027 41.8248 109.932 40.3428 107.625 40.3428C105.419 40.3428 104.408 41.69 104.189 43.1047H104.038V40.5112H101.697V48.9485H104.223ZM116.801 49.1169C119.513 49.1169 121.365 47.6517 121.365 45.4792V45.2435H118.856V45.3782C118.856 46.456 118.064 46.8434 116.751 46.8434C115.252 46.8434 114.561 46.2876 114.561 44.7382C114.561 43.172 115.252 42.6163 116.751 42.6163C118.064 42.6163 118.856 43.0036 118.856 44.0815V44.2162H121.365V43.9804C121.365 41.7911 119.513 40.3428 116.801 40.3428C113.905 40.3428 112.052 42.0437 112.052 44.7382C112.052 47.3991 113.905 49.1169 116.801 49.1169ZM124.978 39.6523V37.665H122.452V39.6523H124.978ZM124.978 48.9485V40.5112H122.452V48.9485H124.978ZM128.894 49.1169C130.763 49.1169 131.942 48.3254 132.329 47.0118H132.464V48.9485H134.822V43.9972C134.822 41.7911 133.492 40.3428 130.679 40.3428C127.9 40.3428 126.149 41.7911 126.149 43.8794V43.9299H128.692V43.8625C128.692 42.9026 129.214 42.5658 130.494 42.5658C131.841 42.5658 132.329 42.8689 132.329 43.9636V44.2835L128.709 44.654C126.907 44.8393 125.98 45.614 125.98 46.8602C125.98 48.2748 127.075 49.1169 128.894 49.1169ZM128.523 46.6918C128.523 46.2876 128.793 46.1192 129.399 46.0687L132.329 45.7319C132.262 46.9276 131.336 47.3318 129.618 47.3318C128.877 47.3318 128.523 47.1465 128.523 46.6918ZM138.629 48.9485V37.665H136.102V48.9485H138.629ZM145.143 49.1169C147.012 49.1169 148.191 48.3254 148.578 47.0118H148.713V48.9485H151.071V43.9972C151.071 41.7911 149.74 40.3428 146.928 40.3428C144.149 40.3428 142.398 41.7911 142.398 43.8794V43.9299H144.941V43.8625C144.941 42.9026 145.463 42.5658 146.743 42.5658C148.09 42.5658 148.578 42.8689 148.578 43.9636V44.2835L144.958 44.654C143.156 44.8393 142.229 45.614 142.229 46.8602C142.229 48.2748 143.324 49.1169 145.143 49.1169ZM144.772 46.6918C144.772 46.2876 145.042 46.1192 145.648 46.0687L148.578 45.7319C148.511 46.9276 147.585 47.3318 145.867 47.3318C145.126 47.3318 144.772 47.1465 144.772 46.6918ZM156.124 49.1169C158.06 49.1169 159.172 48.2748 159.492 46.6076H159.627V48.9485H161.984V37.665H159.458V42.751H159.307C159.02 41.3364 157.993 40.3428 155.989 40.3428C153.48 40.3428 152.048 42.0437 152.048 44.7382C152.048 47.3991 153.496 49.1169 156.124 49.1169ZM154.608 44.7382C154.608 43.1889 155.366 42.65 156.983 42.65C158.599 42.65 159.458 43.1889 159.458 44.654V44.7888C159.458 46.2539 158.582 46.8097 156.983 46.8097C155.366 46.8097 154.608 46.2708 154.608 44.7382ZM169.603 48.9485L173.459 40.5112H170.697L168.154 46.4897H167.986L165.46 40.5112H162.647L166.487 48.9485H169.603ZM176.652 39.6523V37.665H174.126V39.6523H176.652ZM176.652 48.9485V40.5112H174.126V48.9485H176.652ZM182.471 49.1169C185.182 49.1169 187.035 47.6517 187.035 45.4792V45.2435H184.526V45.3782C184.526 46.456 183.734 46.8434 182.421 46.8434C180.922 46.8434 180.231 46.2876 180.231 44.7382C180.231 43.172 180.922 42.6163 182.421 42.6163C183.734 42.6163 184.526 43.0036 184.526 44.0815V44.2162H187.035V43.9804C187.035 41.7911 185.182 40.3428 182.471 40.3428C179.574 40.3428 177.722 42.0437 177.722 44.7382C177.722 47.3991 179.574 49.1169 182.471 49.1169ZM192.602 49.1169C195.279 49.1169 197.064 47.837 197.064 46.0013V45.8161H194.538V45.9845C194.538 46.7086 194.016 47.096 192.517 47.096C190.884 47.096 190.277 46.5402 190.21 45.2435H197.081C197.115 44.9572 197.149 44.7382 197.149 44.4351C197.149 41.7911 195.313 40.3428 192.551 40.3428C189.772 40.3428 187.869 42.0437 187.869 44.7382C187.869 47.7359 189.789 49.1169 192.602 49.1169ZM192.5 42.3132C193.983 42.3132 194.656 42.8015 194.724 43.913H190.244C190.362 42.8184 191.002 42.3132 192.5 42.3132ZM31.6615 69.9485V63.5994H34.2719V61.5112H31.5605C31.4931 60.686 32.0152 60.5007 33.1267 60.5007H34.2719V58.665H33.5309C30.9373 58.665 29.4553 59.8102 29.1859 61.5112H27.9397V63.5994H29.1354V69.9485H31.6615ZM37.6321 69.9485V65.0646C37.6321 64.0036 38.0363 63.4816 39.1647 63.4816C40.192 63.4816 40.5625 63.8857 40.5625 64.812V65.6877H43.0886V64.2899C43.0886 62.6395 42.3139 61.3428 40.4277 61.3428C38.7268 61.3428 37.8342 62.3869 37.5985 63.751H37.4469V61.5112H35.106V69.9485H37.6321ZM48.5 70.1169C51.3798 70.1169 53.3165 68.3991 53.3165 65.7382C53.3165 63.0437 51.3798 61.3428 48.5 61.3428C45.6202 61.3428 43.6834 63.0437 43.6834 65.7382C43.6834 68.3991 45.6202 70.1169 48.5 70.1169ZM48.5 67.877C46.7822 67.877 46.1927 67.2203 46.1927 65.7382C46.1927 64.2562 46.7822 63.5658 48.5 63.5658C50.2009 63.5658 50.8072 64.2562 50.8072 65.7382C50.8072 67.2203 50.2009 67.877 48.5 67.877ZM56.8743 69.9485V65.6877C56.8743 64.2226 57.3121 63.6163 58.8446 63.6163C60.293 63.6163 60.7814 64.1384 60.7814 65.5362V69.9485H63.3075V65.6877C63.3075 64.2226 63.7454 63.6163 65.2779 63.6163C66.7262 63.6163 67.2146 64.1384 67.2146 65.5362V69.9485H69.7407V64.6941C69.7407 62.7742 68.6798 61.3428 66.5073 61.3428C64.3348 61.3428 63.4759 62.6732 63.2738 64.1047H63.1222C62.937 62.5385 61.9434 61.3428 59.9898 61.3428C57.8679 61.3428 57.0258 62.6564 56.8237 64.071H56.689V61.5112H54.3481V69.9485H56.8743ZM79.9048 69.9485L83.7614 61.5112H80.9994L78.4565 67.4897H78.2881L75.7619 61.5112H72.9495L76.7892 69.9485H79.9048ZM88.908 70.1169C91.5857 70.1169 93.3708 68.837 93.3708 67.0013V66.8161H90.8447V66.9845C90.8447 67.7086 90.3226 68.096 88.8238 68.096C87.1902 68.096 86.5839 67.5402 86.5166 66.2435H93.3877C93.4214 65.9572 93.455 65.7382 93.455 65.4351C93.455 62.7911 91.6194 61.3428 88.8575 61.3428C86.0787 61.3428 84.1757 63.0437 84.1757 65.7382C84.1757 68.7359 86.0955 70.1169 88.908 70.1169ZM88.8069 63.3132C90.2889 63.3132 90.9626 63.8015 91.0299 64.913H86.5503C86.6681 63.8184 87.3081 63.3132 88.8069 63.3132ZM100.471 69.9485V67.675H98.9555C98.0629 67.675 97.7429 67.456 97.7429 66.614V63.5994H100.471V61.5112H97.7429V59.8776H95.2168V61.5112H93.8863V63.5994H95.2168V66.9003C95.2168 69.0222 96.4125 69.9485 98.3829 69.9485H100.471ZM107.362 69.9485V67.675H105.846C104.954 67.675 104.634 67.456 104.634 66.614V63.5994H107.362V61.5112H104.634V59.8776H102.108V61.5112H100.777V63.5994H102.108V66.9003C102.108 69.0222 103.303 69.9485 105.274 69.9485H107.362ZM112.788 70.1169C115.466 70.1169 117.251 68.837 117.251 67.0013V66.8161H114.725V66.9845C114.725 67.7086 114.203 68.096 112.704 68.096C111.07 68.096 110.464 67.5402 110.397 66.2435H117.268C117.301 65.9572 117.335 65.7382 117.335 65.4351C117.335 62.7911 115.499 61.3428 112.737 61.3428C109.959 61.3428 108.056 63.0437 108.056 65.7382C108.056 68.7359 109.975 70.1169 112.788 70.1169ZM112.687 63.3132C114.169 63.3132 114.843 63.8015 114.91 64.913H110.43C110.548 63.8184 111.188 63.3132 112.687 63.3132ZM122.179 70.1169C124.115 70.1169 125.227 69.2748 125.547 67.6076H125.682V69.9485H128.039V58.665H125.513V63.751H125.362C125.075 62.3364 124.048 61.3428 122.044 61.3428C119.535 61.3428 118.103 63.0437 118.103 65.7382C118.103 68.3991 119.551 70.1169 122.179 70.1169ZM120.663 65.7382C120.663 64.1889 121.421 63.65 123.037 63.65C124.654 63.65 125.513 64.1889 125.513 65.654V65.7888C125.513 67.2539 124.637 67.8097 123.037 67.8097C121.421 67.8097 120.663 67.2708 120.663 65.7382ZM135.174 69.9485V63.5994H137.785V61.5112H135.073C135.006 60.686 135.528 60.5007 136.639 60.5007H137.785V58.665H137.044C134.45 58.665 132.968 59.8102 132.699 61.5112H131.452V63.5994H132.648V69.9485H135.174ZM141.153 60.6523V58.665H138.627V60.6523H141.153ZM141.153 69.9485V61.5112H138.627V69.9485H141.153ZM145.01 69.9485V65.6877C145.01 64.2562 145.582 63.6163 147.182 63.6163C148.732 63.6163 149.287 64.1889 149.287 65.5362V69.9485H151.813V64.6941C151.813 62.8248 150.719 61.3428 148.412 61.3428C146.205 61.3428 145.195 62.69 144.976 64.1047H144.824V61.5112H142.484V69.9485H145.01ZM155.685 70.1169C157.554 70.1169 158.733 69.3254 159.12 68.0118H159.255V69.9485H161.613V64.9972C161.613 62.7911 160.282 61.3428 157.47 61.3428C154.691 61.3428 152.94 62.7911 152.94 64.8794V64.9299H155.483V64.8625C155.483 63.9026 156.005 63.5658 157.285 63.5658C158.632 63.5658 159.12 63.8689 159.12 64.9636V65.2835L155.5 65.654C153.698 65.8393 152.771 66.614 152.771 67.8602C152.771 69.2748 153.866 70.1169 155.685 70.1169ZM155.314 67.6918C155.314 67.2876 155.584 67.1192 156.19 67.0687L159.12 66.7319C159.053 67.9276 158.127 68.3318 156.409 68.3318C155.668 68.3318 155.314 68.1465 155.314 67.6918ZM165.419 69.9485V65.6877C165.419 64.2562 165.992 63.6163 167.592 63.6163C169.141 63.6163 169.697 64.1889 169.697 65.5362V69.9485H172.223V64.6941C172.223 62.8248 171.129 61.3428 168.821 61.3428C166.615 61.3428 165.605 62.69 165.386 64.1047H165.234V61.5112H162.893V69.9485H165.419ZM177.998 70.1169C180.709 70.1169 182.562 68.6517 182.562 66.4792V66.2435H180.052V66.3782C180.052 67.456 179.261 67.8434 177.947 67.8434C176.448 67.8434 175.758 67.2876 175.758 65.7382C175.758 64.172 176.448 63.6163 177.947 63.6163C179.261 63.6163 180.052 64.0036 180.052 65.0815V65.2162H182.562V64.9804C182.562 62.7911 180.709 61.3428 177.998 61.3428C175.101 61.3428 173.249 63.0437 173.249 65.7382C173.249 68.3991 175.101 70.1169 177.998 70.1169ZM186.175 60.6523V58.665H183.648V60.6523H186.175ZM186.175 69.9485V61.5112H183.648V69.9485H186.175ZM190.09 70.1169C191.96 70.1169 193.139 69.3254 193.526 68.0118H193.661V69.9485H196.018V64.9972C196.018 62.7911 194.688 61.3428 191.876 61.3428C189.097 61.3428 187.345 62.7911 187.345 64.8794V64.9299H189.888V64.8625C189.888 63.9026 190.41 63.5658 191.69 63.5658C193.038 63.5658 193.526 63.8689 193.526 64.9636V65.2835L189.905 65.654C188.103 65.8393 187.177 66.614 187.177 67.8602C187.177 69.2748 188.272 70.1169 190.09 70.1169ZM189.72 67.6918C189.72 67.2876 189.989 67.1192 190.596 67.0687L193.526 66.7319C193.459 67.9276 192.532 68.3318 190.815 68.3318C190.074 68.3318 189.72 68.1465 189.72 67.6918ZM199.825 69.9485V58.665H197.299V69.9485H199.825ZM32.9583 91.1169C35.6697 91.1169 37.5222 89.6517 37.5222 87.4792V87.2435H35.0129V87.3782C35.0129 88.456 34.2213 88.8434 32.9077 88.8434C31.4089 88.8434 30.7184 88.2876 30.7184 86.7382C30.7184 85.172 31.4089 84.6163 32.9077 84.6163C34.2213 84.6163 35.0129 85.0036 35.0129 86.0815V86.2162H37.5222V85.9804C37.5222 83.7911 35.6697 82.3428 32.9583 82.3428C30.0616 82.3428 28.2091 84.0437 28.2091 86.7382C28.2091 89.3991 30.0616 91.1169 32.9583 91.1169ZM43.1056 91.1169C45.9854 91.1169 47.9221 89.3991 47.9221 86.7382C47.9221 84.0437 45.9854 82.3428 43.1056 82.3428C40.2258 82.3428 38.2891 84.0437 38.2891 86.7382C38.2891 89.3991 40.2258 91.1169 43.1056 91.1169ZM43.1056 88.877C41.3878 88.877 40.7984 88.2203 40.7984 86.7382C40.7984 85.2562 41.3878 84.5658 43.1056 84.5658C44.8065 84.5658 45.4128 85.2562 45.4128 86.7382C45.4128 88.2203 44.8065 88.877 43.1056 88.877ZM51.5473 91.1169C53.4166 91.1169 54.5955 90.3254 54.9828 89.0118H55.1175V90.9485H57.4753V85.9972C57.4753 83.7911 56.1448 82.3428 53.3324 82.3428C50.5536 82.3428 48.8022 83.7911 48.8022 85.8794V85.9299H51.3452V85.8625C51.3452 84.9026 51.8672 84.5658 53.1471 84.5658C54.4944 84.5658 54.9828 84.8689 54.9828 85.9636V86.2835L51.362 86.654C49.56 86.8393 48.6338 87.614 48.6338 88.8602C48.6338 90.2748 49.7284 91.1169 51.5473 91.1169ZM51.1767 88.6918C51.1767 88.2876 51.4462 88.1192 52.0525 88.0687L54.9828 87.7319C54.9154 88.9276 53.9892 89.3318 52.2714 89.3318C51.5304 89.3318 51.1767 89.1465 51.1767 88.6918ZM63.2522 91.1169C65.9636 91.1169 67.8161 89.6517 67.8161 87.4792V87.2435H65.3068V87.3782C65.3068 88.456 64.5153 88.8434 63.2017 88.8434C61.7029 88.8434 61.0124 88.2876 61.0124 86.7382C61.0124 85.172 61.7029 84.6163 63.2017 84.6163C64.5153 84.6163 65.3068 85.0036 65.3068 86.0815V86.2162H67.8161V85.9804C67.8161 83.7911 65.9636 82.3428 63.2522 82.3428C60.3556 82.3428 58.5031 84.0437 58.5031 86.7382C58.5031 89.3991 60.3556 91.1169 63.2522 91.1169ZM71.4292 90.9485V86.7214C71.4292 85.3068 71.9513 84.6163 73.6522 84.6163C75.2352 84.6163 75.8415 85.1215 75.8415 86.5362V90.9485H78.3677V85.7783C78.3677 83.8248 77.2562 82.3428 74.9826 82.3428C72.827 82.3428 71.8334 83.6564 71.5639 85.0878H71.4292V79.665H68.903V90.9485H71.4292ZM84.1221 91.1169C86.7998 91.1169 88.585 89.837 88.585 88.0013V87.8161H86.0588V87.9845C86.0588 88.7086 85.5368 89.096 84.0379 89.096C82.4044 89.096 81.7981 88.5402 81.7307 87.2435H88.6018C88.6355 86.9572 88.6692 86.7382 88.6692 86.4351C88.6692 83.7911 86.8335 82.3428 84.0716 82.3428C81.2928 82.3428 79.3898 84.0437 79.3898 86.7382C79.3898 89.7359 81.3097 91.1169 84.1221 91.1169ZM84.0211 84.3132C85.5031 84.3132 86.1767 84.8015 86.2441 85.913H81.7644C81.8823 84.8184 82.5222 84.3132 84.0211 84.3132ZM94.0012 91.1169C96.6115 91.1169 98.1777 90.0728 98.1777 88.4897C98.1777 87.0919 97.3357 86.3341 95.079 86.0815L93.277 85.8625C92.1655 85.7278 91.9297 85.5425 91.9297 85.1047C91.9297 84.5658 92.2497 84.3468 93.5128 84.3468C95.0622 84.3468 95.399 84.7005 95.399 85.391V85.492H97.9251V85.4415C97.9251 83.3869 96.3589 82.3428 93.597 82.3428C90.7004 82.3428 89.4373 83.5216 89.4373 85.0036C89.4373 86.4183 90.3804 87.1761 92.0645 87.3614L94.4391 87.6477C95.4327 87.7824 95.6853 87.9171 95.6853 88.3887C95.6853 88.8939 95.3653 89.1128 94.018 89.1128C92.5865 89.1128 92.115 88.9107 92.115 88.1529V88.0013H89.5889V88.0518C89.5889 90.0054 91.1551 91.1169 94.0012 91.1169Z" fill="white"/>
<path d="M177.248 125.423L169.218 133.293V110.701H177.248M190.632 120.498L186.429 116.911L182.601 120.445V99.9944H190.632M204.015 116.055L195.985 124.085V89.2875H204.015M211.537 115.546L206.692 110.701H220.076V124.085L215.285 119.294L195.985 138.432L186.697 130.349L176.579 140.146H169.218L186.536 123.175L195.985 131.152" fill="white"/>
<defs>
<filter id="filter0_b_1_14013" x="-199.983" y="-199.632" width="654.156" height="566.246" filterUnits="userSpaceOnUse" color-interpolation-filters="sRGB">
<feFlood flood-opacity="0" result="BackgroundImageFix"/>
<feGaussianBlur in="BackgroundImageFix" stdDeviation="100.311"/>
<feComposite in2="SourceAlpha" operator="in" result="effect1_backgroundBlur_1_14013"/>
<feBlend mode="normal" in="SourceGraphic" in2="effect1_backgroundBlur_1_14013" result="shape"/>
</filter>
</defs>
</svg>
