<svg width="41" height="45" viewBox="0 0 41 45" fill="none" xmlns="http://www.w3.org/2000/svg">
<path d="M25.0215 31.7179C25.0215 31.7179 23.2314 32.3974 17.7765 27.7982C12.2455 23.1347 12.6889 21.3196 12.6889 21.3196C12.6889 21.3196 14.4612 20.6251 19.9339 25.2395C25.4471 29.8879 25.0215 31.7179 25.0215 31.7179Z" fill="#FFDE55"/>
<path d="M22.2854 30.966C21.8067 30.7179 21.2557 30.3935 20.6259 29.9712C21.2555 30.3935 21.8063 30.7179 22.2849 30.9662L22.2854 30.966Z" fill="#FFD41F"/>
<path d="M19.1721 28.923C19.3687 29.074 19.5594 29.217 19.7444 29.3526C19.5595 29.2171 19.3687 29.074 19.1721 28.923Z" fill="#FFD41F"/>
<path d="M17.2549 33.5591C14.855 32.4912 12.1794 30.847 10.4105 29.2263L9.52347 32.2904C10.888 33.4332 12.5995 34.3877 14.378 35.0399L17.2549 33.5591Z" fill="#FFDC0D"/>
<path d="M8.67807 35.1881L7.73183 38.457L11.17 36.6874C10.2965 36.2873 9.39959 35.7617 8.67807 35.1881Z" fill="#FFDC0D"/>
<path d="M20.3407 29.7802C20.3415 29.7807 20.3423 29.7813 20.343 29.7818C20.3422 29.7814 20.3415 29.7807 20.3407 29.7802Z" fill="#FFA022"/>
<path d="M17.2472 33.5591L22.2847 30.9664C21.806 30.7181 21.2553 30.3937 20.6257 29.9713C20.6234 29.9698 20.6212 29.9682 20.6189 29.9667C20.5298 29.9068 20.4392 29.8453 20.3469 29.7815C20.3463 29.7811 20.3457 29.7806 20.3452 29.7801C20.2538 29.7169 20.1608 29.6517 20.0663 29.5845C20.0637 29.5827 20.0612 29.5811 20.0587 29.5792C19.9679 29.5146 19.8754 29.4479 19.7817 29.3795C19.7696 29.3707 19.7574 29.3616 19.7453 29.3528C19.5603 29.2172 19.3695 29.0742 19.173 28.9233C19.1563 28.9104 19.1397 28.8977 19.1228 28.8847C19.0271 28.811 18.9302 28.7355 18.8317 28.658C18.8181 28.6472 18.8043 28.6361 18.7907 28.6253C18.6996 28.5534 18.6074 28.4798 18.514 28.4046C18.4987 28.3923 18.4835 28.3802 18.4681 28.3679C18.3685 28.2873 18.2673 28.2046 18.1648 28.1202C18.1427 28.1019 18.1204 28.0835 18.098 28.065C17.9927 27.9779 17.8863 27.8894 17.778 27.7982C12.4199 23.2805 12.669 21.4362 12.6895 21.325L10.4027 29.2263C12.1717 30.847 14.8474 32.4912 17.2472 33.5591Z" fill="#22C55E"/>
<path d="M14.3769 35.0399C12.5984 34.3878 10.887 33.4333 9.52242 32.2905L8.68399 35.1882C9.40551 35.7618 10.3025 36.2873 11.1759 36.6875L14.3769 35.0399Z" fill="#22C55E"/>
<path d="M24.9533 31.7351C24.7278 31.776 23.9329 31.8214 22.285 30.9662L22.2846 30.9664C23.9326 31.8212 24.7279 31.7765 24.9533 31.7351Z" fill="#FFD41F"/>
<path d="M24.9533 31.7351C24.7278 31.776 23.9329 31.8214 22.2851 30.9661L22.2847 30.9663C23.9327 31.8212 24.7279 31.7765 24.9533 31.7351Z" fill="#FFF4C7"/>
<path d="M7.7336 38.4571L7.18511 40.3531L13.279 37.3984C12.6842 37.2926 11.937 37.0382 11.1718 36.6875L7.7336 38.4571Z" fill="#FFD41F"/>
<path d="M7.7336 38.4571L7.18511 40.3531L13.279 37.3984C12.6842 37.2926 11.937 37.0382 11.1718 36.6875L7.7336 38.4571Z" fill="#F9CA06"/>
<path d="M14.3775 35.04C15.1631 35.328 15.9617 35.5576 16.7495 35.7174L19.4697 34.3984C18.7878 34.1937 18.0356 33.9068 17.2544 33.5592L14.3775 35.04Z" fill="#FFD41F"/>
<path d="M14.3775 35.04C15.1631 35.328 15.9617 35.5576 16.7495 35.7174L19.4697 34.3984C18.7878 34.1937 18.0356 33.9068 17.2544 33.5592L14.3775 35.04Z" fill="#F9CA06"/>
<path d="M22.2804 30.9663L17.2429 33.559C18.0241 33.9067 18.7762 34.1935 19.4581 34.3983L24.9489 31.735C24.7236 31.7765 23.9284 31.8211 22.2804 30.9663Z" fill="#FFA022"/>
<path d="M22.2804 30.9663L17.2429 33.559C18.0241 33.9067 18.7762 34.1935 19.4581 34.3983L24.9489 31.735C24.7236 31.7765 23.9284 31.8211 22.2804 30.9663Z" fill="#22C55E"/>
<path d="M11.1692 36.6874C11.9345 37.0381 12.6816 37.2925 13.2764 37.3983L13.2769 37.3976L16.7421 35.7173C15.9543 35.5575 15.1558 35.3279 14.3702 35.0399L11.1692 36.6874Z" fill="#FFA022"/>
<path d="M11.1692 36.6874C11.9345 37.0381 12.6816 37.2925 13.2764 37.3983L13.2769 37.3976L16.7421 35.7173C15.9543 35.5575 15.1558 35.3279 14.3702 35.0399L11.1692 36.6874Z" fill="#22C55E"/>
<path d="M14.4434 12.0381C14.2981 11.7011 14.1184 11.4102 13.8985 11.1817" stroke="#22C55E" stroke-width="0.192732"/>
<path d="M21.4492 8.0105C21.2878 7.68095 21.0943 7.39912 20.8635 7.18153" stroke="#22C55E" stroke-width="0.192732"/>
<path d="M22.3193 18.4844C22.2786 17.5094 22.0868 16.649 21.6546 16.0796" stroke="#22C55E" stroke-width="0.192732"/>
<path d="M27.3086 10.6074C27.4489 9.64177 27.4195 8.76072 27.1001 8.12119" stroke="#22C55E" stroke-width="0.192732"/>
<path d="M37.141 20.1174C37.5484 20.048 37.9501 20.0024 38.3867 19.9545" stroke="#22C55E" stroke-width="0.192732"/>
<path d="M30.3027 14.5911C30.3916 14.2698 30.462 13.9235 30.5149 13.5379" stroke="#22C55E" stroke-width="0.192732"/>
<path d="M27.0002 28.5306C27.2431 28.4799 27.5014 28.4285 27.7844 28.3713" stroke="#22C55E" stroke-width="0.192732"/>
<path d="M34.2951 27.5606C34.5802 27.5204 34.8687 27.488 35.174 27.4545" stroke="#22C55E" stroke-width="0.192732"/>
<path d="M31.3223 5.59595C31.62 4.66669 31.7364 3.79287 31.5269 3.10939" stroke="#22C55E" stroke-width="0.192732"/>
<path d="M32.3384 1.61685L31.7781 1.94012L31.7268 2.58495L31.2462 2.15197L30.6171 2.30244L30.8803 1.71157L30.5428 1.15973L31.1861 1.22754L31.6067 0.736018L31.741 1.36879L32.3384 1.61685Z" fill="#FFC13E"/>
<g opacity="0.5762">
<path d="M21.2132 5.95694L20.5587 6.46646L20.6074 7.29447L19.9206 6.82946L19.1481 7.13166L19.3782 6.33475L18.852 5.69351L19.681 5.66601L20.1283 4.9675L20.4106 5.74741L21.2132 5.95694Z" fill="#E12675"/>
</g>
<g opacity="0.593921">
<path d="M30.0301 12.7611L30.2703 12.3254L30.0475 11.8805L30.5362 11.9743L30.8904 11.6249L30.9522 12.1186L31.3939 12.3476L30.9435 12.5589L30.8623 13.0497L30.5221 12.6867L30.0301 12.7611Z" fill="#E12675"/>
</g>
<g opacity="0.77275">
<path d="M20.652 11.7738L21.2437 12.9631L22.5109 13.1276L21.6179 14.0835L21.8633 15.3997L20.7197 14.8012L19.604 15.4502L19.7902 14.1244L18.8554 13.2093L20.1141 12.9884L20.652 11.7738Z" fill="#7F1BDD"/>
</g>
<g opacity="0.83059">
<path d="M28.6791 27.6294L28.8823 28.0396L29.3354 28.1048L29.008 28.4248L29.0861 28.8759L28.6806 28.6635L28.2757 28.8771L28.3524 28.4258L28.0241 28.1067L28.4771 28.0402L28.6791 27.6294Z" fill="#F83CBF"/>
</g>
<g opacity="0.83059">
<path d="M37.5033 10.6294L37.7065 11.0396L38.1596 11.1048L37.8323 11.4248L37.9103 11.8759L37.5048 11.6635L37.0999 11.8771L37.1766 11.4258L36.8484 11.1067L37.3013 11.0402L37.5033 10.6294Z" fill="#22C55E"/>
</g>
<g opacity="0.83059">
<path d="M39.5082 19.1294L39.7114 19.5396L40.1645 19.6048L39.8371 19.9248L39.9152 20.3759L39.5097 20.1635L39.1048 20.3771L39.1815 19.9258L38.8532 19.6067L39.3062 19.5402L39.5082 19.1294Z" fill="#22C55E"/>
</g>
<g opacity="0.380738">
<path d="M32.2512 19.2389L32.5189 19.6583L33.0161 19.6756L32.7 20.0597L32.8373 20.538L32.3742 20.356L31.9618 20.6343L31.9918 20.1377L31.5996 19.8315L32.0812 19.7065L32.2512 19.2389Z" fill="#7F1BDD"/>
</g>
<g opacity="0.693921">
<path d="M24.6774 19.7358L24.8982 20.1816L25.3907 20.2524L25.0349 20.6002L25.1198 21.0905L24.679 20.8596L24.239 21.0918L24.3224 20.6013L23.9656 20.2545L24.4579 20.1823L24.6774 19.7358Z" fill="#DDB41B"/>
</g>
<path d="M37.2426 27.2869L36.7195 27.5887L36.6716 28.1907L36.2229 27.7865L35.6356 27.9269L35.8814 27.3753L35.5663 26.8601L36.1669 26.9234L36.5595 26.4646L36.6849 27.0553L37.2426 27.2869Z" fill="#DDB41B"/>
<g opacity="0.656773">
<path d="M37.3743 1.4032L37.5804 1.85605L38.0703 1.94299L37.7033 2.27892L37.772 2.77169L37.3391 2.52646L36.8916 2.74407L36.9911 2.25658L36.6459 1.8983L37.1402 1.84224L37.3743 1.4032Z" fill="#E12675"/>
</g>
<path d="M27.4158 7.87173L26.8621 7.48624L26.2307 7.72381L26.4263 7.07815L26.0052 6.55107L26.6797 6.53752L27.0509 5.9742L27.2722 6.61147L27.9226 6.79041L27.3849 7.19782L27.4158 7.87173Z" fill="#7C50F0"/>
<g opacity="0.550314">
<path d="M13.5538 11.2202L13.3534 10.7648L12.8646 10.6718L13.2358 10.3405L13.1732 9.84688L13.603 10.0975L14.0531 9.88549L13.9476 10.3717L14.2883 10.7343L13.7933 10.7841L13.5538 11.2202Z" fill="#F9D022"/>
</g>
<path d="M24.8807 31.7538L19.3535 34.4602L16.6152 35.8005L13.1271 37.508L13.1266 37.5087L6.99234 40.5113L7.55258 38.6014L8.51911 35.3085L9.37551 32.3894L10.2815 29.3027L12.6172 21.3433C12.5961 21.4553 12.3368 23.3116 17.6949 27.8293C19.6309 29.4616 21.1069 30.4273 22.2051 30.9936C23.8556 31.8457 24.654 31.7961 24.8807 31.7538Z" fill="#FFD41F"/>
<path d="M24.8807 31.7538L19.3535 34.4602C16.5692 33.6355 12.6255 31.452 10.2815 29.3027L12.6172 21.3433C12.5961 21.4553 12.3368 23.3116 17.6949 27.8293C22.5402 31.9146 24.5034 31.825 24.8807 31.7538Z" fill="#FFA022"/>
<path d="M16.6147 35.8006L13.1266 37.5081L13.126 37.5088C11.8482 37.2873 9.87267 36.3843 8.51859 35.3086L9.37499 32.3895C11.3424 34.0369 14.0352 35.2887 16.6147 35.8006Z" fill="#FFA022"/>
<path d="M24.8853 31.7538L19.3581 34.4601L16.6199 35.8005L13.1317 37.508L13.1312 37.5086L6.99695 40.5113L7.5572 38.6014L22.2097 30.9935C23.8602 31.8456 24.6586 31.796 24.8853 31.7538Z" fill="#FFF4C7"/>
<path d="M24.8807 31.7538L19.3535 34.4602L16.6152 35.8005L13.1271 37.508L13.1266 37.5087L6.99234 40.5113L7.55258 38.6014L8.51911 35.3085L9.37551 32.3894L10.2815 29.3027L12.6172 21.3433C12.5961 21.4553 12.3368 23.3116 17.6949 27.8293C19.6309 29.4616 21.1069 30.4273 22.2051 30.9936C23.8556 31.8457 24.654 31.7961 24.8807 31.7538Z" fill="#FFD41F"/>
<path d="M24.8807 31.7538L19.3535 34.4602C16.5692 33.6355 12.6255 31.452 10.2815 29.3027L12.6172 21.3433C12.5961 21.4553 12.3368 23.3116 17.6949 27.8293C22.5402 31.9146 24.5034 31.825 24.8807 31.7538Z" fill="#FFA022"/>
<path d="M16.6147 35.8006L13.1266 37.5081L13.126 37.5088C11.8482 37.2873 9.87267 36.3843 8.51859 35.3086L9.37499 32.3895C11.3424 34.0369 14.0352 35.2887 16.6147 35.8006Z" fill="#FFA022"/>
<path d="M7.55461 38.6014L6.99436 40.5113L13.1286 37.5087C12.5318 37.4053 11.7828 37.1531 11.0161 36.8042L7.55461 38.6014Z" fill="#F4CA19"/>
<path d="M14.2396 35.1309C15.0271 35.4167 15.8279 35.6437 16.6182 35.8006L19.3564 34.4602C18.6727 34.2577 17.9188 33.9728 17.136 33.627L14.2396 35.1309Z" fill="#F4CA19"/>
<path d="M22.2086 30.9938L17.1369 33.627C17.9197 33.9728 18.6735 34.2577 19.3573 34.4602L24.8845 31.7538C24.6579 31.7966 23.8592 31.8455 22.2086 30.9938Z" fill="#FC961D"/>
<path d="M11.016 36.8041C11.7827 37.1531 12.5317 37.4053 13.1284 37.5087L13.129 37.5081L16.6171 35.8006C15.8268 35.6437 15.026 35.4168 14.2386 35.1309L11.016 36.8041Z" fill="#FC961D"/>
<path d="M22.2102 30.9936C21.7307 30.7464 21.1791 30.4229 20.5487 30.0012C21.1789 30.4228 21.7303 30.7464 22.2097 30.9938L22.2102 30.9936Z" fill="#FFD41F"/>
<path d="M19.085 28.9541C19.2816 29.105 19.4724 29.2479 19.6575 29.3833C19.4725 29.248 19.2816 29.105 19.085 28.9541Z" fill="#FFD41F"/>
<path d="M17.1309 33.627C14.7263 32.5647 12.0475 30.9241 10.2793 29.3026L9.37327 32.3894C10.7379 33.5321 12.4517 34.4837 14.2345 35.1309L17.1309 33.627Z" fill="#FFDC0D"/>
<path d="M8.52078 35.3084L7.55425 38.6013L11.0157 36.8041C10.1406 36.4059 9.24247 35.8817 8.52078 35.3084Z" fill="#FFDC0D"/>
<path d="M20.2762 29.8102C20.277 29.8108 20.2779 29.8113 20.2785 29.8119C20.2778 29.8114 20.277 29.8108 20.2762 29.8102Z" fill="#FFA022"/>
<path d="M17.1331 33.627L22.2047 30.9938C21.7252 30.7465 21.1738 30.4229 20.5437 30.0012C20.5414 29.9997 20.5392 29.9981 20.5369 29.9965C20.4477 29.9368 20.357 29.8753 20.2647 29.8116C20.2641 29.8112 20.2635 29.8107 20.2629 29.8103C20.1715 29.7472 20.0785 29.682 19.9839 29.6149C19.9813 29.6131 19.9788 29.6114 19.9762 29.6096C19.8854 29.5451 19.7928 29.4784 19.6991 29.4101C19.687 29.4012 19.6748 29.3922 19.6627 29.3834C19.4776 29.2479 19.2867 29.105 19.0901 28.9542C19.0734 28.9414 19.0567 28.9286 19.0399 28.9157C18.9442 28.842 18.8473 28.7665 18.7487 28.689C18.7351 28.6782 18.7213 28.6672 18.7077 28.6564C18.6166 28.5844 18.5244 28.5109 18.4309 28.4357C18.4156 28.4234 18.4004 28.4114 18.385 28.399C18.2853 28.3185 18.1841 28.2358 18.0817 28.1514C18.0596 28.1331 18.0373 28.1147 18.0149 28.0962C17.9095 28.0091 17.8031 27.9207 17.6949 27.8294C12.3368 23.3117 12.5961 21.4553 12.6172 21.3433L10.2814 29.3027C12.0497 30.9242 14.7285 32.5648 17.1331 33.627Z" fill="#22C55E"/>
<path d="M14.2334 35.1307C12.4506 34.4836 10.7368 33.532 9.37216 32.3892L8.51576 35.3083C9.23746 35.8817 10.1356 36.4058 11.0107 36.804L14.2334 35.1307Z" fill="#22C55E"/>
<path d="M24.8849 31.7537C24.6582 31.7959 23.8598 31.8456 22.2093 30.9935L22.2089 30.9937C23.8596 31.8454 24.6584 31.7964 24.8849 31.7537Z" fill="#FFD41F"/>
<path d="M24.8849 31.7539C24.6582 31.7962 23.8599 31.8458 22.2094 30.9937L22.2089 30.9939C23.8596 31.8456 24.6584 31.7966 24.8849 31.7539Z" fill="#FFF4C7"/>
<path d="M7.55461 38.6014L6.99436 40.5113L13.1286 37.5087C12.5318 37.4053 11.7828 37.1531 11.0161 36.8042L7.55461 38.6014Z" fill="#FFD41F"/>
<path d="M7.55461 38.6014L6.99436 40.5113L13.1286 37.5087C12.5318 37.4053 11.7828 37.1531 11.0161 36.8042L7.55461 38.6014Z" fill="#F9CA06"/>
<path d="M14.2396 35.1309C15.0271 35.4167 15.8279 35.6437 16.6182 35.8006L19.3564 34.4602C18.6727 34.2577 17.9188 33.9728 17.136 33.627L14.2396 35.1309Z" fill="#FFD41F"/>
<path d="M14.2396 35.1309C15.0271 35.4167 15.8279 35.6437 16.6182 35.8006L19.3564 34.4602C18.6727 34.2577 17.9188 33.9728 17.136 33.627L14.2396 35.1309Z" fill="#F9CA06"/>
<path d="M22.2086 30.9938L17.1369 33.627C17.9197 33.9728 18.6735 34.2577 19.3573 34.4602L24.8845 31.7538C24.6579 31.7966 23.8592 31.8455 22.2086 30.9938Z" fill="#FFA022"/>
<path d="M22.2086 30.9938L17.1369 33.627C17.9197 33.9728 18.6735 34.2577 19.3573 34.4602L24.8845 31.7538C24.6579 31.7966 23.8592 31.8455 22.2086 30.9938Z" fill="#22C55E"/>
<path d="M11.016 36.8041C11.7827 37.1531 12.5317 37.4053 13.1284 37.5087L13.129 37.5081L16.6171 35.8006C15.8268 35.6437 15.026 35.4168 14.2386 35.1309L11.016 36.8041Z" fill="#FFA022"/>
<path d="M11.016 36.8041C11.7827 37.1531 12.5317 37.4053 13.1284 37.5087L13.129 37.5081L16.6171 35.8006C15.8268 35.6437 15.026 35.4168 14.2386 35.1309L11.016 36.8041Z" fill="#22C55E"/>
<g opacity="0.83059">
<path d="M18.6371 19.2962L18.8403 19.7064L19.2934 19.7715L18.9661 20.0915L19.0441 20.5426L18.6386 20.3302L18.2337 20.5438L18.3104 20.0925L17.9821 19.7735L18.4351 19.707L18.6371 19.2962Z" fill="#22C55E"/>
</g>
<g opacity="0.896665">
<path d="M14.2868 16.49L14.574 16.5831L14.8128 16.3997L14.8137 16.7012L15.0627 16.8722L14.7762 16.9654L14.6912 17.2545L14.5132 17.0106L14.2117 17.0183L14.3882 16.7743L14.2868 16.49Z" fill="#22C55E"/>
</g>
</svg>
