<svg width="254" height="166" viewBox="0 0 254 166" fill="none" xmlns="http://www.w3.org/2000/svg">
<g filter="url(#filter0_b_1_13131)">
<rect x="0.910156" y="0.990723" width="252.91" height="165" rx="10.0311" fill="#8807F7"/>
</g>
<path d="M238.126 0.990723H10.9386C5.40006 0.990723 0.910156 5.48063 0.910156 11.0192V156.727C0.910156 157.802 2.10383 158.447 3.00332 157.858L238.867 3.47479C239.992 2.73871 239.47 0.990723 238.126 0.990723Z" fill="#820CE8"/>
<path d="M31.5162 48.9485V43.2226L31.4151 41.4543H31.6004L32.2572 43.2226L34.6149 48.2748H37.68L40.0377 43.2226L40.6945 41.4543H40.8798L40.7956 43.2226V48.9485H43.3217V37.665H39.8861L37.3263 43.2226L36.299 45.8666H36.1138L35.0528 43.2226L32.4088 37.665H28.99V48.9485H31.5162ZM49.1434 49.1169C52.0232 49.1169 53.9599 47.3991 53.9599 44.7382C53.9599 42.0437 52.0232 40.3428 49.1434 40.3428C46.2636 40.3428 44.3269 42.0437 44.3269 44.7382C44.3269 47.3991 46.2636 49.1169 49.1434 49.1169ZM49.1434 46.877C47.4256 46.877 46.8362 46.2203 46.8362 44.7382C46.8362 43.2562 47.4256 42.5658 49.1434 42.5658C50.8443 42.5658 51.4506 43.2562 51.4506 44.7382C51.4506 46.2203 50.8443 46.877 49.1434 46.877ZM57.5177 48.9485V44.0646C57.5177 43.0036 57.9219 42.4816 59.0502 42.4816C60.0775 42.4816 60.448 42.8857 60.448 43.812V44.6877H62.9742V43.2899C62.9742 41.6395 62.1995 40.3428 60.3133 40.3428C58.6124 40.3428 57.7198 41.3869 57.484 42.751H57.3324V40.5112H54.9916V48.9485H57.5177ZM68.3687 49.1169C71.0464 49.1169 72.8315 47.837 72.8315 46.0013V45.8161H70.3054V45.9845C70.3054 46.7086 69.7833 47.096 68.2845 47.096C66.6509 47.096 66.0446 46.5402 65.9773 45.2435H72.8484C72.882 44.9572 72.9157 44.7382 72.9157 44.4351C72.9157 41.7911 71.0801 40.3428 68.3181 40.3428C65.5394 40.3428 63.6364 42.0437 63.6364 44.7382C63.6364 47.7359 65.5562 49.1169 68.3687 49.1169ZM68.2676 42.3132C69.7496 42.3132 70.4233 42.8015 70.4906 43.913H66.0109C66.1288 42.8184 66.7688 42.3132 68.2676 42.3132ZM79.1116 39.6523V37.665H76.5855V39.6523H79.1116ZM79.1116 48.9485V40.5112H76.5855V48.9485H79.1116ZM82.96 48.9485V44.6877C82.96 43.2562 83.5326 42.6163 85.1325 42.6163C86.6819 42.6163 87.2376 43.1889 87.2376 44.5362V48.9485H89.7638V43.6941C89.7638 41.8248 88.6691 40.3428 86.3619 40.3428C84.1557 40.3428 83.1453 41.69 82.9264 43.1047H82.7748V40.5112H80.4339V48.9485H82.96ZM97.3234 48.9485L101.18 40.5112H98.4181L95.8751 46.4897H95.7067L93.1805 40.5112H90.3681L94.2078 48.9485H97.3234ZM106.327 49.1169C109.004 49.1169 110.789 47.837 110.789 46.0013V45.8161H108.263V45.9845C108.263 46.7086 107.741 47.096 106.242 47.096C104.609 47.096 104.003 46.5402 103.935 45.2435H110.806C110.84 44.9572 110.874 44.7382 110.874 44.4351C110.874 41.7911 109.038 40.3428 106.276 40.3428C103.497 40.3428 101.594 42.0437 101.594 44.7382C101.594 47.7359 103.514 49.1169 106.327 49.1169ZM106.226 42.3132C107.708 42.3132 108.381 42.8015 108.449 43.913H103.969C104.087 42.8184 104.727 42.3132 106.226 42.3132ZM116.206 49.1169C118.816 49.1169 120.382 48.0728 120.382 46.4897C120.382 45.0919 119.54 44.3341 117.283 44.0815L115.482 43.8625C114.37 43.7278 114.134 43.5425 114.134 43.1047C114.134 42.5658 114.454 42.3468 115.717 42.3468C117.267 42.3468 117.603 42.7005 117.603 43.391V43.492H120.13V43.4415C120.13 41.3869 118.563 40.3428 115.801 40.3428C112.905 40.3428 111.642 41.5216 111.642 43.0036C111.642 44.4183 112.585 45.1761 114.269 45.3614L116.644 45.6477C117.637 45.7824 117.89 45.9171 117.89 46.3887C117.89 46.8939 117.57 47.1128 116.223 47.1128C114.791 47.1128 114.319 46.9107 114.319 46.1529V46.0013H111.793V46.0518C111.793 48.0054 113.36 49.1169 116.206 49.1169ZM127.346 48.9485V46.675H125.831C124.938 46.675 124.618 46.456 124.618 45.614V42.5994H127.346V40.5112H124.618V38.8776H122.092V40.5112H120.762V42.5994H122.092V45.9003C122.092 48.0222 123.288 48.9485 125.258 48.9485H127.346ZM130.819 48.9485V44.6877C130.819 43.2226 131.256 42.6163 132.789 42.6163C134.237 42.6163 134.726 43.1384 134.726 44.5362V48.9485H137.252V44.6877C137.252 43.2226 137.69 42.6163 139.222 42.6163C140.671 42.6163 141.159 43.1384 141.159 44.5362V48.9485H143.685V43.6941C143.685 41.7742 142.624 40.3428 140.452 40.3428C138.279 40.3428 137.42 41.6732 137.218 43.1047H137.067C136.881 41.5385 135.888 40.3428 133.934 40.3428C131.812 40.3428 130.97 41.6564 130.768 43.071H130.633V40.5112H128.292V48.9485H130.819ZM149.449 49.1169C152.126 49.1169 153.912 47.837 153.912 46.0013V45.8161H151.385V45.9845C151.385 46.7086 150.863 47.096 149.364 47.096C147.731 47.096 147.125 46.5402 147.057 45.2435H153.928C153.962 44.9572 153.996 44.7382 153.996 44.4351C153.996 41.7911 152.16 40.3428 149.398 40.3428C146.619 40.3428 144.716 42.0437 144.716 44.7382C144.716 47.7359 146.636 49.1169 149.449 49.1169ZM149.348 42.3132C150.83 42.3132 151.503 42.8015 151.571 43.913H147.091C147.209 42.8184 147.849 42.3132 149.348 42.3132ZM157.593 48.9485V44.6877C157.593 43.2562 158.166 42.6163 159.766 42.6163C161.315 42.6163 161.871 43.1889 161.871 44.5362V48.9485H164.397V43.6941C164.397 41.8248 163.302 40.3428 160.995 40.3428C158.789 40.3428 157.778 41.69 157.559 43.1047H157.408V40.5112H155.067V48.9485H157.593ZM171.62 48.9485V46.675H170.104C169.211 46.675 168.891 46.456 168.891 45.614V42.5994H171.62V40.5112H168.891V38.8776H166.365V40.5112H165.035V42.5994H166.365V45.9003C166.365 48.0222 167.561 48.9485 169.531 48.9485H171.62ZM33.4866 70.1169C36.3664 70.1169 38.3031 68.3991 38.3031 65.7382C38.3031 63.0437 36.3664 61.3428 33.4866 61.3428C30.6068 61.3428 28.6701 63.0437 28.6701 65.7382C28.6701 68.3991 30.6068 70.1169 33.4866 70.1169ZM33.4866 67.877C31.7688 67.877 31.1794 67.2203 31.1794 65.7382C31.1794 64.2562 31.7688 63.5658 33.4866 63.5658C35.1875 63.5658 35.7938 64.2562 35.7938 65.7382C35.7938 67.2203 35.1875 67.877 33.4866 67.877ZM41.8609 72.8114V67.675H41.9788C42.2651 69.157 43.3429 70.1169 45.2964 70.1169C47.8394 70.1169 49.2541 68.416 49.2541 65.7382C49.2541 63.0605 47.8057 61.3428 45.2122 61.3428C43.225 61.3428 42.1472 62.2016 41.844 63.8184H41.6756V61.5112H39.3347V72.8114H41.8609ZM41.8609 65.8561V65.7214C41.8609 64.2226 42.7029 63.6668 44.3365 63.6668C45.9364 63.6668 46.6942 64.1889 46.6942 65.7382C46.6942 67.2708 45.9364 67.8097 44.3197 67.8097C42.7366 67.8097 41.8609 67.3045 41.8609 65.8561ZM52.8305 72.8114V67.675H52.9484C53.2347 69.157 54.3125 70.1169 56.2661 70.1169C58.8091 70.1169 60.2237 68.416 60.2237 65.7382C60.2237 63.0605 58.7754 61.3428 56.1819 61.3428C54.1946 61.3428 53.1168 62.2016 52.8137 63.8184H52.6453V61.5112H50.3044V72.8114H52.8305ZM52.8305 65.8561V65.7214C52.8305 64.2226 53.6726 63.6668 55.3061 63.6668C56.906 63.6668 57.6639 64.1889 57.6639 65.7382C57.6639 67.2708 56.906 67.8097 55.2893 67.8097C53.7062 67.8097 52.8305 67.3045 52.8305 65.8561ZM65.7706 70.1169C68.6504 70.1169 70.5871 68.3991 70.5871 65.7382C70.5871 63.0437 68.6504 61.3428 65.7706 61.3428C62.8908 61.3428 60.954 63.0437 60.954 65.7382C60.954 68.3991 62.8908 70.1169 65.7706 70.1169ZM65.7706 67.877C64.0528 67.877 63.4633 67.2203 63.4633 65.7382C63.4633 64.2562 64.0528 63.5658 65.7706 63.5658C67.4715 63.5658 68.0778 64.2562 68.0778 65.7382C68.0778 67.2203 67.4715 67.877 65.7706 67.877ZM74.1448 69.9485V65.0646C74.1448 64.0036 74.549 63.4816 75.6774 63.4816C76.7047 63.4816 77.0752 63.8857 77.0752 64.812V65.6877H79.6013V64.2899C79.6013 62.6395 78.8266 61.3428 76.9404 61.3428C75.2395 61.3428 74.3469 62.3869 74.1112 63.751H73.9596V61.5112H71.6187V69.9485H74.1448ZM86.461 69.9485V67.675H84.9453C84.0527 67.675 83.7327 67.456 83.7327 66.614V63.5994H86.461V61.5112H83.7327V59.8776H81.2066V61.5112H79.8762V63.5994H81.2066V66.9003C81.2066 69.0222 82.4023 69.9485 84.3727 69.9485H86.461ZM90.8932 70.1169C93.1162 70.1169 94.1435 68.7865 94.3624 67.3718H94.4971V69.9485H96.8549V61.5112H94.3287V65.7888C94.3287 67.2203 93.7393 67.8602 92.0889 67.8602C90.489 67.8602 89.9164 67.2876 89.9164 65.9235V61.5112H87.3903V66.7655C87.3903 68.6517 88.5186 70.1169 90.8932 70.1169ZM100.673 69.9485V65.6877C100.673 64.2562 101.245 63.6163 102.845 63.6163C104.394 63.6163 104.95 64.1889 104.95 65.5362V69.9485H107.476V64.6941C107.476 62.8248 106.382 61.3428 104.075 61.3428C101.868 61.3428 100.858 62.69 100.639 64.1047H100.487V61.5112H98.1465V69.9485H100.673ZM111.28 60.6523V58.665H108.754V60.6523H111.28ZM111.28 69.9485V61.5112H108.754V69.9485H111.28ZM118.548 69.9485V67.675H117.032C116.139 67.675 115.819 67.456 115.819 66.614V63.5994H118.548V61.5112H115.819V59.8776H113.293V61.5112H111.963V63.5994H113.293V66.9003C113.293 69.0222 114.489 69.9485 116.459 69.9485H118.548ZM122.02 60.6523V58.665H119.494V60.6523H122.02ZM122.02 69.9485V61.5112H119.494V69.9485H122.02ZM127.822 70.1169C130.5 70.1169 132.285 68.837 132.285 67.0013V66.8161H129.759V66.9845C129.759 67.7086 129.236 68.096 127.738 68.096C126.104 68.096 125.498 67.5402 125.43 66.2435H132.302C132.335 65.9572 132.369 65.7382 132.369 65.4351C132.369 62.7911 130.533 61.3428 127.771 61.3428C124.993 61.3428 123.09 63.0437 123.09 65.7382C123.09 68.7359 125.009 70.1169 127.822 70.1169ZM127.721 63.3132C129.203 63.3132 129.876 63.8015 129.944 64.913H125.464C125.582 63.8184 126.222 63.3132 127.721 63.3132ZM137.701 70.1169C140.311 70.1169 141.877 69.0728 141.877 67.4897C141.877 66.0919 141.035 65.3341 138.779 65.0815L136.977 64.8625C135.865 64.7278 135.629 64.5425 135.629 64.1047C135.629 63.5658 135.949 63.3468 137.213 63.3468C138.762 63.3468 139.099 63.7005 139.099 64.391V64.492H141.625V64.4415C141.625 62.3869 140.059 61.3428 137.297 61.3428C134.4 61.3428 133.137 62.5216 133.137 64.0036C133.137 65.4183 134.08 66.1761 135.764 66.3614L138.139 66.6477C139.132 66.7824 139.385 66.9171 139.385 67.3887C139.385 67.8939 139.065 68.1128 137.718 68.1128C136.286 68.1128 135.815 67.9107 135.815 67.1529V67.0013H133.289V67.0518C133.289 69.0054 134.855 70.1169 137.701 70.1169Z" fill="white"/>
<path d="M186.432 69.583H157.09V146.796H186.432V69.583Z" fill="#8807F7"/>
<path opacity="0.5" d="M186.517 69.583H164.637V146.796H186.517V69.583Z" fill="black"/>
<path d="M224.768 95.9072H195.426V146.792H224.768V95.9072Z" fill="#8807F7"/>
<path opacity="0.3" d="M224.767 95.7875H202.887V146.796H224.767V95.7875Z" fill="black"/>
<path d="M147.909 83.3516H118.566V146.791H147.909V83.3516Z" fill="#8807F7"/>
<path opacity="0.4" d="M147.931 83.1965H126.051V146.792H147.931V83.1965Z" fill="black"/>
<path d="M129.981 146.875C129.941 147.822 132.932 148.715 136.648 148.875C140.363 149.035 143.434 148.395 143.474 147.449C143.514 146.502 140.523 145.613 136.808 145.453C133.092 145.293 130.021 145.933 129.981 146.875Z" fill="#8807F7"/>
<path d="M130.053 145.16L129.98 146.87L143.488 147.443L143.561 145.734L130.053 145.16Z" fill="#8807F7"/>
<path d="M130.067 145.165C130.027 146.111 133.018 147.005 136.733 147.165C140.449 147.325 143.52 146.685 143.56 145.738C143.6 144.791 140.609 143.903 136.893 143.743C133.178 143.583 130.107 144.223 130.067 145.165Z" fill="#8807F7"/>
<path opacity="0.4" d="M130.067 145.165C130.027 146.111 133.018 147.005 136.733 147.165C140.449 147.325 143.52 146.685 143.56 145.738C143.6 144.791 140.609 143.903 136.893 143.743C133.178 143.583 130.107 144.223 130.067 145.165Z" fill="white"/>
<path d="M130.926 145.138C130.926 145.199 130.946 145.259 130.984 145.307C131.428 144.751 133.904 144.418 136.855 144.547C139.806 144.676 142.246 145.209 142.632 145.8C142.676 145.757 142.702 145.698 142.704 145.636C142.73 144.996 140.117 144.356 136.859 144.218C133.601 144.08 130.952 144.498 130.926 145.138Z" fill="#8807F7"/>
<path opacity="0.4" d="M130.926 145.138C130.926 145.199 130.946 145.259 130.984 145.307C131.428 144.751 133.904 144.418 136.855 144.547C139.806 144.676 142.246 145.209 142.632 145.8C142.676 145.757 142.702 145.698 142.704 145.636C142.73 144.996 140.117 144.356 136.859 144.218C133.601 144.08 130.952 144.498 130.926 145.138Z" fill="#8807F7"/>
<path opacity="0.4" d="M130.973 145.306C131.377 145.898 133.808 146.431 136.75 146.555C139.693 146.68 142.177 146.355 142.622 145.8C142.226 145.209 139.795 144.675 136.844 144.546C133.893 144.418 131.426 144.751 130.973 145.306Z" fill="#8807F7"/>
<path d="M128.543 144.284C128.503 145.231 131.494 146.124 135.21 146.284C138.926 146.444 141.997 145.804 142.037 144.862C142.077 143.92 139.086 143.022 135.37 142.862C131.654 142.702 128.601 143.342 128.543 144.284Z" fill="#8807F7"/>
<path d="M128.647 142.579L128.574 144.288L142.082 144.862L142.155 143.152L128.647 142.579Z" fill="#8807F7"/>
<path d="M128.637 142.578C128.597 143.52 131.588 144.414 135.304 144.574C139.019 144.734 142.09 144.094 142.13 143.152C142.17 142.209 139.179 141.312 135.464 141.152C131.748 140.992 128.677 141.632 128.637 142.578Z" fill="#8807F7"/>
<path opacity="0.4" d="M128.637 142.578C128.597 143.52 131.588 144.414 135.304 144.574C139.019 144.734 142.09 144.094 142.13 143.152C142.17 142.209 139.179 141.312 135.464 141.152C131.748 140.992 128.677 141.632 128.637 142.578Z" fill="white"/>
<path d="M129.488 142.547C129.487 142.608 129.507 142.668 129.546 142.716C129.991 142.16 132.466 141.827 135.417 141.96C138.368 142.093 140.808 142.618 141.195 143.209C141.236 143.165 141.26 143.109 141.266 143.049C141.293 142.409 138.679 141.765 135.422 141.627C132.164 141.489 129.515 141.907 129.488 142.547Z" fill="#8807F7"/>
<path opacity="0.4" d="M129.488 142.547C129.487 142.608 129.507 142.668 129.546 142.716C129.991 142.16 132.466 141.827 135.417 141.96C138.368 142.093 140.808 142.618 141.195 143.209C141.236 143.165 141.26 143.109 141.266 143.049C141.293 142.409 138.679 141.765 135.422 141.627C132.164 141.489 129.515 141.907 129.488 142.547Z" fill="#8807F7"/>
<path opacity="0.4" d="M129.566 142.716C129.966 143.307 132.402 143.84 135.344 143.965C138.286 144.089 140.771 143.765 141.215 143.209C140.82 142.618 138.389 142.085 135.438 141.96C132.486 141.836 130.015 142.16 129.566 142.716Z" fill="#8807F7"/>
<path d="M128.739 141.165C128.699 142.111 131.69 143.005 135.405 143.165C139.121 143.325 142.192 142.685 142.232 141.738C142.272 140.791 139.281 139.902 135.565 139.742C131.85 139.582 128.779 140.222 128.739 141.165Z" fill="#8807F7"/>
<path d="M128.811 139.455L128.738 141.165L142.246 141.738L142.319 140.028L128.811 139.455Z" fill="#8807F7"/>
<path d="M128.825 139.454C128.785 140.4 131.776 141.294 135.491 141.454C139.207 141.614 142.273 140.974 142.313 140.031C142.353 139.089 139.362 138.191 135.647 138.031C131.931 137.871 128.865 138.511 128.825 139.454Z" fill="#8807F7"/>
<path opacity="0.4" d="M128.825 139.454C128.785 140.4 131.776 141.294 135.491 141.454C139.207 141.614 142.273 140.974 142.313 140.031C142.353 139.089 139.362 138.191 135.647 138.031C131.931 137.871 128.865 138.511 128.825 139.454Z" fill="white"/>
<path d="M129.684 139.427C129.684 139.488 129.704 139.548 129.741 139.596C130.186 139.04 132.661 138.707 135.612 138.84C138.564 138.974 141.004 139.498 141.39 140.089C141.434 140.047 141.46 139.99 141.461 139.929C141.488 139.289 138.875 138.645 135.617 138.507C132.359 138.369 129.71 138.787 129.684 139.427Z" fill="#8807F7"/>
<path opacity="0.4" d="M129.684 139.427C129.684 139.488 129.704 139.548 129.741 139.596C130.186 139.04 132.661 138.707 135.612 138.84C138.564 138.974 141.004 139.498 141.39 140.089C141.434 140.047 141.46 139.99 141.461 139.929C141.488 139.289 138.875 138.645 135.617 138.507C132.359 138.369 129.71 138.787 129.684 139.427Z" fill="#8807F7"/>
<path opacity="0.4" d="M129.754 139.596C130.158 140.187 132.589 140.72 135.532 140.845C138.474 140.969 140.958 140.645 141.403 140.089C141.007 139.498 138.576 138.965 135.625 138.84C132.674 138.716 130.207 139.049 129.754 139.596Z" fill="#8807F7"/>
<path d="M127.34 138.578C127.3 139.52 130.291 140.414 134.007 140.574C137.722 140.734 140.794 140.094 140.834 139.152C140.874 138.209 137.882 137.312 134.167 137.152C130.451 136.992 127.38 137.632 127.34 138.578Z" fill="#8807F7"/>
<path d="M127.412 136.855L127.34 138.565L140.848 139.138L140.92 137.428L127.412 136.855Z" fill="#8807F7"/>
<path d="M127.395 136.867C127.355 137.809 130.346 138.702 134.062 138.862C137.777 139.022 140.848 138.382 140.888 137.44C140.928 136.498 137.937 135.6 134.222 135.44C130.506 135.28 127.435 135.938 127.395 136.867Z" fill="#8807F7"/>
<path opacity="0.4" d="M127.395 136.867C127.355 137.809 130.346 138.702 134.062 138.862C137.777 139.022 140.848 138.382 140.888 137.44C140.928 136.498 137.937 135.6 134.222 135.44C130.506 135.28 127.435 135.938 127.395 136.867Z" fill="white"/>
<path d="M128.278 136.827C128.275 136.888 128.296 136.949 128.335 136.996C128.78 136.44 131.255 136.107 134.206 136.24C137.158 136.373 139.598 136.898 139.984 137.489C140.025 137.445 140.05 137.389 140.055 137.329C140.082 136.689 137.469 136.045 134.211 135.907C130.953 135.769 128.304 136.196 128.278 136.827Z" fill="#8807F7"/>
<path opacity="0.4" d="M128.278 136.827C128.275 136.888 128.296 136.949 128.335 136.996C128.78 136.44 131.255 136.107 134.206 136.24C137.158 136.373 139.598 136.898 139.984 137.489C140.025 137.445 140.05 137.389 140.055 137.329C140.082 136.689 137.469 136.045 134.211 135.907C130.953 135.769 128.304 136.196 128.278 136.827Z" fill="#8807F7"/>
<path opacity="0.4" d="M128.332 137.005C128.732 137.596 131.168 138.129 134.11 138.254C137.052 138.378 139.536 138.054 139.981 137.498C139.585 136.907 137.154 136.374 134.203 136.249C131.252 136.125 128.781 136.449 128.332 137.005Z" fill="#8807F7"/>
<path d="M129.489 136.383C129.449 137.325 132.44 138.218 136.155 138.378C139.871 138.538 142.942 137.898 142.982 136.956C143.022 136.014 140.031 135.116 136.315 134.956C132.6 134.796 129.529 135.436 129.489 136.383Z" fill="#8807F7"/>
<path d="M129.561 134.671L129.488 136.38L142.996 136.954L143.069 135.244L129.561 134.671Z" fill="#8807F7"/>
<path d="M129.567 134.671C129.527 135.614 132.518 136.507 136.233 136.667C139.949 136.827 143.02 136.187 143.06 135.245C143.1 134.303 140.109 133.405 136.393 133.245C132.678 133.085 129.607 133.716 129.567 134.671Z" fill="#8807F7"/>
<path opacity="0.4" d="M129.567 134.671C129.527 135.614 132.518 136.507 136.233 136.667C139.949 136.827 143.02 136.187 143.06 135.245C143.1 134.303 140.109 133.405 136.393 133.245C132.678 133.085 129.607 133.716 129.567 134.671Z" fill="white"/>
<path d="M130.418 134.64C130.42 134.701 130.44 134.76 130.476 134.809C130.92 134.253 133.4 133.92 136.347 134.053C139.294 134.187 141.742 134.711 142.125 135.302C142.168 135.26 142.195 135.203 142.2 135.142C142.227 134.502 139.614 133.858 136.356 133.72C133.098 133.582 130.449 134 130.418 134.64Z" fill="#8807F7"/>
<path opacity="0.4" d="M130.418 134.64C130.42 134.701 130.44 134.76 130.476 134.809C130.92 134.253 133.4 133.92 136.347 134.053C139.294 134.187 141.742 134.711 142.125 135.302C142.168 135.26 142.195 135.203 142.2 135.142C142.227 134.502 139.614 133.858 136.356 133.72C133.098 133.582 130.449 134 130.418 134.64Z" fill="#8807F7"/>
<path opacity="0.4" d="M130.48 134.809C130.885 135.4 133.316 135.934 136.258 136.058C139.2 136.182 141.689 135.858 142.129 135.302C141.738 134.711 139.303 134.178 136.352 134.054C133.4 133.929 130.934 134.254 130.48 134.809Z" fill="#8807F7"/>
<path d="M128.075 133.791C128.035 134.733 131.026 135.631 134.741 135.787C138.457 135.942 141.528 135.307 141.568 134.364C141.608 133.422 138.617 132.524 134.901 132.364C131.186 132.204 128.101 132.827 128.075 133.791Z" fill="#8807F7"/>
<path d="M128.147 132.075L128.074 133.785L141.582 134.358L141.655 132.648L128.147 132.075Z" fill="#8807F7"/>
<path d="M128.153 132.08C128.113 133.022 131.104 133.92 134.819 134.076C138.535 134.231 141.606 133.6 141.646 132.654C141.686 131.707 138.695 130.814 134.979 130.654C131.264 130.494 128.193 131.134 128.153 132.08Z" fill="#8807F7"/>
<path opacity="0.4" d="M128.153 132.08C128.113 133.022 131.104 133.92 134.819 134.076C138.535 134.231 141.606 133.6 141.646 132.654C141.686 131.707 138.695 130.814 134.979 130.654C131.264 130.494 128.193 131.134 128.153 132.08Z" fill="white"/>
<path d="M128.981 132.05C128.979 132.111 129 132.171 129.038 132.218C129.483 131.663 131.958 131.33 134.909 131.463C137.861 131.596 140.301 132.121 140.687 132.716C140.73 132.672 140.756 132.614 140.758 132.552C140.785 131.912 138.172 131.272 134.914 131.13C131.656 130.987 129.025 131.41 128.981 132.05Z" fill="#8807F7"/>
<path opacity="0.4" d="M128.981 132.05C128.979 132.111 129 132.171 129.038 132.218C129.483 131.663 131.958 131.33 134.909 131.463C137.861 131.596 140.301 132.121 140.687 132.716C140.73 132.672 140.756 132.614 140.758 132.552C140.785 131.912 138.172 131.272 134.914 131.13C131.656 130.987 129.025 131.41 128.981 132.05Z" fill="#8807F7"/>
<path opacity="0.4" d="M129.066 132.218C129.471 132.809 131.902 133.343 134.844 133.472C137.786 133.601 140.271 133.272 140.715 132.716C140.32 132.121 137.889 131.587 134.938 131.463C131.986 131.338 129.52 131.663 129.066 132.218Z" fill="#8807F7"/>
<path d="M109.84 146.049C109.796 146.996 112.787 147.889 116.507 148.045C120.227 148.201 123.289 147.569 123.329 146.623C123.369 145.676 120.383 144.783 116.663 144.627C112.943 144.472 109.88 145.103 109.84 146.049Z" fill="#8807F7"/>
<path d="M109.912 144.329L109.84 146.039L123.348 146.612L123.42 144.903L109.912 144.329Z" fill="#8807F7"/>
<path d="M109.934 144.338C109.894 145.285 112.885 146.178 116.601 146.338C120.316 146.498 123.387 145.858 123.427 144.911C123.467 143.965 120.476 143.071 116.761 142.916C113.045 142.76 109.974 143.391 109.934 144.338Z" fill="#8807F7"/>
<path opacity="0.4" d="M109.934 144.338C109.894 145.285 112.885 146.178 116.601 146.338C120.316 146.498 123.387 145.858 123.427 144.911C123.467 143.965 120.476 143.071 116.761 142.916C113.045 142.76 109.974 143.391 109.934 144.338Z" fill="white"/>
<path d="M110.739 144.307C110.735 144.368 110.756 144.429 110.796 144.476C111.241 143.92 113.716 143.587 116.668 143.72C119.619 143.853 122.059 144.382 122.445 144.973C122.486 144.927 122.511 144.87 122.516 144.809C122.543 144.169 119.93 143.529 116.672 143.391C113.414 143.253 110.77 143.667 110.739 144.307Z" fill="#8807F7"/>
<path opacity="0.4" d="M110.739 144.307C110.735 144.368 110.756 144.429 110.796 144.476C111.241 143.92 113.716 143.587 116.668 143.72C119.619 143.853 122.059 144.382 122.445 144.973C122.486 144.927 122.511 144.87 122.516 144.809C122.543 144.169 119.93 143.529 116.672 143.391C113.414 143.253 110.77 143.667 110.739 144.307Z" fill="#8807F7"/>
<path opacity="0.4" d="M110.832 144.476C111.232 145.067 113.668 145.605 116.61 145.729C119.552 145.854 122.036 145.529 122.481 144.974C122.085 144.382 119.654 143.845 116.703 143.72C113.752 143.596 111.281 143.938 110.832 144.476Z" fill="#8807F7"/>
<path d="M115.72 144.382C115.497 145.302 118.266 146.747 121.897 147.609C125.528 148.471 128.653 148.427 128.871 147.507C129.088 146.587 126.32 145.142 122.688 144.28C119.057 143.418 115.937 143.462 115.72 144.382Z" fill="#8807F7"/>
<path d="M116.103 142.726L115.707 144.391L128.86 147.52L129.256 145.855L116.103 142.726Z" fill="#8807F7"/>
<path d="M116.11 142.716C115.888 143.636 118.657 145.08 122.288 145.947C125.919 146.814 129.043 146.765 129.261 145.845C129.479 144.925 126.723 143.494 123.088 142.605C119.452 141.716 116.337 141.796 116.11 142.716Z" fill="#8807F7"/>
<path opacity="0.4" d="M116.11 142.716C115.888 143.636 118.657 145.08 122.288 145.947C125.919 146.814 129.043 146.765 129.261 145.845C129.479 144.925 126.723 143.494 123.088 142.605C119.452 141.716 116.337 141.796 116.11 142.716Z" fill="white"/>
<path d="M116.971 142.849C116.957 142.91 116.967 142.973 116.997 143.027C117.544 142.583 120.033 142.716 122.904 143.4C125.775 144.085 128.073 145.071 128.348 145.725C128.399 145.689 128.435 145.637 128.451 145.578C128.597 144.956 126.153 143.831 122.979 143.076C119.806 142.32 117.122 142.227 116.971 142.849Z" fill="#8807F7"/>
<path opacity="0.4" d="M116.971 142.849C116.957 142.91 116.967 142.973 116.997 143.027C117.544 142.583 120.033 142.716 122.904 143.4C125.775 144.085 128.073 145.071 128.348 145.725C128.399 145.689 128.435 145.637 128.451 145.578C128.597 144.956 126.153 143.831 122.979 143.076C119.806 142.32 117.122 142.227 116.971 142.849Z" fill="#8807F7"/>
<path opacity="0.4" d="M116.988 143.049C117.273 143.707 119.557 144.693 122.433 145.373C125.308 146.053 127.797 146.209 128.339 145.747C128.064 145.093 125.775 144.107 122.895 143.422C120.015 142.738 117.531 142.565 116.988 143.049Z" fill="#8807F7"/>
<path d="M132.866 133.227C136.229 133.227 138.955 130.501 138.955 127.138C138.955 123.775 136.229 121.049 132.866 121.049C129.503 121.049 126.777 123.775 126.777 127.138C126.777 130.501 129.503 133.227 132.866 133.227Z" fill="#8807F7"/>
<path d="M133.585 133.227C136.948 133.227 139.674 130.501 139.674 127.138C139.674 123.775 136.948 121.049 133.585 121.049C130.222 121.049 127.496 123.775 127.496 127.138C127.496 130.501 130.222 133.227 133.585 133.227Z" fill="#8807F7"/>
<path opacity="0.5" d="M133.585 133.227C136.948 133.227 139.674 130.501 139.674 127.138C139.674 123.775 136.948 121.049 133.585 121.049C130.222 121.049 127.496 123.775 127.496 127.138C127.496 130.501 130.222 133.227 133.585 133.227Z" fill="white"/>
<path d="M136.818 130.362C138.599 128.582 138.599 125.694 136.818 123.914C135.037 122.133 132.15 122.133 130.369 123.914C128.588 125.694 128.588 128.582 130.369 130.362C132.15 132.143 135.037 132.143 136.818 130.362Z" fill="#8807F7"/>
<path d="M218.898 147.711C218.862 148.653 215.814 149.311 212.08 149.178C208.347 149.044 205.356 148.169 205.387 147.226C205.418 146.284 208.476 145.622 212.205 145.755C215.934 145.889 218.934 146.764 218.898 147.711Z" fill="#8807F7"/>
<path d="M205.448 145.501L205.387 147.211L218.898 147.695L218.959 145.985L205.448 145.501Z" fill="#8807F7"/>
<path d="M218.968 146C218.933 146.942 215.884 147.6 212.151 147.467C208.417 147.333 205.426 146.458 205.457 145.516C205.488 144.573 208.542 143.911 212.275 144.045C216.008 144.178 219.004 145.053 218.968 146Z" fill="#8807F7"/>
<path opacity="0.4" d="M218.968 146C218.933 146.942 215.884 147.6 212.151 147.467C208.417 147.333 205.426 146.458 205.457 145.516C205.488 144.573 208.542 143.911 212.275 144.045C216.008 144.178 219.004 145.053 218.968 146Z" fill="white"/>
<path d="M218.086 145.902C218.084 145.964 218.059 146.023 218.015 146.067C217.611 145.476 215.175 144.956 212.237 144.853C209.3 144.751 206.811 145.089 206.371 145.644C206.332 145.598 206.31 145.54 206.309 145.48C206.335 144.84 208.975 144.405 212.246 144.52C215.517 144.636 218.109 145.271 218.086 145.902Z" fill="#8807F7"/>
<path opacity="0.4" d="M218.086 145.902C218.084 145.964 218.059 146.023 218.015 146.067C217.611 145.476 215.175 144.956 212.237 144.853C209.3 144.751 206.811 145.089 206.371 145.644C206.332 145.598 206.31 145.54 206.309 145.48C206.335 144.84 208.975 144.405 212.246 144.52C215.517 144.636 218.109 145.271 218.086 145.902Z" fill="#8807F7"/>
<path opacity="0.4" d="M218.047 146.066C217.602 146.622 215.131 146.955 212.18 146.858C209.229 146.76 206.785 146.235 206.402 145.644C206.847 145.089 209.309 144.755 212.269 144.853C215.229 144.951 217.642 145.475 218.047 146.066Z" fill="#8807F7"/>
<path d="M220.5 145.24C220.464 146.182 217.415 146.84 213.682 146.707C209.949 146.573 206.957 145.698 206.989 144.751C207.02 143.804 210.077 143.151 213.806 143.284C217.535 143.418 220.54 144.293 220.5 145.24Z" fill="#8807F7"/>
<path d="M207.073 143.054L207.012 144.764L220.523 145.25L220.584 143.54L207.073 143.054Z" fill="#8807F7"/>
<path d="M220.562 143.529C220.527 144.471 217.478 145.129 213.744 144.996C210.011 144.863 207.016 143.987 207.051 143.04C207.087 142.094 210.136 141.44 213.869 141.574C217.602 141.707 220.593 142.605 220.562 143.529Z" fill="#8807F7"/>
<path opacity="0.4" d="M220.562 143.529C220.527 144.471 217.478 145.129 213.744 144.996C210.011 144.863 207.016 143.987 207.051 143.04C207.087 142.094 210.136 141.44 213.869 141.574C217.602 141.707 220.593 142.605 220.562 143.529Z" fill="white"/>
<path d="M219.727 143.432C219.725 143.492 219.7 143.55 219.656 143.592C219.251 143.005 216.816 142.485 213.878 142.383C210.94 142.28 208.447 142.618 208.011 143.174C207.972 143.128 207.95 143.07 207.949 143.009C207.976 142.369 210.616 141.934 213.887 142.049C217.158 142.165 219.749 142.792 219.727 143.432Z" fill="#8807F7"/>
<path opacity="0.4" d="M219.727 143.432C219.725 143.492 219.7 143.55 219.656 143.592C219.251 143.005 216.816 142.485 213.878 142.383C210.94 142.28 208.447 142.618 208.011 143.174C207.972 143.128 207.95 143.07 207.949 143.009C207.976 142.369 210.616 141.934 213.887 142.049C217.158 142.165 219.749 142.792 219.727 143.432Z" fill="#8807F7"/>
<path opacity="0.4" d="M219.656 143.591C219.212 144.151 216.741 144.48 213.789 144.387C210.838 144.294 208.394 143.765 208.012 143.174C208.456 142.618 210.918 142.285 213.878 142.382C216.838 142.48 219.234 143.005 219.656 143.591Z" fill="#8807F7"/>
<path d="M220.562 142.111C220.527 143.058 217.473 143.716 213.744 143.583C210.016 143.449 207.016 142.574 207.051 141.627C207.087 140.68 210.136 140.027 213.869 140.16C217.602 140.294 220.593 141.169 220.562 142.111Z" fill="#8807F7"/>
<path d="M207.128 139.928L207.066 141.638L220.578 142.124L220.639 140.414L207.128 139.928Z" fill="#8807F7"/>
<path d="M220.64 140.382C220.605 141.329 217.551 141.987 213.823 141.854C210.094 141.72 207.094 140.845 207.129 139.898C207.165 138.951 210.214 138.298 213.943 138.431C217.671 138.565 220.671 139.458 220.64 140.382Z" fill="#8807F7"/>
<path opacity="0.4" d="M220.64 140.382C220.605 141.329 217.551 141.987 213.823 141.854C210.094 141.72 207.094 140.845 207.129 139.898C207.165 138.951 210.214 138.298 213.943 138.431C217.671 138.565 220.671 139.458 220.64 140.382Z" fill="white"/>
<path d="M219.785 140.307C219.779 140.366 219.754 140.423 219.714 140.467C219.305 139.88 216.87 139.36 213.936 139.254C211.003 139.147 208.51 139.489 208.07 140.049C208.031 140.001 208.01 139.942 208.012 139.88C208.012 139.24 210.678 138.809 213.95 138.925C217.221 139.04 219.807 139.667 219.785 140.307Z" fill="#8807F7"/>
<path opacity="0.4" d="M219.785 140.307C219.779 140.366 219.754 140.423 219.714 140.467C219.305 139.88 216.87 139.36 213.936 139.254C211.003 139.147 208.51 139.489 208.07 140.049C208.031 140.001 208.01 139.942 208.012 139.88C208.012 139.24 210.678 138.809 213.95 138.925C217.221 139.04 219.807 139.667 219.785 140.307Z" fill="#8807F7"/>
<path opacity="0.4" d="M219.695 140.467C219.251 141.027 216.78 141.356 213.829 141.263C210.877 141.169 208.433 140.64 208.051 140.049C208.495 139.489 210.957 139.16 213.917 139.254C216.877 139.347 219.286 139.88 219.695 140.467Z" fill="#8807F7"/>
<path d="M222.203 139.64C222.167 140.587 219.114 141.245 215.385 141.111C211.656 140.978 208.656 140.102 208.692 139.156C208.727 138.209 211.776 137.556 215.509 137.689C219.243 137.822 222.234 138.698 222.203 139.64Z" fill="#8807F7"/>
<path d="M208.721 137.437L208.66 139.147L222.171 139.631L222.233 137.921L208.721 137.437Z" fill="#8807F7"/>
<path d="M222.245 137.929C222.214 138.876 219.161 139.534 215.432 139.4C211.703 139.267 208.703 138.391 208.739 137.445C208.774 136.498 211.823 135.845 215.552 135.978C219.281 136.111 222.281 136.987 222.245 137.929Z" fill="#8807F7"/>
<path opacity="0.4" d="M222.245 137.929C222.214 138.876 219.161 139.534 215.432 139.4C211.703 139.267 208.703 138.391 208.739 137.445C208.774 136.498 211.823 135.845 215.552 135.978C219.281 136.111 222.281 136.987 222.245 137.929Z" fill="white"/>
<path d="M221.379 137.836C221.373 137.896 221.348 137.952 221.308 137.996C220.899 137.409 218.463 136.889 215.53 136.783C212.597 136.676 210.103 137.018 209.663 137.578C209.625 137.53 209.604 137.471 209.606 137.409C209.628 136.769 212.272 136.338 215.543 136.454C218.814 136.569 221.423 137.196 221.379 137.836Z" fill="#8807F7"/>
<path opacity="0.4" d="M221.379 137.836C221.373 137.896 221.348 137.952 221.308 137.996C220.899 137.409 218.463 136.889 215.53 136.783C212.597 136.676 210.103 137.018 209.663 137.578C209.625 137.53 209.604 137.471 209.606 137.409C209.628 136.769 212.272 136.338 215.543 136.454C218.814 136.569 221.423 137.196 221.379 137.836Z" fill="#8807F7"/>
<path opacity="0.4" d="M221.328 137.996C220.884 138.556 218.412 138.885 215.461 138.792C212.51 138.698 210.066 138.169 209.684 137.578C210.128 137.018 212.59 136.689 215.55 136.783C218.51 136.876 220.919 137.41 221.328 137.996Z" fill="#8807F7"/>
<path d="M168.543 145.809C168.503 146.756 171.49 147.649 175.21 147.809C178.93 147.969 181.992 147.329 182.032 146.383C182.072 145.436 179.086 144.543 175.366 144.387C171.646 144.232 168.57 144.867 168.543 145.809Z" fill="#8807F7"/>
<path d="M168.608 144.093L168.535 145.802L182.043 146.375L182.116 144.666L168.608 144.093Z" fill="#8807F7"/>
<path d="M168.606 144.098C168.566 145.044 171.557 145.938 175.273 146.098C178.988 146.258 182.059 145.618 182.099 144.671C182.139 143.724 179.148 142.831 175.433 142.676C171.717 142.52 168.646 143.156 168.606 144.098Z" fill="#8807F7"/>
<path opacity="0.4" d="M168.606 144.098C168.566 145.044 171.557 145.938 175.273 146.098C178.988 146.258 182.059 145.618 182.099 144.671C182.139 143.724 179.148 142.831 175.433 142.676C171.717 142.52 168.646 143.156 168.606 144.098Z" fill="white"/>
<path d="M169.473 144.071C169.47 144.131 169.491 144.19 169.531 144.236C169.975 143.68 172.451 143.347 175.402 143.48C178.353 143.613 180.793 144.142 181.179 144.733C181.22 144.688 181.245 144.63 181.251 144.569C181.277 143.929 178.664 143.289 175.406 143.151C172.148 143.013 169.5 143.431 169.473 144.071Z" fill="#8807F7"/>
<path opacity="0.4" d="M169.473 144.071C169.47 144.131 169.491 144.19 169.531 144.236C169.975 143.68 172.451 143.347 175.402 143.48C178.353 143.613 180.793 144.142 181.179 144.733C181.22 144.688 181.245 144.63 181.251 144.569C181.277 143.929 178.664 143.289 175.406 143.151C172.148 143.013 169.5 143.431 169.473 144.071Z" fill="#8807F7"/>
<path opacity="0.4" d="M169.535 144.235C169.935 144.831 172.371 145.364 175.313 145.489C178.255 145.613 180.74 145.289 181.184 144.733C180.788 144.142 178.357 143.609 175.406 143.48C172.455 143.351 169.984 143.68 169.535 144.235Z" fill="#8807F7"/>
<path d="M167.121 143.218C167.081 144.165 170.073 145.058 173.788 145.218C177.504 145.378 180.575 144.738 180.615 143.791C180.655 142.845 177.664 141.951 173.948 141.796C170.233 141.64 167.161 142.276 167.121 143.218Z" fill="#8807F7"/>
<path d="M167.194 141.515L167.121 143.224L180.629 143.798L180.701 142.088L167.194 141.515Z" fill="#8807F7"/>
<path d="M167.2 141.507C167.16 142.454 170.151 143.347 173.866 143.507C177.582 143.667 180.653 143.027 180.693 142.08C180.733 141.134 177.742 140.245 174.026 140.085C170.311 139.925 167.226 140.565 167.2 141.507Z" fill="#8807F7"/>
<path opacity="0.4" d="M167.2 141.507C167.16 142.454 170.151 143.347 173.866 143.507C177.582 143.667 180.653 143.027 180.693 142.08C180.733 141.134 177.742 140.245 174.026 140.085C170.311 139.925 167.226 140.565 167.2 141.507Z" fill="white"/>
<path d="M168.051 141.48C168.053 141.541 168.073 141.6 168.109 141.649C168.553 141.093 171.033 140.76 173.98 140.889C176.926 141.018 179.375 141.551 179.757 142.142C179.801 142.098 179.828 142.04 179.833 141.978C179.86 141.338 177.246 140.698 173.989 140.56C170.731 140.422 168.082 140.827 168.051 141.48Z" fill="#8807F7"/>
<path opacity="0.4" d="M168.051 141.48C168.053 141.541 168.073 141.6 168.109 141.649C168.553 141.093 171.033 140.76 173.98 140.889C176.926 141.018 179.375 141.551 179.757 142.142C179.801 142.098 179.828 142.04 179.833 141.978C179.86 141.338 177.246 140.698 173.989 140.56C170.731 140.422 168.082 140.827 168.051 141.48Z" fill="#8807F7"/>
<path opacity="0.4" d="M168.113 141.649C168.518 142.24 170.949 142.773 173.891 142.898C176.833 143.022 179.322 142.698 179.762 142.142C179.371 141.551 176.935 141.018 173.984 140.889C171.033 140.76 168.558 141.093 168.113 141.649Z" fill="#8807F7"/>
<path d="M167.293 140.098C167.253 141.045 170.244 141.938 173.96 142.098C177.676 142.258 180.747 141.618 180.787 140.672C180.827 139.725 177.836 138.832 174.12 138.676C170.404 138.52 167.333 139.156 167.293 140.098Z" fill="#8807F7"/>
<path d="M167.366 138.386L167.293 140.096L180.801 140.669L180.873 138.96L167.366 138.386Z" fill="#8807F7"/>
<path d="M167.364 138.387C167.324 139.333 170.315 140.227 174.03 140.387C177.746 140.547 180.817 139.907 180.857 138.96C180.897 138.013 177.906 137.12 174.19 136.964C170.475 136.809 167.404 137.444 167.364 138.387Z" fill="#8807F7"/>
<path opacity="0.4" d="M167.364 138.387C167.324 139.333 170.315 140.227 174.03 140.387C177.746 140.547 180.817 139.907 180.857 138.96C180.897 138.013 177.906 137.12 174.19 136.964C170.475 136.809 167.404 137.444 167.364 138.387Z" fill="white"/>
<path d="M168.231 138.361C168.228 138.421 168.249 138.48 168.288 138.525C168.733 137.974 171.208 137.636 174.16 137.769C177.111 137.903 179.551 138.432 179.937 139.023C179.978 138.977 180.003 138.919 180.008 138.858C180.035 138.218 177.422 137.578 174.164 137.441C170.906 137.303 168.257 137.716 168.231 138.361Z" fill="#8807F7"/>
<path opacity="0.4" d="M168.231 138.361C168.228 138.421 168.249 138.48 168.288 138.525C168.733 137.974 171.208 137.636 174.16 137.769C177.111 137.903 179.551 138.432 179.937 139.023C179.978 138.977 180.003 138.919 180.008 138.858C180.035 138.218 177.422 137.578 174.164 137.441C170.906 137.303 168.257 137.716 168.231 138.361Z" fill="#8807F7"/>
<path opacity="0.4" d="M168.293 138.525C168.693 139.12 171.129 139.654 174.071 139.778C177.013 139.903 179.497 139.578 179.942 139.023C179.546 138.432 177.115 137.898 174.164 137.769C171.213 137.64 168.742 137.974 168.293 138.525Z" fill="#8807F7"/>
<path d="M165.871 137.507C165.831 138.453 168.823 139.347 172.538 139.507C176.254 139.667 179.325 139.027 179.365 138.08C179.405 137.133 176.414 136.245 172.698 136.085C168.983 135.925 165.907 136.565 165.871 137.507Z" fill="#8807F7"/>
<path d="M165.944 135.791L165.871 137.501L179.379 138.074L179.451 136.364L165.944 135.791Z" fill="#8807F7"/>
<path d="M165.95 135.796C165.91 136.743 168.901 137.636 172.616 137.796C176.332 137.956 179.403 137.316 179.443 136.369C179.483 135.423 176.492 134.534 172.776 134.374C169.061 134.214 165.99 134.854 165.95 135.796Z" fill="#8807F7"/>
<path opacity="0.4" d="M165.95 135.796C165.91 136.743 168.901 137.636 172.616 137.796C176.332 137.956 179.403 137.316 179.443 136.369C179.483 135.423 176.492 134.534 172.776 134.374C169.061 134.214 165.99 134.854 165.95 135.796Z" fill="white"/>
<path d="M166.817 135.769C166.815 135.83 166.834 135.889 166.87 135.938C167.314 135.383 169.794 135.049 172.745 135.183C175.696 135.316 178.136 135.84 178.523 136.432C178.565 136.386 178.59 136.328 178.594 136.267C178.621 135.632 176.008 134.987 172.75 134.849C169.492 134.712 166.843 135.129 166.817 135.769Z" fill="#8807F7"/>
<path opacity="0.4" d="M166.817 135.769C166.815 135.83 166.834 135.889 166.87 135.938C167.314 135.383 169.794 135.049 172.745 135.183C175.696 135.316 178.136 135.84 178.523 136.432C178.565 136.386 178.59 136.328 178.594 136.267C178.621 135.632 176.008 134.987 172.75 134.849C169.492 134.712 166.843 135.129 166.817 135.769Z" fill="#8807F7"/>
<path opacity="0.4" d="M166.863 135.938C167.268 136.529 169.699 137.062 172.641 137.187C175.583 137.311 178.072 136.987 178.517 136.431C178.121 135.84 175.685 135.307 172.739 135.182C169.792 135.058 167.317 135.382 166.863 135.938Z" fill="#8807F7"/>
<path d="M168.051 135.312C168.011 136.258 171.002 137.152 174.718 137.312C178.433 137.472 181.504 136.832 181.544 135.885C181.584 134.938 178.593 134.049 174.878 133.889C171.162 133.729 168.109 134.369 168.051 135.312Z" fill="#8807F7"/>
<path d="M168.123 133.602L168.051 135.312L181.559 135.885L181.631 134.175L168.123 133.602Z" fill="#8807F7"/>
<path d="M168.114 133.6C168.074 134.547 171.065 135.44 174.78 135.6C178.496 135.76 181.567 135.12 181.607 134.173C181.647 133.227 178.656 132.338 174.94 132.178C171.225 132.018 168.167 132.658 168.114 133.6Z" fill="#8807F7"/>
<path opacity="0.4" d="M168.114 133.6C168.074 134.547 171.065 135.44 174.78 135.6C178.496 135.76 181.567 135.12 181.607 134.173C181.647 133.227 178.656 132.338 174.94 132.178C171.225 132.018 168.167 132.658 168.114 133.6Z" fill="white"/>
<path d="M169.004 133.573C169.004 133.635 169.024 133.694 169.062 133.742C169.506 133.187 171.982 132.853 174.933 132.987C177.884 133.12 180.324 133.645 180.711 134.236C180.733 134.214 180.75 134.189 180.763 134.161C180.775 134.132 180.781 134.102 180.782 134.071C180.808 133.436 178.195 132.791 174.937 132.653C171.679 132.516 169.004 132.934 169.004 133.573Z" fill="#8807F7"/>
<path opacity="0.4" d="M169.004 133.573C169.004 133.635 169.024 133.694 169.062 133.742C169.506 133.187 171.982 132.853 174.933 132.987C177.884 133.12 180.324 133.645 180.711 134.236C180.733 134.214 180.75 134.189 180.763 134.161C180.775 134.132 180.781 134.102 180.782 134.071C180.808 133.436 178.195 132.791 174.937 132.653C171.679 132.516 169.004 132.934 169.004 133.573Z" fill="#8807F7"/>
<path opacity="0.4" d="M169.066 133.743C169.471 134.334 171.902 134.867 174.844 134.992C177.786 135.116 180.271 134.792 180.715 134.236C180.32 133.645 177.889 133.112 174.938 132.987C171.986 132.863 169.52 133.187 169.066 133.743Z" fill="#8807F7"/>
<path d="M166.645 132.725C166.605 133.667 169.596 134.56 173.312 134.72C177.027 134.88 180.094 134.24 180.138 133.298C180.183 132.356 177.187 131.458 173.472 131.298C169.756 131.138 166.685 131.778 166.645 132.725Z" fill="#8807F7"/>
<path d="M166.717 131.007L166.645 132.717L180.152 133.29L180.225 131.58L166.717 131.007Z" fill="#8807F7"/>
<path d="M166.715 131.014C166.675 131.956 169.666 132.849 173.382 133.009C177.097 133.169 180.169 132.529 180.209 131.587C180.249 130.645 177.257 129.747 173.542 129.587C169.826 129.427 166.755 130.067 166.715 131.014Z" fill="#8807F7"/>
<path opacity="0.4" d="M166.715 131.014C166.675 131.956 169.666 132.849 173.382 133.009C177.097 133.169 180.169 132.529 180.209 131.587C180.249 130.645 177.257 129.747 173.542 129.587C169.826 129.427 166.755 130.067 166.715 131.014Z" fill="white"/>
<path d="M167.567 130.982C167.564 131.044 167.585 131.104 167.624 131.151C168.069 130.596 170.544 130.262 173.496 130.396C176.447 130.529 178.887 131.053 179.273 131.644C179.314 131.6 179.339 131.544 179.344 131.484C179.371 130.844 176.758 130.2 173.5 130.062C170.242 129.924 167.593 130.342 167.567 130.982Z" fill="#8807F7"/>
<path opacity="0.4" d="M167.567 130.982C167.564 131.044 167.585 131.104 167.624 131.151C168.069 130.596 170.544 130.262 173.496 130.396C176.447 130.529 178.887 131.053 179.273 131.644C179.314 131.6 179.339 131.544 179.344 131.484C179.371 130.844 176.758 130.2 173.5 130.062C170.242 129.924 167.593 130.342 167.567 130.982Z" fill="#8807F7"/>
<path opacity="0.4" d="M167.613 131.151C168.013 131.743 170.449 132.276 173.391 132.4C176.333 132.525 178.818 132.2 179.262 131.645C178.867 131.054 176.435 130.52 173.484 130.396C170.533 130.271 168.062 130.605 167.613 131.151Z" fill="#8807F7"/>
<path d="M181.558 130.885C181.598 131.827 178.607 132.725 174.892 132.88C171.176 133.036 168.114 132.382 168.052 131.458C167.99 130.533 170.998 129.618 174.718 129.458C178.438 129.298 181.514 129.938 181.558 130.885Z" fill="#8807F7"/>
<path d="M181.172 129.619L167.652 130.16L167.721 131.871L181.241 131.33L181.172 129.619Z" fill="#8807F7"/>
<path d="M181.466 129.174C181.506 130.116 178.515 131.014 174.8 131.169C171.084 131.325 168.013 130.694 167.973 129.747C167.933 128.8 170.924 127.907 174.64 127.747C178.355 127.587 181.431 128.227 181.466 129.174Z" fill="#8807F7"/>
<path opacity="0.4" d="M181.466 129.174C181.506 130.116 178.515 131.014 174.8 131.169C171.084 131.325 168.013 130.694 167.973 129.747C167.933 128.8 170.924 127.907 174.64 127.747C178.355 127.587 181.431 128.227 181.466 129.174Z" fill="white"/>
<path d="M180.618 129.142C180.621 129.204 180.601 129.265 180.56 129.311C180.116 128.756 177.64 128.422 174.689 128.556C171.738 128.689 169.298 129.213 168.911 129.809C168.871 129.763 168.847 129.705 168.84 129.645C168.813 129.005 171.427 128.365 174.684 128.227C177.942 128.089 180.591 128.502 180.618 129.142Z" fill="#8807F7"/>
<path opacity="0.4" d="M180.618 129.142C180.621 129.204 180.601 129.265 180.56 129.311C180.116 128.756 177.64 128.422 174.689 128.556C171.738 128.689 169.298 129.213 168.911 129.809C168.871 129.763 168.847 129.705 168.84 129.645C168.813 129.005 171.427 128.365 174.684 128.227C177.942 128.089 180.591 128.502 180.618 129.142Z" fill="#8807F7"/>
<path opacity="0.4" d="M180.575 129.311C180.175 129.902 177.739 130.436 174.797 130.564C171.855 130.693 169.37 130.364 168.926 129.809C169.321 129.213 171.752 128.68 174.704 128.556C177.655 128.431 180.13 128.756 180.575 129.311Z" fill="#8807F7"/>
<path d="M182.966 128.294C183.006 129.24 180.015 130.134 176.3 130.289C172.584 130.445 169.513 129.814 169.473 128.867C169.433 127.92 172.424 127.027 176.14 126.871C179.855 126.716 182.926 127.347 182.966 128.294Z" fill="#8807F7"/>
<path d="M182.902 126.578L169.395 127.152L169.467 128.861L182.975 128.288L182.902 126.578Z" fill="#8807F7"/>
<path d="M182.907 126.605C182.947 127.552 179.961 128.445 176.241 128.605C172.521 128.765 169.458 128.125 169.418 127.178C169.378 126.232 172.365 125.338 176.085 125.183C179.805 125.027 182.867 125.636 182.907 126.605Z" fill="#8807F7"/>
<path opacity="0.4" d="M182.907 126.605C182.947 127.552 179.961 128.445 176.241 128.605C172.521 128.765 169.458 128.125 169.418 127.178C169.378 126.232 172.365 125.338 176.085 125.183C179.805 125.027 182.867 125.636 182.907 126.605Z" fill="white"/>
<path d="M182.04 126.552C182.039 126.613 182.019 126.672 181.982 126.721C181.538 126.165 179.058 125.832 176.111 125.965C173.164 126.098 170.715 126.627 170.333 127.218C170.289 127.175 170.264 127.116 170.262 127.054C170.231 126.414 172.849 125.774 176.102 125.636C179.355 125.498 182.009 125.912 182.04 126.552Z" fill="#8807F7"/>
<path opacity="0.4" d="M182.04 126.552C182.039 126.613 182.019 126.672 181.982 126.721C181.538 126.165 179.058 125.832 176.111 125.965C173.164 126.098 170.715 126.627 170.333 127.218C170.289 127.175 170.264 127.116 170.262 127.054C170.231 126.414 172.849 125.774 176.102 125.636C179.355 125.498 182.009 125.912 182.04 126.552Z" fill="#8807F7"/>
<path opacity="0.4" d="M181.973 126.72C181.569 127.311 179.138 127.849 176.195 127.973C173.253 128.098 170.764 127.773 170.324 127.218C170.715 126.627 173.151 126.089 176.102 125.964C179.053 125.84 181.52 126.16 181.973 126.72Z" fill="#8807F7"/>
<path d="M182.767 125.174C182.807 126.116 179.82 127.014 176.1 127.169C172.38 127.325 169.318 126.694 169.278 125.747C169.238 124.8 172.224 123.907 175.944 123.747C179.664 123.587 182.735 124.227 182.767 125.174Z" fill="#8807F7"/>
<path d="M182.707 123.464L169.199 124.037L169.272 125.747L182.78 125.174L182.707 123.464Z" fill="#8807F7"/>
<path d="M182.693 123.463C182.733 124.41 179.742 125.303 176.026 125.458C172.311 125.614 169.24 124.983 169.2 124.036C169.16 123.09 172.151 122.196 175.866 122.041C179.582 121.885 182.653 122.516 182.693 123.463Z" fill="#8807F7"/>
<path opacity="0.4" d="M182.693 123.463C182.733 124.41 179.742 125.303 176.026 125.458C172.311 125.614 169.24 124.983 169.2 124.036C169.16 123.09 172.151 122.196 175.866 122.041C179.582 121.885 182.653 122.516 182.693 123.463Z" fill="white"/>
<path d="M181.844 123.431C181.848 123.493 181.827 123.554 181.787 123.6C181.342 123.045 178.867 122.711 175.915 122.845C172.964 122.978 170.524 123.507 170.138 124.098C170.098 124.052 170.073 123.994 170.067 123.934C170.04 123.294 172.653 122.654 175.911 122.516C179.169 122.378 181.818 122.791 181.844 123.431Z" fill="#8807F7"/>
<path opacity="0.4" d="M181.844 123.431C181.848 123.493 181.827 123.554 181.787 123.6C181.342 123.045 178.867 122.711 175.915 122.845C172.964 122.978 170.524 123.507 170.138 124.098C170.098 124.052 170.073 123.994 170.067 123.934C170.04 123.294 172.653 122.654 175.911 122.516C179.169 122.378 181.818 122.791 181.844 123.431Z" fill="#8807F7"/>
<path opacity="0.4" d="M181.786 123.601C181.386 124.192 178.95 124.73 176.008 124.854C173.066 124.978 170.581 124.654 170.137 124.098C170.532 123.507 172.963 122.97 175.914 122.845C178.866 122.721 181.337 123.05 181.786 123.601Z" fill="#8807F7"/>
<path d="M184.209 122.605C184.249 123.551 181.257 124.445 177.542 124.605C173.826 124.765 170.755 124.125 170.715 123.178C170.675 122.231 173.666 121.338 177.382 121.182C181.097 121.027 184.169 121.636 184.209 122.605Z" fill="#8807F7"/>
<path d="M184.129 120.878L170.621 121.451L170.694 123.16L184.201 122.587L184.129 120.878Z" fill="#8807F7"/>
<path d="M184.123 120.872C184.163 121.818 181.171 122.712 177.456 122.872C173.74 123.032 170.669 122.392 170.629 121.445C170.589 120.498 173.58 119.605 177.296 119.45C181.012 119.294 184.1 119.938 184.123 120.872Z" fill="#8807F7"/>
<path opacity="0.4" d="M184.123 120.872C184.163 121.818 181.171 122.712 177.456 122.872C173.74 123.032 170.669 122.392 170.629 121.445C170.589 120.498 173.58 119.605 177.296 119.45C181.012 119.294 184.1 119.938 184.123 120.872Z" fill="white"/>
<path d="M183.263 120.827C183.261 120.887 183.241 120.944 183.205 120.992C182.761 120.436 180.281 120.103 177.334 120.236C174.387 120.369 171.938 120.898 171.556 121.489C171.513 121.445 171.486 121.387 171.481 121.325C171.454 120.685 174.067 120.045 177.325 119.907C180.583 119.769 183.232 120.205 183.263 120.827Z" fill="#8807F7"/>
<path opacity="0.4" d="M183.263 120.827C183.261 120.887 183.241 120.944 183.205 120.992C182.761 120.436 180.281 120.103 177.334 120.236C174.387 120.369 171.938 120.898 171.556 121.489C171.513 121.445 171.486 121.387 171.481 121.325C171.454 120.685 174.067 120.045 177.325 119.907C180.583 119.769 183.232 120.205 183.263 120.827Z" fill="#8807F7"/>
<path opacity="0.4" d="M183.215 121.01C182.811 121.605 180.38 122.138 177.438 122.263C174.495 122.387 172.006 122.063 171.566 121.507C171.958 120.916 174.393 120.378 177.344 120.254C180.295 120.13 182.771 120.454 183.215 121.01Z" fill="#8807F7"/>
<path d="M182.027 120.383C182.067 121.33 179.076 122.223 175.361 122.383C171.645 122.543 168.543 121.907 168.543 120.961C168.543 120.014 171.494 119.121 175.21 118.965C178.925 118.81 181.987 119.445 182.027 120.383Z" fill="#8807F7"/>
<path d="M181.965 118.674L168.457 119.247L168.53 120.957L182.037 120.384L181.965 118.674Z" fill="#8807F7"/>
<path d="M181.951 118.676C181.991 119.622 179 120.516 175.284 120.676C171.569 120.836 168.497 120.196 168.457 119.249C168.417 118.302 171.409 117.409 175.124 117.253C178.84 117.098 181.911 117.716 181.951 118.676Z" fill="#8807F7"/>
<path opacity="0.4" d="M181.951 118.676C181.991 119.622 179 120.516 175.284 120.676C171.569 120.836 168.497 120.196 168.457 119.249C168.417 118.302 171.409 117.409 175.124 117.253C178.84 117.098 181.911 117.716 181.951 118.676Z" fill="white"/>
<path d="M181.102 118.649C181.105 118.709 181.084 118.768 181.044 118.814C180.6 118.258 178.124 117.925 175.173 118.058C172.222 118.191 169.782 118.72 169.396 119.311C169.353 119.267 169.328 119.208 169.324 119.147C169.298 118.507 171.911 117.867 175.169 117.729C178.427 117.591 181.076 118.009 181.102 118.649Z" fill="#8807F7"/>
<path opacity="0.4" d="M181.102 118.649C181.105 118.709 181.084 118.768 181.044 118.814C180.6 118.258 178.124 117.925 175.173 118.058C172.222 118.191 169.782 118.72 169.396 119.311C169.353 119.267 169.328 119.208 169.324 119.147C169.298 118.507 171.911 117.867 175.169 117.729C178.427 117.591 181.076 118.009 181.102 118.649Z" fill="#8807F7"/>
<path opacity="0.4" d="M181.043 118.813C180.639 119.409 178.208 119.942 175.266 120.067C172.323 120.191 169.839 119.867 169.395 119.311C169.79 118.72 172.221 118.187 175.172 118.058C178.123 117.929 180.59 118.258 181.043 118.813Z" fill="#8807F7"/>
<path d="M183.454 117.796C183.494 118.743 180.503 119.636 176.787 119.796C173.072 119.956 170.005 119.316 169.965 118.369C169.925 117.423 172.912 116.529 176.632 116.374C180.352 116.218 183.41 116.854 183.454 117.796Z" fill="#8807F7"/>
<path d="M183.395 116.092L169.887 116.665L169.959 118.374L183.467 117.801L183.395 116.092Z" fill="#8807F7"/>
<path d="M183.38 116.085C183.42 117.032 180.429 117.925 176.714 118.085C172.998 118.245 169.927 117.605 169.887 116.658C169.847 115.712 172.838 114.823 176.554 114.663C180.269 114.503 183.34 115.143 183.38 116.085Z" fill="#8807F7"/>
<path opacity="0.4" d="M183.38 116.085C183.42 117.032 180.429 117.925 176.714 118.085C172.998 118.245 169.927 117.605 169.887 116.658C169.847 115.712 172.838 114.823 176.554 114.663C180.269 114.503 183.34 115.143 183.38 116.085Z" fill="white"/>
<path d="M182.516 116.058C182.518 116.12 182.498 116.18 182.458 116.227C182.014 115.672 179.538 115.338 176.587 115.467C173.636 115.596 171.196 116.129 170.81 116.72C170.769 116.675 170.744 116.617 170.738 116.556C170.712 115.916 173.325 115.276 176.583 115.138C179.841 115 182.49 115.418 182.516 116.058Z" fill="#8807F7"/>
<path opacity="0.4" d="M182.516 116.058C182.518 116.12 182.498 116.18 182.458 116.227C182.014 115.672 179.538 115.338 176.587 115.467C173.636 115.596 171.196 116.129 170.81 116.72C170.769 116.675 170.744 116.617 170.738 116.556C170.712 115.916 173.325 115.276 176.583 115.138C179.841 115 182.49 115.418 182.516 116.058Z" fill="#8807F7"/>
<path opacity="0.4" d="M182.465 116.227C182.065 116.818 179.63 117.351 176.688 117.476C173.745 117.6 171.261 117.276 170.816 116.72C171.212 116.129 173.643 115.596 176.594 115.467C179.545 115.338 182.016 115.671 182.465 116.227Z" fill="#8807F7"/>
<path d="M177.824 115.86C180.973 114.679 182.568 111.17 181.388 108.021C180.207 104.872 176.698 103.276 173.549 104.457C170.4 105.637 168.805 109.147 169.985 112.296C171.165 115.444 174.675 117.04 177.824 115.86Z" fill="#8807F7"/>
<path d="M180.982 114.405C183.161 111.844 182.852 108.001 180.291 105.822C177.73 103.642 173.888 103.951 171.708 106.512C169.529 109.073 169.838 112.916 172.399 115.096C174.96 117.275 178.802 116.966 180.982 114.405Z" fill="#8807F7"/>
<path opacity="0.4" d="M180.982 114.405C183.161 111.844 182.852 108.001 180.291 105.822C177.73 103.642 173.888 103.951 171.708 106.512C169.529 109.073 169.838 112.916 172.399 115.096C174.96 117.275 178.802 116.966 180.982 114.405Z" fill="white"/>
<path d="M180.51 112.334C180.137 113.154 179.529 113.845 178.763 114.319C177.997 114.793 177.108 115.03 176.208 114.999C175.307 114.968 174.437 114.671 173.705 114.145C172.974 113.619 172.415 112.889 172.098 112.045C171.782 111.202 171.723 110.283 171.929 109.406C172.135 108.529 172.596 107.733 173.254 107.118C173.912 106.503 174.738 106.097 175.627 105.951C176.516 105.805 177.428 105.926 178.248 106.298C179.348 106.799 180.204 107.716 180.628 108.848C181.052 109.98 181.01 111.233 180.51 112.334Z" fill="#8807F7"/>
<path d="M233.752 144.925C233.614 145.48 231.73 145.485 229.543 144.925C227.357 144.365 225.694 143.48 225.832 142.929C225.97 142.378 227.859 142.369 230.046 142.929C232.232 143.489 233.886 144.383 233.752 144.925Z" fill="#8807F7"/>
<path d="M226.091 141.942L225.84 142.946L233.76 144.93L234.011 143.925L226.091 141.942Z" fill="#8807F7"/>
<path d="M233.994 143.938C233.852 144.494 231.968 144.498 229.781 143.938C227.594 143.378 225.937 142.498 226.074 141.943C226.212 141.387 228.097 141.383 230.283 141.943C232.47 142.503 234.132 143.369 233.994 143.938Z" fill="#8807F7"/>
<path opacity="0.4" d="M233.994 143.938C233.852 144.494 231.968 144.498 229.781 143.938C227.594 143.378 225.937 142.498 226.074 141.943C226.212 141.387 228.097 141.383 230.283 141.943C232.47 142.503 234.132 143.369 233.994 143.938Z" fill="white"/>
<path d="M233.504 143.756C233.5 143.774 233.493 143.792 233.482 143.807C233.472 143.822 233.458 143.835 233.442 143.845C233.278 143.445 231.904 142.832 230.175 142.401C228.446 141.969 226.94 141.858 226.62 142.134C226.611 142.099 226.611 142.062 226.62 142.027C226.718 141.649 228.34 141.729 230.251 142.205C232.162 142.681 233.602 143.383 233.504 143.756Z" fill="#8807F7"/>
<path opacity="0.4" d="M233.504 143.756C233.5 143.774 233.493 143.792 233.482 143.807C233.472 143.822 233.458 143.835 233.442 143.845C233.278 143.445 231.904 142.832 230.175 142.401C228.446 141.969 226.94 141.858 226.62 142.134C226.611 142.099 226.611 142.062 226.62 142.027C226.718 141.649 228.34 141.729 230.251 142.205C232.162 142.681 233.602 143.383 233.504 143.756Z" fill="#8807F7"/>
<path opacity="0.4" d="M233.432 143.845C233.099 144.116 231.601 144.009 229.877 143.578C228.152 143.147 226.765 142.529 226.605 142.134C226.939 141.858 228.437 141.965 230.161 142.4C231.885 142.836 233.272 143.445 233.432 143.845Z" fill="#8807F7"/>
<path d="M237.535 146.746C237.561 147.315 235.757 147.858 233.499 147.951C231.241 148.044 229.401 147.662 229.379 147.093C229.357 146.524 231.157 145.982 233.415 145.884C235.672 145.786 237.512 146.16 237.535 146.746Z" fill="#8807F7"/>
<path d="M237.497 145.722L229.34 146.068L229.384 147.102L237.541 146.756L237.497 145.722Z" fill="#8807F7"/>
<path d="M237.519 145.716C237.546 146.289 235.741 146.827 233.488 146.925C231.235 147.022 229.39 146.636 229.364 146.062C229.337 145.489 231.141 144.951 233.399 144.858C235.657 144.765 237.497 145.142 237.519 145.716Z" fill="#8807F7"/>
<path opacity="0.4" d="M237.519 145.716C237.546 146.289 235.741 146.827 233.488 146.925C231.235 147.022 229.39 146.636 229.364 146.062C229.337 145.489 231.141 144.951 233.399 144.858C235.657 144.765 237.497 145.142 237.519 145.716Z" fill="white"/>
<path d="M236.992 145.716C236.994 145.734 236.992 145.753 236.986 145.771C236.979 145.789 236.97 145.805 236.957 145.818C236.685 145.485 235.179 145.285 233.401 145.374C231.623 145.463 230.143 145.774 229.903 146.129C229.879 146.102 229.864 146.068 229.863 146.031C229.863 145.645 231.423 145.258 233.392 145.174C235.361 145.089 236.992 145.307 236.992 145.716Z" fill="#8807F7"/>
<path opacity="0.4" d="M236.992 145.716C236.994 145.734 236.992 145.753 236.986 145.771C236.979 145.789 236.97 145.805 236.957 145.818C236.685 145.485 235.179 145.285 233.401 145.374C231.623 145.463 230.143 145.774 229.903 146.129C229.879 146.102 229.864 146.068 229.863 146.031C229.863 145.645 231.423 145.258 233.392 145.174C235.361 145.089 236.992 145.307 236.992 145.716Z" fill="#8807F7"/>
<path opacity="0.4" d="M236.951 145.796C236.711 146.151 235.24 146.476 233.458 146.551C231.676 146.627 230.182 146.431 229.902 146.107C230.142 145.751 231.613 145.427 233.4 145.351C235.187 145.276 236.68 145.463 236.951 145.796Z" fill="#8807F7"/>
<path d="M233.268 144.71C235.113 141.899 234.33 138.124 231.519 136.279C228.707 134.433 224.933 135.216 223.087 138.028C221.242 140.839 222.025 144.614 224.836 146.459C227.648 148.304 231.423 147.521 233.268 144.71Z" fill="#8807F7"/>
<path d="M233.271 145.929C232.47 146.828 231.42 147.469 230.254 147.772C229.089 148.074 227.859 148.024 226.722 147.628C225.585 147.231 224.591 146.507 223.865 145.545C223.14 144.584 222.716 143.429 222.647 142.227C222.578 141.024 222.867 139.829 223.477 138.791C224.088 137.753 224.993 136.919 226.077 136.395C227.162 135.871 228.377 135.681 229.57 135.848C230.763 136.015 231.879 136.532 232.778 137.333C233.983 138.408 234.712 139.917 234.804 141.529C234.897 143.141 234.345 144.724 233.271 145.929Z" fill="#8807F7"/>
<path opacity="0.4" d="M233.271 145.929C232.47 146.828 231.42 147.469 230.254 147.772C229.089 148.074 227.859 148.024 226.722 147.628C225.585 147.231 224.591 146.507 223.865 145.545C223.14 144.584 222.716 143.429 222.647 142.227C222.578 141.024 222.867 139.829 223.477 138.791C224.088 137.753 224.993 136.919 226.077 136.395C227.162 135.871 228.377 135.681 229.57 135.848C230.763 136.015 231.879 136.532 232.778 137.333C233.983 138.408 234.712 139.917 234.804 141.529C234.897 143.141 234.345 144.724 233.271 145.929Z" fill="white"/>
<path d="M232.125 144.911C231.525 145.585 230.739 146.065 229.866 146.292C228.992 146.518 228.072 146.481 227.22 146.184C226.368 145.887 225.623 145.345 225.08 144.625C224.537 143.905 224.219 143.04 224.168 142.139C224.116 141.238 224.333 140.343 224.79 139.565C225.248 138.788 225.925 138.164 226.738 137.772C227.55 137.379 228.46 137.237 229.354 137.362C230.247 137.488 231.083 137.875 231.756 138.476C232.203 138.874 232.567 139.356 232.828 139.895C233.089 140.434 233.24 141.019 233.275 141.617C233.309 142.215 233.225 142.813 233.028 143.379C232.83 143.944 232.524 144.465 232.125 144.911Z" fill="#8807F7"/>
<path d="M153.34 147.311C153.318 147.88 155.118 148.423 157.376 148.516C159.633 148.609 161.473 148.227 161.496 147.658C161.518 147.089 159.718 146.547 157.464 146.449C155.211 146.351 153.367 146.738 153.34 147.311Z" fill="#8807F7"/>
<path d="M153.407 146.28L153.363 147.315L161.52 147.661L161.564 146.627L153.407 146.28Z" fill="#8807F7"/>
<path d="M153.371 146.275C153.345 146.849 155.149 147.387 157.407 147.484C159.665 147.582 161.505 147.195 161.527 146.622C161.549 146.049 159.749 145.511 157.491 145.418C155.234 145.324 153.394 145.716 153.371 146.275Z" fill="#8807F7"/>
<path opacity="0.4" d="M153.371 146.275C153.345 146.849 155.149 147.387 157.407 147.484C159.665 147.582 161.505 147.195 161.527 146.622C161.549 146.049 159.749 145.511 157.491 145.418C155.234 145.324 153.394 145.716 153.371 146.275Z" fill="white"/>
<path d="M153.91 146.258C153.91 146.295 153.923 146.331 153.946 146.36C154.217 146.027 155.723 145.827 157.501 145.916C159.279 146.005 160.755 146.316 160.995 146.676C161.02 146.647 161.036 146.612 161.039 146.574C161.039 146.187 159.475 145.8 157.51 145.72C155.546 145.64 153.928 145.871 153.91 146.258Z" fill="#8807F7"/>
<path opacity="0.4" d="M153.91 146.258C153.91 146.295 153.923 146.331 153.946 146.36C154.217 146.027 155.723 145.827 157.501 145.916C159.279 146.005 160.755 146.316 160.995 146.676C161.02 146.647 161.036 146.612 161.039 146.574C161.039 146.187 159.475 145.8 157.51 145.72C155.546 145.64 153.928 145.871 153.91 146.258Z" fill="#8807F7"/>
<path opacity="0.4" d="M153.949 146.36C154.194 146.72 155.66 147.04 157.443 147.116C159.225 147.191 160.723 146.996 160.998 146.671C160.758 146.311 159.291 145.991 157.505 145.911C155.718 145.831 154.22 146.027 153.949 146.36Z" fill="#8807F7"/>
<path d="M152.48 145.747C152.48 146.316 154.258 146.858 156.516 146.952C158.774 147.045 160.614 146.663 160.636 146.094C160.658 145.525 158.858 144.983 156.605 144.885C154.352 144.787 152.507 145.178 152.48 145.747Z" fill="#8807F7"/>
<path d="M152.524 144.702L152.48 145.737L160.638 146.083L160.681 145.048L152.524 144.702Z" fill="#8807F7"/>
<path d="M152.543 144.711C152.543 145.285 154.321 145.823 156.579 145.92C158.836 146.018 160.676 145.631 160.699 145.058C160.721 144.485 158.921 143.947 156.667 143.854C154.414 143.76 152.543 144.143 152.543 144.711Z" fill="#8807F7"/>
<path opacity="0.4" d="M152.543 144.711C152.543 145.285 154.321 145.823 156.579 145.92C158.836 146.018 160.676 145.631 160.699 145.058C160.721 144.485 158.921 143.947 156.667 143.854C154.414 143.76 152.543 144.143 152.543 144.711Z" fill="white"/>
<path d="M153.035 144.694C153.035 144.731 153.048 144.767 153.071 144.796C153.342 144.463 154.848 144.267 156.626 144.351C158.404 144.436 159.88 144.747 160.12 145.107C160.145 145.079 160.161 145.043 160.164 145.005C160.164 144.623 158.6 144.231 156.635 144.151C154.671 144.071 153.053 144.307 153.035 144.694Z" fill="#8807F7"/>
<path opacity="0.4" d="M153.035 144.694C153.035 144.731 153.048 144.767 153.071 144.796C153.342 144.463 154.848 144.267 156.626 144.351C158.404 144.436 159.88 144.747 160.12 145.107C160.145 145.079 160.161 145.043 160.164 145.005C160.164 144.623 158.6 144.231 156.635 144.151C154.671 144.071 153.053 144.307 153.035 144.694Z" fill="#8807F7"/>
<path opacity="0.4" d="M153.082 144.796C153.326 145.156 154.793 145.476 156.575 145.551C158.358 145.627 159.855 145.431 160.131 145.107C159.891 144.747 158.424 144.427 156.638 144.351C154.851 144.276 153.353 144.462 153.082 144.796Z" fill="#8807F7"/>
<path d="M152.59 143.863C152.59 144.432 154.368 144.974 156.625 145.067C158.883 145.16 160.723 144.778 160.745 144.209C160.768 143.64 158.968 143.098 156.714 143C154.461 142.903 152.617 143.294 152.59 143.863Z" fill="#8807F7"/>
<path d="M152.634 142.818L152.59 143.853L160.747 144.199L160.791 143.164L152.634 142.818Z" fill="#8807F7"/>
<path d="M152.629 142.827C152.629 143.4 154.407 143.938 156.664 144.036C158.922 144.133 160.762 143.747 160.784 143.173C160.807 142.6 159.007 142.062 156.753 141.969C154.5 141.876 152.656 142.258 152.629 142.827Z" fill="#8807F7"/>
<path opacity="0.4" d="M152.629 142.827C152.629 143.4 154.407 143.938 156.664 144.036C158.922 144.133 160.762 143.747 160.784 143.173C160.807 142.6 159.007 142.062 156.753 141.969C154.5 141.876 152.656 142.258 152.629 142.827Z" fill="white"/>
<path d="M153.16 142.809C153.16 142.846 153.173 142.882 153.196 142.911C153.467 142.578 154.973 142.382 156.751 142.467C158.529 142.551 160.005 142.862 160.245 143.222C160.27 143.194 160.286 143.158 160.289 143.12C160.289 142.738 158.725 142.347 156.76 142.267C154.796 142.187 153.178 142.427 153.16 142.809Z" fill="#8807F7"/>
<path opacity="0.4" d="M153.16 142.809C153.16 142.846 153.173 142.882 153.196 142.911C153.467 142.578 154.973 142.382 156.751 142.467C158.529 142.551 160.005 142.862 160.245 143.222C160.27 143.194 160.286 143.158 160.289 143.12C160.289 142.738 158.725 142.347 156.76 142.267C154.796 142.187 153.178 142.427 153.16 142.809Z" fill="#8807F7"/>
<path opacity="0.4" d="M153.199 142.911C153.444 143.271 154.91 143.591 156.693 143.667C158.475 143.742 159.973 143.547 160.248 143.222C160.008 142.862 158.541 142.542 156.755 142.467C154.968 142.391 153.47 142.578 153.199 142.911Z" fill="#8807F7"/>
<path d="M151.746 142.298C151.746 142.867 153.524 143.409 155.782 143.502C158.039 143.596 159.879 143.213 159.906 142.644C159.933 142.076 158.128 141.533 155.871 141.436C153.613 141.338 151.773 141.716 151.746 142.298Z" fill="#8807F7"/>
<path d="M151.79 141.258L151.746 142.292L159.903 142.638L159.947 141.604L151.79 141.258Z" fill="#8807F7"/>
<path d="M151.778 141.271C151.755 141.845 153.555 142.383 155.813 142.48C158.071 142.578 159.911 142.191 159.933 141.618C159.955 141.045 158.155 140.511 155.902 140.414C153.649 140.316 151.804 140.694 151.778 141.271Z" fill="#8807F7"/>
<path opacity="0.4" d="M151.778 141.271C151.755 141.845 153.555 142.383 155.813 142.48C158.071 142.578 159.911 142.191 159.933 141.618C159.955 141.045 158.155 140.511 155.902 140.414C153.649 140.316 151.804 140.694 151.778 141.271Z" fill="white"/>
<path d="M152.293 141.245C152.293 141.282 152.306 141.318 152.329 141.347C152.604 141.014 154.106 140.818 155.884 140.903C157.662 140.987 159.142 141.298 159.377 141.658C159.404 141.632 159.419 141.597 159.422 141.56C159.422 141.174 157.857 140.783 155.893 140.703C153.929 140.623 152.311 140.863 152.293 141.245Z" fill="#8807F7"/>
<path opacity="0.4" d="M152.293 141.245C152.293 141.282 152.306 141.318 152.329 141.347C152.604 141.014 154.106 140.818 155.884 140.903C157.662 140.987 159.142 141.298 159.377 141.658C159.404 141.632 159.419 141.597 159.422 141.56C159.422 141.174 157.857 140.783 155.893 140.703C153.929 140.623 152.311 140.863 152.293 141.245Z" fill="#8807F7"/>
<path opacity="0.4" d="M152.332 141.347C152.576 141.707 154.043 142.027 155.825 142.102C157.608 142.178 159.105 141.982 159.381 141.658C159.145 141.298 157.674 140.978 155.888 140.902C154.101 140.827 152.608 141.014 152.332 141.347Z" fill="#8807F7"/>
<path d="M153.035 140.974C153.009 141.543 154.813 142.085 157.071 142.178C159.329 142.272 161.169 141.889 161.191 141.32C161.213 140.752 159.413 140.209 157.155 140.112C154.898 140.014 153.058 140.383 153.035 140.974Z" fill="#8807F7"/>
<path d="M153.079 139.927L153.035 140.962L161.192 141.308L161.236 140.273L153.079 139.927Z" fill="#8807F7"/>
<path d="M153.082 139.938C153.056 140.511 154.86 141.049 157.113 141.147C159.367 141.244 161.211 140.858 161.238 140.284C161.265 139.711 159.46 139.173 157.202 139.08C154.945 138.987 153.105 139.369 153.082 139.938Z" fill="#8807F7"/>
<path opacity="0.4" d="M153.082 139.938C153.056 140.511 154.86 141.049 157.113 141.147C159.367 141.244 161.211 140.858 161.238 140.284C161.265 139.711 159.46 139.173 157.202 139.08C154.945 138.987 153.105 139.369 153.082 139.938Z" fill="white"/>
<path d="M153.614 139.938C153.612 139.956 153.614 139.975 153.62 139.993C153.627 140.01 153.636 140.026 153.649 140.04C153.921 139.707 155.427 139.507 157.205 139.595C158.983 139.684 160.463 139.995 160.703 140.351C160.727 140.324 160.742 140.29 160.743 140.253C160.743 139.867 159.183 139.48 157.214 139.395C155.245 139.311 153.627 139.533 153.614 139.938Z" fill="#8807F7"/>
<path opacity="0.4" d="M153.614 139.938C153.612 139.956 153.614 139.975 153.62 139.993C153.627 140.01 153.636 140.026 153.649 140.04C153.921 139.707 155.427 139.507 157.205 139.595C158.983 139.684 160.463 139.995 160.703 140.351C160.727 140.324 160.742 140.29 160.743 140.253C160.743 139.867 159.183 139.48 157.214 139.395C155.245 139.311 153.627 139.533 153.614 139.938Z" fill="#8807F7"/>
<path opacity="0.4" d="M153.629 140.022C153.869 140.378 155.34 140.702 157.122 140.778C158.904 140.854 160.398 140.658 160.678 140.334C160.438 139.978 158.967 139.654 157.18 139.578C155.393 139.502 153.9 139.689 153.629 140.022Z" fill="#8807F7"/>
<path d="M147.285 147.218C147.423 147.774 149.312 147.778 151.499 147.218C153.685 146.658 155.343 145.778 155.205 145.223C155.068 144.667 153.183 144.663 150.996 145.223C148.81 145.783 147.148 146.667 147.285 147.218Z" fill="#8807F7"/>
<path d="M154.963 144.231L147.043 146.214L147.295 147.219L155.214 145.235L154.963 144.231Z" fill="#8807F7"/>
<path d="M147.051 146.218C147.189 146.769 149.074 146.778 151.26 146.218C153.447 145.658 155.109 144.778 154.967 144.227C154.825 143.676 152.945 143.667 150.758 144.227C148.571 144.787 146.909 145.663 147.051 146.218Z" fill="#8807F7"/>
<path opacity="0.4" d="M147.051 146.218C147.189 146.769 149.074 146.778 151.26 146.218C153.447 145.658 155.109 144.778 154.967 144.227C154.825 143.676 152.945 143.667 150.758 144.227C148.571 144.787 146.909 145.663 147.051 146.218Z" fill="white"/>
<path d="M147.539 146.054C147.549 146.089 147.571 146.119 147.602 146.138C147.766 145.743 149.139 145.129 150.873 144.694C152.606 144.258 154.104 144.152 154.428 144.427C154.442 144.393 154.442 144.355 154.428 144.32C154.335 143.947 152.708 144.023 150.802 144.503C148.895 144.983 147.446 145.676 147.539 146.054Z" fill="#8807F7"/>
<path opacity="0.4" d="M147.539 146.054C147.549 146.089 147.571 146.119 147.602 146.138C147.766 145.743 149.139 145.129 150.873 144.694C152.606 144.258 154.104 144.152 154.428 144.427C154.442 144.393 154.442 144.355 154.428 144.32C154.335 143.947 152.708 144.023 150.802 144.503C148.895 144.983 147.446 145.676 147.539 146.054Z" fill="#8807F7"/>
<path opacity="0.4" d="M147.613 146.16C147.947 146.436 149.449 146.329 151.169 145.893C152.889 145.458 154.28 144.849 154.44 144.449C154.107 144.173 152.609 144.285 150.884 144.716C149.16 145.147 147.778 145.742 147.613 146.16Z" fill="#8807F7"/>
<path d="M143.512 147.311C143.512 147.88 145.289 148.423 147.547 148.516C149.805 148.609 151.645 148.227 151.667 147.658C151.689 147.089 149.889 146.547 147.636 146.449C145.383 146.351 143.538 146.738 143.512 147.311Z" fill="#8807F7"/>
<path d="M143.548 146.267L143.504 147.302L151.661 147.648L151.705 146.613L143.548 146.267Z" fill="#8807F7"/>
<path d="M143.559 146.275C143.537 146.849 145.337 147.387 147.594 147.484C149.852 147.582 151.692 147.195 151.714 146.622C151.737 146.049 149.937 145.511 147.683 145.418C145.43 145.324 143.585 145.716 143.559 146.275Z" fill="#8807F7"/>
<path opacity="0.4" d="M143.559 146.275C143.537 146.849 145.337 147.387 147.594 147.484C149.852 147.582 151.692 147.195 151.714 146.622C151.737 146.049 149.937 145.511 147.683 145.418C145.43 145.324 143.585 145.716 143.559 146.275Z" fill="white"/>
<path d="M144.098 146.258C144.098 146.295 144.11 146.331 144.133 146.36C144.404 146.027 145.911 145.827 147.689 145.916C149.467 146.005 150.942 146.316 151.182 146.676C151.207 146.647 151.223 146.612 151.227 146.574C151.227 146.187 149.662 145.8 147.698 145.72C145.733 145.64 144.124 145.871 144.098 146.258Z" fill="#8807F7"/>
<path opacity="0.4" d="M144.098 146.258C144.098 146.295 144.11 146.331 144.133 146.36C144.404 146.027 145.911 145.827 147.689 145.916C149.467 146.005 150.942 146.316 151.182 146.676C151.207 146.647 151.223 146.612 151.227 146.574C151.227 146.187 149.662 145.8 147.698 145.72C145.733 145.64 144.124 145.871 144.098 146.258Z" fill="#8807F7"/>
<path opacity="0.4" d="M144.113 146.36C144.358 146.72 145.824 147.04 147.607 147.116C149.389 147.191 150.887 146.996 151.162 146.671C150.922 146.311 149.455 145.991 147.669 145.911C145.882 145.831 144.393 146.027 144.113 146.36Z" fill="#8807F7"/>
<path d="M185.637 147.263C185.61 147.85 187.468 148.405 189.784 148.503C192.099 148.601 193.997 148.205 194.024 147.614C194.05 147.023 192.188 146.476 189.873 146.374C187.557 146.272 185.659 146.676 185.637 147.263Z" fill="#8807F7"/>
<path d="M185.682 146.187L185.637 147.248L194.025 147.604L194.07 146.543L185.682 146.187Z" fill="#8807F7"/>
<path d="M185.692 146.2C185.665 146.787 187.523 147.343 189.838 147.44C192.154 147.538 194.052 147.143 194.078 146.551C194.105 145.96 192.247 145.414 189.927 145.311C187.607 145.209 185.714 145.614 185.692 146.2Z" fill="#8807F7"/>
<path opacity="0.4" d="M185.692 146.2C185.665 146.787 187.523 147.343 189.838 147.44C192.154 147.538 194.052 147.143 194.078 146.551C194.105 145.96 192.247 145.414 189.927 145.311C187.607 145.209 185.714 145.614 185.692 146.2Z" fill="white"/>
<path d="M186.207 146.183C186.208 146.221 186.22 146.258 186.243 146.289C186.523 145.943 188.056 145.743 189.891 145.818C191.727 145.894 193.238 146.227 193.483 146.596C193.51 146.569 193.526 146.532 193.527 146.494C193.527 146.098 191.923 145.698 189.9 145.605C187.878 145.511 186.225 145.787 186.207 146.183Z" fill="#8807F7"/>
<path opacity="0.4" d="M186.207 146.183C186.208 146.221 186.22 146.258 186.243 146.289C186.523 145.943 188.056 145.743 189.891 145.818C191.727 145.894 193.238 146.227 193.483 146.596C193.51 146.569 193.526 146.532 193.527 146.494C193.527 146.098 191.923 145.698 189.9 145.605C187.878 145.511 186.225 145.787 186.207 146.183Z" fill="#8807F7"/>
<path opacity="0.4" d="M186.254 146.289C186.507 146.654 188.032 146.987 189.849 147.067C191.667 147.147 193.218 146.943 193.494 146.596C193.249 146.227 191.738 145.898 189.903 145.818C188.067 145.738 186.534 145.943 186.254 146.289Z" fill="#8807F7"/>
<path d="M184.754 145.654C184.732 146.241 186.59 146.796 188.905 146.898C191.221 147.001 193.119 146.601 193.141 146.01C193.163 145.418 191.31 144.867 188.994 144.765C186.679 144.663 184.781 145.067 184.754 145.654Z" fill="#8807F7"/>
<path d="M184.799 144.589L184.754 145.65L193.142 146.006L193.187 144.945L184.799 144.589Z" fill="#8807F7"/>
<path d="M184.793 144.591C184.767 145.178 186.624 145.734 188.94 145.836C191.255 145.938 193.153 145.538 193.18 144.947C193.207 144.356 191.344 143.805 189.029 143.703C186.713 143.6 184.815 144.005 184.793 144.591Z" fill="#8807F7"/>
<path opacity="0.4" d="M184.793 144.591C184.767 145.178 186.624 145.734 188.94 145.836C191.255 145.938 193.153 145.538 193.18 144.947C193.207 144.356 191.344 143.805 189.029 143.703C186.713 143.6 184.815 144.005 184.793 144.591Z" fill="white"/>
<path d="M185.348 144.573C185.349 144.612 185.361 144.649 185.383 144.68C185.663 144.333 187.197 144.133 189.028 144.209C190.859 144.285 192.379 144.618 192.623 144.987C192.649 144.958 192.664 144.923 192.668 144.885C192.668 144.489 191.059 144.089 189.037 143.996C187.014 143.902 185.365 144.178 185.348 144.573Z" fill="#8807F7"/>
<path opacity="0.4" d="M185.348 144.573C185.349 144.612 185.361 144.649 185.383 144.68C185.663 144.333 187.197 144.133 189.028 144.209C190.859 144.285 192.379 144.618 192.623 144.987C192.649 144.958 192.664 144.923 192.668 144.885C192.668 144.489 191.059 144.089 189.037 143.996C187.014 143.902 185.365 144.178 185.348 144.573Z" fill="#8807F7"/>
<path opacity="0.4" d="M185.371 144.68C185.62 145.045 187.149 145.378 188.962 145.458C190.776 145.538 192.336 145.333 192.611 144.987C192.367 144.618 190.856 144.289 189.016 144.209C187.176 144.129 185.651 144.333 185.371 144.68Z" fill="#8807F7"/>
<path d="M186.668 144.467C186.642 145.049 188.499 145.605 190.815 145.707C193.13 145.809 195.028 145.409 195.055 144.818C195.082 144.227 193.219 143.676 190.904 143.578C188.588 143.48 186.69 143.88 186.668 144.467Z" fill="#8807F7"/>
<path d="M186.69 143.393L186.645 144.454L195.033 144.81L195.078 143.749L186.69 143.393Z" fill="#8807F7"/>
<path d="M186.7 143.401C186.673 143.987 188.531 144.543 190.846 144.645C193.162 144.747 195.059 144.347 195.086 143.756C195.113 143.165 193.251 142.614 190.935 142.516C188.619 142.418 186.722 142.818 186.7 143.401Z" fill="#8807F7"/>
<path opacity="0.4" d="M186.7 143.401C186.673 143.987 188.531 144.543 190.846 144.645C193.162 144.747 195.059 144.347 195.086 143.756C195.113 143.165 193.251 142.614 190.935 142.516C188.619 142.418 186.722 142.818 186.7 143.401Z" fill="white"/>
<path d="M187.191 143.383C187.192 143.421 187.205 143.458 187.227 143.489C187.507 143.143 189.04 142.943 190.871 143.018C192.703 143.094 194.222 143.427 194.467 143.796C194.492 143.768 194.508 143.732 194.511 143.694C194.511 143.298 192.902 142.898 190.88 142.805C188.858 142.712 187.223 142.987 187.191 143.383Z" fill="#8807F7"/>
<path opacity="0.4" d="M187.191 143.383C187.192 143.421 187.205 143.458 187.227 143.489C187.507 143.143 189.04 142.943 190.871 143.018C192.703 143.094 194.222 143.427 194.467 143.796C194.492 143.768 194.508 143.732 194.511 143.694C194.511 143.298 192.902 142.898 190.88 142.805C188.858 142.712 187.223 142.987 187.191 143.383Z" fill="#8807F7"/>
<path opacity="0.4" d="M187.27 143.494C187.518 143.862 189.047 144.191 190.861 144.271C192.674 144.351 194.234 144.147 194.51 143.8C194.265 143.431 192.754 143.102 190.914 143.022C189.074 142.942 187.55 143.142 187.27 143.494Z" fill="#8807F7"/>
<path d="M186.684 142.858C186.657 143.444 188.515 144 190.831 144.098C193.146 144.196 195.044 143.8 195.071 143.209C195.097 142.618 193.235 142.067 190.919 141.969C188.604 141.871 186.706 142.271 186.684 142.858Z" fill="#8807F7"/>
<path d="M186.57 141.247L186.527 142.309L194.923 142.645L194.965 141.582L186.57 141.247Z" fill="#8807F7"/>
<path d="M186.723 141.796C186.696 142.383 188.554 142.938 190.87 143.036C193.185 143.134 195.083 142.738 195.11 142.147C195.136 141.556 193.274 141.005 190.958 140.907C188.643 140.81 186.745 141.21 186.723 141.796Z" fill="#8807F7"/>
<path opacity="0.4" d="M186.723 141.796C186.696 142.383 188.554 142.938 190.87 143.036C193.185 143.134 195.083 142.738 195.11 142.147C195.136 141.556 193.274 141.005 190.958 140.907C188.643 140.81 186.745 141.21 186.723 141.796Z" fill="white"/>
<path d="M187.246 141.778C187.247 141.815 187.259 141.851 187.282 141.88C187.562 141.534 189.095 141.334 190.926 141.409C192.757 141.485 194.277 141.823 194.522 142.187C194.549 142.16 194.565 142.123 194.566 142.085C194.566 141.689 192.962 141.289 190.935 141.196C188.908 141.103 187.264 141.378 187.246 141.778Z" fill="#8807F7"/>
<path opacity="0.4" d="M187.246 141.778C187.247 141.815 187.259 141.851 187.282 141.88C187.562 141.534 189.095 141.334 190.926 141.409C192.757 141.485 194.277 141.823 194.522 142.187C194.549 142.16 194.565 142.123 194.566 142.085C194.566 141.689 192.962 141.289 190.935 141.196C188.908 141.103 187.264 141.378 187.246 141.778Z" fill="#8807F7"/>
<path opacity="0.4" d="M187.301 141.88C187.55 142.249 189.079 142.578 190.896 142.658C192.714 142.738 194.265 142.534 194.541 142.187C194.296 141.822 192.785 141.489 190.945 141.409C189.105 141.329 187.581 141.534 187.301 141.88Z" fill="#8807F7"/>
<path d="M184.957 141.543C184.931 142.129 186.788 142.685 189.104 142.783C191.42 142.88 193.317 142.485 193.344 141.894C193.371 141.303 191.513 140.752 189.197 140.654C186.882 140.556 185.002 140.956 184.957 141.543Z" fill="#8807F7"/>
<path d="M185.01 140.491L184.965 141.552L193.353 141.909L193.398 140.848L185.01 140.491Z" fill="#8807F7"/>
<path d="M185.004 140.48C184.978 141.067 186.835 141.623 189.151 141.72C191.466 141.818 193.364 141.423 193.391 140.831C193.418 140.24 191.56 139.689 189.244 139.591C186.929 139.494 185.031 139.894 185.004 140.48Z" fill="#8807F7"/>
<path opacity="0.4" d="M185.004 140.48C184.978 141.067 186.835 141.623 189.151 141.72C191.466 141.818 193.364 141.423 193.391 140.831C193.418 140.24 191.56 139.689 189.244 139.591C186.929 139.494 185.031 139.894 185.004 140.48Z" fill="white"/>
<path d="M185.543 140.462C185.544 140.499 185.556 140.535 185.579 140.565C185.863 140.222 187.396 140.018 189.227 140.098C191.059 140.178 192.574 140.507 192.819 140.871C192.846 140.846 192.861 140.811 192.863 140.774C192.863 140.374 191.259 139.978 189.236 139.885C187.214 139.791 185.561 140.062 185.543 140.462Z" fill="#8807F7"/>
<path opacity="0.4" d="M185.543 140.462C185.544 140.499 185.556 140.535 185.579 140.565C185.863 140.222 187.396 140.018 189.227 140.098C191.059 140.178 192.574 140.507 192.819 140.871C192.846 140.846 192.861 140.811 192.863 140.774C192.863 140.374 191.259 139.978 189.236 139.885C187.214 139.791 185.561 140.062 185.543 140.462Z" fill="#8807F7"/>
<path opacity="0.4" d="M185.551 140.565C185.804 140.934 187.329 141.267 189.146 141.343C190.964 141.418 192.515 141.218 192.791 140.872C192.546 140.507 191.035 140.174 189.2 140.098C187.364 140.023 185.835 140.223 185.551 140.565Z" fill="#8807F7"/>
<path d="M195.765 144.742C195.521 145.262 196.978 146.458 199.018 147.409C201.058 148.36 202.912 148.742 203.152 148.209C203.392 147.676 201.938 146.498 199.898 145.542C197.858 144.587 196.005 144.227 195.765 144.742Z" fill="#8807F7"/>
<path d="M196.218 143.822L195.777 144.76L203.167 148.232L203.607 147.295L196.218 143.822Z" fill="#8807F7"/>
<path d="M196.218 143.809C195.974 144.325 197.431 145.52 199.471 146.476C201.511 147.431 203.365 147.809 203.605 147.276C203.845 146.743 202.391 145.56 200.351 144.609C198.311 143.658 196.458 143.289 196.218 143.809Z" fill="#8807F7"/>
<path opacity="0.4" d="M196.218 143.809C195.974 144.325 197.431 145.52 199.471 146.476C201.511 147.431 203.365 147.809 203.605 147.276C203.845 146.743 202.391 145.56 200.351 144.609C198.311 143.658 196.458 143.289 196.218 143.809Z" fill="white"/>
<path d="M196.686 143.991C196.672 144.026 196.672 144.064 196.686 144.098C197.064 143.898 198.517 144.289 200.13 145.049C201.744 145.809 202.979 146.676 203.064 147.098C203.097 147.083 203.124 147.056 203.139 147.022C203.304 146.671 201.997 145.689 200.215 144.867C198.432 144.045 196.85 143.645 196.686 143.991Z" fill="#8807F7"/>
<path opacity="0.4" d="M196.686 143.991C196.672 144.026 196.672 144.064 196.686 144.098C197.064 143.898 198.517 144.289 200.13 145.049C201.744 145.809 202.979 146.676 203.064 147.098C203.097 147.083 203.124 147.056 203.139 147.022C203.304 146.671 201.997 145.689 200.215 144.867C198.432 144.045 196.85 143.645 196.686 143.991Z" fill="#8807F7"/>
<path opacity="0.4" d="M196.676 144.098C196.76 144.543 198.009 145.387 199.605 146.147C201.2 146.907 202.676 147.303 203.054 147.098C202.969 146.676 201.72 145.809 200.12 145.049C198.52 144.289 197.054 143.898 196.676 144.098Z" fill="#8807F7"/>
<path d="M191.488 146.579C191.466 147.147 193.266 147.685 195.524 147.783C197.782 147.881 199.622 147.494 199.648 146.925C199.675 146.356 197.871 145.814 195.613 145.716C193.355 145.619 191.515 146.005 191.488 146.579Z" fill="#8807F7"/>
<path d="M191.509 145.528L191.465 146.563L199.622 146.909L199.666 145.874L191.509 145.528Z" fill="#8807F7"/>
<path d="M191.535 145.543C191.535 146.112 193.313 146.654 195.571 146.752C197.828 146.849 199.668 146.458 199.691 145.889C199.713 145.32 197.913 144.778 195.66 144.685C193.406 144.592 191.562 144.974 191.535 145.543Z" fill="#8807F7"/>
<path opacity="0.4" d="M191.535 145.543C191.535 146.112 193.313 146.654 195.571 146.752C197.828 146.849 199.668 146.458 199.691 145.889C199.713 145.32 197.913 144.778 195.66 144.685C193.406 144.592 191.562 144.974 191.535 145.543Z" fill="white"/>
<path d="M192.043 145.525C192.043 145.562 192.056 145.598 192.079 145.627C192.354 145.289 193.856 145.094 195.634 145.183C197.412 145.272 198.892 145.583 199.127 145.938C199.154 145.913 199.17 145.878 199.172 145.84C199.172 145.454 197.607 145.067 195.643 144.983C193.679 144.898 192.061 145.138 192.043 145.525Z" fill="#8807F7"/>
<path opacity="0.4" d="M192.043 145.525C192.043 145.562 192.056 145.598 192.079 145.627C192.354 145.289 193.856 145.094 195.634 145.183C197.412 145.272 198.892 145.583 199.127 145.938C199.154 145.913 199.17 145.878 199.172 145.84C199.172 145.454 197.607 145.067 195.643 144.983C193.679 144.898 192.061 145.138 192.043 145.525Z" fill="#8807F7"/>
<path opacity="0.4" d="M192.098 145.627C192.342 145.982 193.809 146.307 195.591 146.382C197.373 146.458 198.871 146.262 199.147 145.938C198.911 145.582 197.44 145.258 195.653 145.182C193.867 145.107 192.355 145.271 192.098 145.627Z" fill="#8807F7"/>
<path d="M133.155 125.21C133.156 125.59 133.156 125.971 133.157 126.351C133.158 126.679 133.051 126.998 132.747 127.165C132.391 127.36 131.887 127.311 131.49 127.27C131.475 127.269 131.461 127.267 131.447 127.266C131.46 126.992 131.455 126.715 131.442 126.443C131.425 126.073 131.65 125.632 132.046 125.57C132.478 125.502 132.852 125.456 133.056 125.218C133.063 125.211 133.069 125.204 133.075 125.196C133.105 125.156 133.137 125.116 133.169 125.077C133.159 125.12 133.155 125.165 133.155 125.21Z" fill="#B86AFA"/>
<path d="M131.855 129.745C132.152 129.764 132.451 129.76 132.748 129.765C133.095 129.771 133.45 129.814 133.785 129.753C134.265 129.665 134.805 129.352 134.983 128.888C135.149 128.458 135.071 127.945 134.786 127.584C134.766 127.559 134.745 127.535 134.722 127.511C134.434 127.197 133.987 127.032 133.563 127.089C133.035 127.159 132.57 127.574 132.433 128.088C132.348 128.409 132.422 128.751 132.372 129.077C132.331 129.348 132.1 129.625 131.855 129.745Z" fill="#B86AFA"/>
<path d="M134.821 123.984C134.794 124.065 134.826 124.152 134.861 124.229C135.301 125.212 136.481 125.876 136.441 127.056C136.422 127.59 136.156 128.217 135.711 128.533C135.678 128.556 135.649 128.576 135.611 128.587C135.526 128.428 135.517 128.195 135.445 128.02C135.354 127.8 135.234 127.584 135.067 127.413C134.907 127.25 134.706 127.156 134.545 126.996C134.209 126.66 133.996 126.199 133.968 125.723C133.927 125.045 134.266 124.372 134.821 123.984Z" fill="#B86AFA"/>
<path d="M131.746 126.353C131.746 126.353 131.731 126.056 132.034 126.071C132.034 126.071 132.145 126.395 131.746 126.353Z" fill="#8807F7" stroke="#B86AFA" stroke-width="0.0993049" stroke-miterlimit="10"/>
<path d="M131.655 128.86C131.933 128.86 132.158 128.635 132.158 128.357C132.158 128.079 131.933 127.854 131.655 127.854C131.377 127.854 131.152 128.079 131.152 128.357C131.152 128.635 131.377 128.86 131.655 128.86Z" fill="#B86AFA"/>
<path d="M175.772 108.744C175.773 109.124 175.773 109.505 175.774 109.885C175.775 110.213 175.668 110.532 175.364 110.699C175.008 110.894 174.504 110.845 174.107 110.804C174.092 110.803 174.078 110.801 174.064 110.8C174.077 110.526 174.072 110.25 174.059 109.977C174.043 109.607 174.267 109.166 174.664 109.104C175.095 109.036 175.469 108.99 175.673 108.752C175.68 108.745 175.686 108.738 175.692 108.73C175.722 108.69 175.754 108.65 175.786 108.611C175.776 108.654 175.772 108.699 175.772 108.744Z" fill="#B86AFA"/>
<path d="M174.473 113.28C174.769 113.299 175.068 113.294 175.366 113.299C175.712 113.305 176.067 113.348 176.402 113.287C176.882 113.2 177.422 112.886 177.6 112.422C177.766 111.992 177.688 111.479 177.403 111.119C177.383 111.094 177.362 111.07 177.339 111.046C177.051 110.731 176.605 110.566 176.18 110.623C175.652 110.693 175.187 111.108 175.05 111.622C174.965 111.943 175.039 112.285 174.989 112.611C174.948 112.882 174.717 113.16 174.473 113.28Z" fill="#B86AFA"/>
<path d="M177.438 107.518C177.411 107.599 177.443 107.686 177.478 107.764C177.918 108.746 179.099 109.41 179.058 110.59C179.04 111.124 178.773 111.751 178.328 112.067C178.296 112.09 178.266 112.111 178.228 112.121C178.143 111.962 178.134 111.729 178.062 111.554C177.971 111.334 177.851 111.118 177.684 110.947C177.524 110.784 177.323 110.691 177.162 110.531C176.826 110.194 176.613 109.733 176.585 109.258C176.544 108.579 176.884 107.906 177.438 107.518Z" fill="#B86AFA"/>
<path d="M174.363 109.887C174.363 109.887 174.348 109.591 174.651 109.606C174.652 109.606 174.762 109.929 174.363 109.887Z" fill="#8807F7" stroke="#B86AFA" stroke-width="0.0993049" stroke-miterlimit="10"/>
<path d="M174.272 112.394C174.55 112.394 174.775 112.169 174.775 111.891C174.775 111.614 174.55 111.389 174.272 111.389C173.995 111.389 173.77 111.614 173.77 111.891C173.77 112.169 173.995 112.394 174.272 112.394Z" fill="#B86AFA"/>
<path d="M228.108 139.873C228.109 140.253 228.109 140.633 228.11 141.013C228.111 141.341 228.004 141.66 227.7 141.828C227.344 142.022 226.84 141.973 226.443 141.932C226.428 141.931 226.414 141.929 226.4 141.928C226.413 141.654 226.408 141.378 226.395 141.105C226.378 140.736 226.603 140.295 226.999 140.232C227.431 140.164 227.805 140.118 228.009 139.881C228.016 139.874 228.022 139.867 228.028 139.859C228.058 139.818 228.09 139.779 228.122 139.739C228.112 139.782 228.108 139.828 228.108 139.873Z" fill="#B86AFA"/>
<path d="M226.809 144.408C227.105 144.427 227.404 144.422 227.701 144.427C228.048 144.433 228.403 144.476 228.738 144.415C229.218 144.328 229.758 144.015 229.936 143.55C230.102 143.121 230.024 142.608 229.739 142.247C229.719 142.222 229.698 142.198 229.675 142.174C229.387 141.859 228.941 141.695 228.516 141.751C227.988 141.821 227.523 142.236 227.386 142.75C227.301 143.071 227.375 143.413 227.325 143.74C227.284 144.011 227.053 144.288 226.809 144.408Z" fill="#B86AFA"/>
<path d="M229.774 138.647C229.747 138.727 229.779 138.815 229.814 138.892C230.254 139.874 231.435 140.539 231.394 141.719C231.376 142.252 231.109 142.879 230.664 143.195C230.632 143.218 230.602 143.239 230.564 143.249C230.479 143.091 230.47 142.858 230.398 142.682C230.307 142.462 230.187 142.246 230.02 142.076C229.86 141.913 229.659 141.819 229.498 141.659C229.162 141.323 228.949 140.862 228.921 140.386C228.88 139.707 229.22 139.034 229.774 138.647Z" fill="#B86AFA"/>
<path d="M226.699 141.015C226.699 141.015 226.684 140.719 226.987 140.734C226.987 140.734 227.098 141.058 226.699 141.015Z" fill="#8807F7" stroke="#B86AFA" stroke-width="0.0993049" stroke-miterlimit="10"/>
<path d="M226.608 143.522C226.886 143.522 227.111 143.297 227.111 143.02C227.111 142.742 226.886 142.517 226.608 142.517C226.331 142.517 226.105 142.742 226.105 143.02C226.105 143.297 226.331 143.522 226.608 143.522Z" fill="#B86AFA"/>
<defs>
<filter id="filter0_b_1_13131" x="-199.713" y="-199.632" width="654.156" height="566.246" filterUnits="userSpaceOnUse" color-interpolation-filters="sRGB">
<feFlood flood-opacity="0" result="BackgroundImageFix"/>
<feGaussianBlur in="BackgroundImageFix" stdDeviation="100.311"/>
<feComposite in2="SourceAlpha" operator="in" result="effect1_backgroundBlur_1_13131"/>
<feBlend mode="normal" in="SourceGraphic" in2="effect1_backgroundBlur_1_13131" result="shape"/>
</filter>
</defs>
</svg>
