<svg width="16" height="15" viewBox="0 0 16 15" fill="none" xmlns="http://www.w3.org/2000/svg">
<path d="M12.813 4.69208L6.07872 1.31653C1.5444 -0.945033 -0.308512 0.907881 1.95865 5.43661L2.96068 7.43507L1.95865 9.43353C-0.308512 13.9623 1.55 15.8208 6.07872 13.5536L12.813 10.1892C15.8303 8.67221 15.8359 6.20352 12.813 4.69208ZM9.98048 7.8829L5.71486 7.8941C5.54692 7.8941 5.40137 7.82692 5.29501 7.72056C5.18865 7.6142 5.12148 7.46865 5.12148 7.30072C5.12148 6.97604 5.39018 6.70734 5.71486 6.70734L9.98048 6.69614C10.3052 6.69614 10.5739 6.96484 10.5739 7.28952C10.5739 7.6142 10.3052 7.8829 9.98048 7.8829Z" fill="white"/>
</svg>
