<svg width="274" height="166" viewBox="0 0 274 166" fill="none" xmlns="http://www.w3.org/2000/svg">
<g filter="url(#filter0_b_1_14053)">
<rect x="0.369141" y="0.990723" width="252.91" height="165" rx="10.0311" fill="url(#paint0_linear_1_14053)" fill-opacity="0.9"/>
</g>
<path d="M237.585 0.990723H10.3976C4.85905 0.990723 0.369141 5.48063 0.369141 11.0192V156.727C0.369141 157.802 1.56281 158.447 2.4623 157.858L238.326 3.47479C239.451 2.73871 238.929 0.990723 237.585 0.990723Z" fill="url(#paint1_linear_1_14053)"/>
<path d="M33.2395 49.1169C35.6815 49.1169 36.8603 48.0054 37.2477 46.5234H37.3824V48.9485H39.7233V42.9868H33.3742V44.8561H37.1971C37.1298 46.2876 36.3383 46.6918 33.7447 46.6918C31.2691 46.6918 30.3429 45.8161 30.3429 43.3068C30.3429 40.7975 31.3028 39.9217 33.8626 39.9217C36.0351 39.9217 36.894 40.5449 36.894 41.8584V41.9932H39.7064V41.8584C39.7064 39.1471 37.4666 37.4966 33.93 37.4966C30.0566 37.4966 27.6652 39.787 27.6652 43.3068C27.6652 46.8265 29.7871 49.1169 33.2395 49.1169ZM45.4393 49.1169C48.1171 49.1169 49.9022 47.837 49.9022 46.0013V45.8161H47.3761V45.9845C47.3761 46.7086 46.854 47.096 45.3551 47.096C43.7216 47.096 43.1153 46.5402 43.0479 45.2435H49.919C49.9527 44.9572 49.9864 44.7382 49.9864 44.4351C49.9864 41.7911 48.1507 40.3428 45.3888 40.3428C42.6101 40.3428 40.707 42.0437 40.707 44.7382C40.707 47.7359 42.6269 49.1169 45.4393 49.1169ZM45.3383 42.3132C46.8203 42.3132 47.4939 42.8015 47.5613 43.913H43.0816C43.1995 42.8184 43.8395 42.3132 45.3383 42.3132ZM57.0025 48.9485V46.675H55.4868C54.5942 46.675 54.2743 46.456 54.2743 45.614V42.5994H57.0025V40.5112H54.2743V38.8776H51.7481V40.5112H50.4177V42.5994H51.7481V45.9003C51.7481 48.0222 52.9438 48.9485 54.9142 48.9485H57.0025ZM62.1639 51.8114C64.2858 51.8114 65.4142 51.3231 66.2225 49.5548L70.3991 40.5112H67.5866L65.9868 44.3509L65.3131 46.355H65.1447L64.4374 44.3677L62.6522 40.5112H59.7893L63.9153 48.9822C63.7469 49.3527 63.4775 49.5211 62.8543 49.5211H60.7829V51.8114H62.1639ZM75.5035 49.1169C78.3833 49.1169 80.32 47.3991 80.32 44.7382C80.32 42.0437 78.3833 40.3428 75.5035 40.3428C72.6237 40.3428 70.687 42.0437 70.687 44.7382C70.687 47.3991 72.6237 49.1169 75.5035 49.1169ZM75.5035 46.877C73.7857 46.877 73.1963 46.2203 73.1963 44.7382C73.1963 43.2562 73.7857 42.5658 75.5035 42.5658C77.2044 42.5658 77.8107 43.2562 77.8107 44.7382C77.8107 46.2203 77.2044 46.877 75.5035 46.877ZM84.8377 49.1169C87.0607 49.1169 88.088 47.7865 88.3069 46.3718H88.4417V48.9485H90.7994V40.5112H88.2733V44.7888C88.2733 46.2203 87.6838 46.8602 86.0334 46.8602C84.4335 46.8602 83.8609 46.2876 83.8609 44.9235V40.5112H81.3348V45.7655C81.3348 47.6517 82.4631 49.1169 84.8377 49.1169ZM94.6172 48.9485V44.0646C94.6172 43.0036 95.0213 42.4816 96.1497 42.4816C97.177 42.4816 97.5475 42.8857 97.5475 43.812V44.6877H100.074V43.2899C100.074 41.6395 99.2989 40.3428 97.4128 40.3428C95.7118 40.3428 94.8193 41.3869 94.5835 42.751H94.4319V40.5112H92.091V48.9485H94.6172ZM31.4039 70.1169C33.6269 70.1169 34.6542 68.7865 34.8731 67.3718H35.0078V69.9485H37.3656V61.5112H34.8394V65.7888C34.8394 67.2203 34.25 67.8602 32.5996 67.8602C30.9997 67.8602 30.4271 67.2876 30.4271 65.9235V61.5112H27.9009V66.7655C27.9009 68.6517 29.0293 70.1169 31.4039 70.1169ZM41.1833 69.9485V65.6877C41.1833 64.2562 41.7559 63.6163 43.3558 63.6163C44.9052 63.6163 45.4609 64.1889 45.4609 65.5362V69.9485H47.9871V64.6941C47.9871 62.8248 46.8924 61.3428 44.5852 61.3428C42.379 61.3428 41.3686 62.69 41.1496 64.1047H40.9981V61.5112H38.6572V69.9485H41.1833ZM51.7911 60.6523V58.665H49.265V60.6523H51.7911ZM51.7911 69.9485V61.5112H49.265V69.9485H51.7911ZM56.7679 70.1169C58.7215 70.1169 59.7993 69.157 60.0856 67.675H60.2203V72.8114H62.7464V61.5112H60.3887V63.8184H60.2203C59.9172 62.2016 58.8393 61.3428 56.8521 61.3428C54.2586 61.3428 52.8103 63.0605 52.8103 65.7382C52.8103 68.416 54.2418 70.1169 56.7679 70.1169ZM55.3701 65.7382C55.3701 64.1889 56.128 63.6668 57.7447 63.6668C59.3614 63.6668 60.2203 64.2226 60.2203 65.7214V65.8561C60.2203 67.3045 59.3446 67.8097 57.7447 67.8097C56.128 67.8097 55.3701 67.2708 55.3701 65.7382ZM67.5691 70.1169C69.7922 70.1169 70.8195 68.7865 71.0384 67.3718H71.1731V69.9485H73.5308V61.5112H71.0047V65.7888C71.0047 67.2203 70.4153 67.8602 68.7649 67.8602C67.165 67.8602 66.5924 67.2876 66.5924 65.9235V61.5112H64.0662V66.7655C64.0662 68.6517 65.1946 70.1169 67.5691 70.1169ZM79.3022 70.1169C81.9799 70.1169 83.765 68.837 83.765 67.0013V66.8161H81.2389V66.9845C81.2389 67.7086 80.7168 68.096 79.218 68.096C77.5844 68.096 76.9781 67.5402 76.9107 66.2435H83.7819C83.8155 65.9572 83.8492 65.7382 83.8492 65.4351C83.8492 62.7911 82.0136 61.3428 79.2516 61.3428C76.4729 61.3428 74.5699 63.0437 74.5699 65.7382C74.5699 68.7359 76.4897 70.1169 79.3022 70.1169ZM79.2011 63.3132C80.6831 63.3132 81.3568 63.8015 81.4241 64.913H76.9444C77.0623 63.8184 77.7023 63.3132 79.2011 63.3132ZM92.6386 70.1169C96.2257 70.1169 97.6572 68.4665 97.6572 66.6308C97.6572 65.0815 96.7478 63.8521 94.2217 63.4479L91.0556 62.9426C90.1125 62.7742 89.742 62.5385 89.742 61.8817C89.742 61.1575 90.2977 60.8038 92.1165 60.8038C94.3564 60.8038 94.9121 61.2586 94.9121 62.3364V62.5721H97.4551V62.4711C97.4551 60.0965 95.8384 58.4966 92.3692 58.4966C88.5799 58.4966 87.199 60.2818 87.199 61.9827C87.199 63.8184 88.3947 64.8288 90.4156 65.1488L93.5817 65.6035C94.7437 65.8056 95.1311 66.0582 95.1311 66.7487C95.1311 67.5065 94.6595 67.8097 92.6386 67.8097C90.3482 67.8097 89.8262 67.3887 89.8262 66.3445V66.0414H87.3V66.1424C87.3 68.7696 89.2199 70.1169 92.6386 70.1169ZM101.279 70.1169C103.149 70.1169 104.328 69.3254 104.715 68.0118H104.85V69.9485H107.207V64.9972C107.207 62.7911 105.877 61.3428 103.065 61.3428C100.286 61.3428 98.5344 62.7911 98.5344 64.8794V64.9299H101.077V64.8625C101.077 63.9026 101.599 63.5658 102.879 63.5658C104.227 63.5658 104.715 63.8689 104.715 64.9636V65.2835L101.094 65.654C99.2922 65.8393 98.366 66.614 98.366 67.8602C98.366 69.2748 99.4607 70.1169 101.279 70.1169ZM100.909 67.6918C100.909 67.2876 101.178 67.1192 101.785 67.0687L104.715 66.7319C104.648 67.9276 103.721 68.3318 102.004 68.3318C101.263 68.3318 100.909 68.1465 100.909 67.6918ZM111.014 69.9485V65.6877C111.014 64.2562 111.587 63.6163 113.187 63.6163C114.736 63.6163 115.292 64.1889 115.292 65.5362V69.9485H117.818V64.6941C117.818 62.8248 116.723 61.3428 114.416 61.3428C112.21 61.3428 111.199 62.69 110.98 64.1047H110.829V61.5112H108.488V69.9485H111.014ZM124.22 69.9485V58.665H121.694V69.9485H124.22ZM131.117 69.9485C134.738 69.9485 137.028 67.8434 137.028 64.3068C137.028 60.7702 134.738 58.665 131.117 58.665H125.677V69.9485H131.117ZM131.117 60.9386C133.407 60.9386 134.334 61.5954 134.334 64.3068C134.334 67.0182 133.407 67.675 131.117 67.675H128.204V60.9386H131.117Z" fill="white"/>
<g filter="url(#filter1_i_1_14053)">
<path d="M177.327 131.425L171.512 134.928C171.255 135.092 170.986 135.162 170.706 135.139C170.426 135.115 170.18 135.022 169.97 134.858C169.76 134.695 169.597 134.491 169.48 134.246C169.363 134 169.34 133.726 169.41 133.422L170.951 126.801L165.801 122.352C165.568 122.142 165.422 121.902 165.364 121.633C165.305 121.365 165.323 121.102 165.416 120.845C165.509 120.588 165.65 120.378 165.836 120.215C166.023 120.051 166.28 119.946 166.607 119.899L173.403 119.304L176.031 113.068C176.148 112.788 176.329 112.578 176.575 112.437C176.819 112.297 177.07 112.227 177.327 112.227C177.584 112.227 177.835 112.297 178.081 112.437C178.326 112.578 178.507 112.788 178.623 113.068L181.251 119.304L188.047 119.899C188.374 119.946 188.631 120.051 188.818 120.215C189.005 120.378 189.145 120.588 189.238 120.845C189.332 121.102 189.349 121.365 189.291 121.633C189.233 121.902 189.086 122.142 188.853 122.352L183.703 126.801L185.245 133.422C185.315 133.726 185.291 134 185.174 134.246C185.058 134.491 184.894 134.695 184.684 134.858C184.474 135.022 184.229 135.115 183.948 135.139C183.668 135.162 183.399 135.092 183.143 134.928L177.327 131.425Z" fill="white"/>
<path d="M203.305 111.033L193.789 116.766C193.369 117.034 192.929 117.148 192.471 117.11C192.012 117.072 191.611 116.919 191.267 116.651C190.923 116.384 190.655 116.05 190.464 115.649C190.273 115.247 190.235 114.798 190.35 114.301L192.872 103.466L184.445 96.1859C184.063 95.8419 183.824 95.4498 183.73 95.0096C183.633 94.5708 183.662 94.1413 183.815 93.7209C183.967 93.3005 184.197 92.9565 184.502 92.689C184.808 92.4215 185.229 92.2495 185.764 92.1731L196.885 91.1985L201.184 80.9945C201.375 80.5359 201.672 80.1919 202.074 79.9626C202.475 79.7333 202.885 79.6187 203.305 79.6187C203.726 79.6187 204.137 79.7333 204.539 79.9626C204.94 80.1919 205.235 80.5359 205.426 80.9945L209.726 91.1985L220.847 92.1731C221.382 92.2495 221.803 92.4215 222.108 92.689C222.414 92.9565 222.643 93.3005 222.796 93.7209C222.949 94.1413 222.978 94.5708 222.883 95.0096C222.787 95.4498 222.548 95.8419 222.166 96.1859L213.739 103.466L216.261 114.301C216.376 114.798 216.338 115.247 216.146 115.649C215.955 116.05 215.688 116.384 215.344 116.651C215 116.919 214.599 117.072 214.14 117.11C213.681 117.148 213.242 117.034 212.822 116.766L203.305 111.033Z" fill="white"/>
<path d="M201.749 140.597L195.934 144.101C195.677 144.264 195.408 144.334 195.128 144.311C194.848 144.287 194.602 144.194 194.392 144.03C194.182 143.867 194.018 143.663 193.902 143.418C193.785 143.172 193.762 142.898 193.832 142.594L195.373 135.973L190.223 131.524C189.99 131.314 189.844 131.074 189.786 130.805C189.727 130.537 189.745 130.274 189.838 130.017C189.931 129.761 190.071 129.55 190.258 129.387C190.445 129.223 190.702 129.118 191.029 129.072L197.825 128.476L200.453 122.24C200.57 121.96 200.751 121.75 200.997 121.61C201.241 121.469 201.492 121.399 201.749 121.399C202.006 121.399 202.257 121.469 202.503 121.61C202.748 121.75 202.928 121.96 203.045 122.24L205.673 128.476L212.469 129.072C212.796 129.118 213.053 129.223 213.24 129.387C213.427 129.55 213.567 129.761 213.66 130.017C213.754 130.274 213.771 130.537 213.713 130.805C213.655 131.074 213.508 131.314 213.275 131.524L208.125 135.973L209.666 142.594C209.736 142.898 209.713 143.172 209.596 143.418C209.48 143.663 209.316 143.867 209.106 144.03C208.896 144.194 208.65 144.287 208.37 144.311C208.09 144.334 207.821 144.264 207.564 144.101L201.749 140.597Z" fill="white"/>
</g>
<defs>
<filter id="filter0_b_1_14053" x="-200.254" y="-199.632" width="654.156" height="566.246" filterUnits="userSpaceOnUse" color-interpolation-filters="sRGB">
<feFlood flood-opacity="0" result="BackgroundImageFix"/>
<feGaussianBlur in="BackgroundImageFix" stdDeviation="100.311"/>
<feComposite in2="SourceAlpha" operator="in" result="effect1_backgroundBlur_1_14053"/>
<feBlend mode="normal" in="SourceGraphic" in2="effect1_backgroundBlur_1_14053" result="shape"/>
</filter>
<filter id="filter1_i_1_14053" x="120.744" y="16.0425" width="152.87" height="149.393" filterUnits="userSpaceOnUse" color-interpolation-filters="sRGB">
<feFlood flood-opacity="0" result="BackgroundImageFix"/>
<feBlend mode="normal" in="SourceGraphic" in2="BackgroundImageFix" result="shape"/>
<feColorMatrix in="SourceAlpha" type="matrix" values="0 0 0 0 0 0 0 0 0 0 0 0 0 0 0 0 0 0 127 0" result="hardAlpha"/>
<feOffset dy="-48.4995"/>
<feGaussianBlur stdDeviation="24.2497"/>
<feComposite in2="hardAlpha" operator="arithmetic" k2="-1" k3="1"/>
<feColorMatrix type="matrix" values="0 0 0 0 0.791667 0 0 0 0 0.791667 0 0 0 0 0.791667 0 0 0 0.25 0"/>
<feBlend mode="normal" in2="shape" result="effect1_innerShadow_1_14053"/>
</filter>
<linearGradient id="paint0_linear_1_14053" x1="17.4656" y1="110.104" x2="282.88" y2="108.797" gradientUnits="userSpaceOnUse">
<stop stop-color="#8807F7"/>
<stop offset="0.40625" stop-color="#520BB3"/>
<stop offset="1" stop-color="#EA00BE"/>
</linearGradient>
<linearGradient id="paint1_linear_1_14053" x1="24.0372" y1="107.497" x2="270.66" y2="103.709" gradientUnits="userSpaceOnUse">
<stop stop-color="#8807F7"/>
<stop offset="0.40625" stop-color="#520BB3"/>
<stop offset="1" stop-color="#EA00BE"/>
</linearGradient>
</defs>
</svg>
